  0
SECTION
  2
HEADER
  9
$ACADVER
  1
AC1009
  9
$EXTMIN
 10
0.0
 20
0.0
 30
0.0
  9
$EXTMAX
 10
1000.0
 20
1000.0
 30
0.0
  9
$FILLMODE
 70
 0
  9
$SPLFRAME
 70
 1
  0
ENDSEC
  0
SECTION
  2
TABLES
  0
TABLE
  2
LAYER
 70
1
  0
LAYER
  2
0
 70
     0
 62
     7
  6
CONTINUOUS
  0
ENDTAB
  0
ENDSEC
  0
SECTION
  2
ENTITIES
  0
POLYLINE
  8
0
 62
     0
 66
     1
 10
0
 20
0
 30
0.0
 70
     1
 40
0
 41
0
  0
VERTEX
  8
0
 10
3
 20
434.125
 30
0.0
 40
0
 41
0
  0
VERTEX
  8
0
 10
3
 20
425.125
 30
0.0
 40
0
 41
0
  0
VERTEX
  8
0
 10
0
 20
425.125
 30
0.0
 40
0
 41
0
  0
VERTEX
  8
0
 10
0
 20
412.625
 30
0.0
 40
0
 41
0
  0
VERTEX
  8
0
 10
3
 20
412.625
 30
0.0
 40
0
 41
0
  0
VERTEX
  8
0
 10
3
 20
403.625
 30
0.0
 40
0
 41
0
  0
VERTEX
  8
0
 10
0
 20
403.625
 30
0.0
 40
0
 41
0
  0
VERTEX
  8
0
 10
0
 20
391.125
 30
0.0
 40
0
 41
0
  0
VERTEX
  8
0
 10
3
 20
391.125
 30
0.0
 40
0
 41
0
  0
VERTEX
  8
0
 10
3
 20
382.125
 30
0.0
 40
0
 41
0
  0
VERTEX
  8
0
 10
0
 20
382.125
 30
0.0
 40
0
 41
0
  0
VERTEX
  8
0
 10
0
 20
369.625
 30
0.0
 40
0
 41
0
  0
VERTEX
  8
0
 10
64.0575
 20
352.856
 30
0.0
 40
0
 41
0
  0
VERTEX
  8
0
 10
65.0357
 20
352.6
 30
0.0
 40
0
 41
0
  0
VERTEX
  8
0
 10
67.9786
 20
351.862
 30
0.0
 40
0
 41
0
  0
VERTEX
  8
0
 10
71.9136
 20
350.933
 30
0.0
 40
0
 41
0
  0
VERTEX
  8
0
 10
75.8614
 20
350.067
 30
0.0
 40
0
 41
0
  0
VERTEX
  8
0
 10
79.8212
 20
349.264
 30
0.0
 40
0
 41
0
  0
VERTEX
  8
0
 10
83.7924
 20
348.525
 30
0.0
 40
0
 41
0
  0
VERTEX
  8
0
 10
87.774
 20
347.85
 30
0.0
 40
0
 41
0
  0
VERTEX
  8
0
 10
91.7656
 20
347.239
 30
0.0
 40
0
 41
0
  0
VERTEX
  8
0
 10
95.7661
 20
346.692
 30
0.0
 40
0
 41
0
  0
VERTEX
  8
0
 10
99.7749
 20
346.207
 30
0.0
 40
0
 41
0
  0
VERTEX
  8
0
 10
103.791
 20
345.789
 30
0.0
 40
0
 41
0
  0
VERTEX
  8
0
 10
107.814
 20
345.433
 30
0.0
 40
0
 41
0
  0
VERTEX
  8
0
 10
111.843
 20
345.143
 30
0.0
 40
0
 41
0
  0
VERTEX
  8
0
 10
115.877
 20
344.917
 30
0.0
 40
0
 41
0
  0
VERTEX
  8
0
 10
119.915
 20
344.754
 30
0.0
 40
0
 41
0
  0
VERTEX
  8
0
 10
123.957
 20
344.657
 30
0.0
 40
0
 41
0
  0
VERTEX
  8
0
 10
126.991
 20
344.625
 30
0.0
 40
0
 41
0
  0
VERTEX
  8
0
 10
128.002
 20
344.625
 30
0.0
 40
0
 41
0
  0
VERTEX
  8
0
 10
157
 20
344.625
 30
0.0
 40
0
 41
0
  0
VERTEX
  8
0
 10
157
 20
358.292
 30
0.0
 40
0
 41
0
  0
VERTEX
  8
0
 10
154
 20
358.292
 30
0.0
 40
0
 41
0
  0
VERTEX
  8
0
 10
154
 20
367.292
 30
0.0
 40
0
 41
0
  0
VERTEX
  8
0
 10
157
 20
367.292
 30
0.0
 40
0
 41
0
  0
VERTEX
  8
0
 10
157
 20
380.958
 30
0.0
 40
0
 41
0
  0
VERTEX
  8
0
 10
154
 20
380.958
 30
0.0
 40
0
 41
0
  0
VERTEX
  8
0
 10
154
 20
389.958
 30
0.0
 40
0
 41
0
  0
VERTEX
  8
0
 10
157
 20
389.958
 30
0.0
 40
0
 41
0
  0
VERTEX
  8
0
 10
157
 20
403.625
 30
0.0
 40
0
 41
0
  0
VERTEX
  8
0
 10
154
 20
403.625
 30
0.0
 40
0
 41
0
  0
VERTEX
  8
0
 10
154
 20
412.625
 30
0.0
 40
0
 41
0
  0
VERTEX
  8
0
 10
157
 20
412.625
 30
0.0
 40
0
 41
0
  0
VERTEX
  8
0
 10
157
 20
426.292
 30
0.0
 40
0
 41
0
  0
VERTEX
  8
0
 10
154
 20
426.292
 30
0.0
 40
0
 41
0
  0
VERTEX
  8
0
 10
154
 20
435.292
 30
0.0
 40
0
 41
0
  0
VERTEX
  8
0
 10
157
 20
435.292
 30
0.0
 40
0
 41
0
  0
VERTEX
  8
0
 10
157
 20
448.958
 30
0.0
 40
0
 41
0
  0
VERTEX
  8
0
 10
154
 20
448.958
 30
0.0
 40
0
 41
0
  0
VERTEX
  8
0
 10
154
 20
457.958
 30
0.0
 40
0
 41
0
  0
VERTEX
  8
0
 10
157
 20
457.958
 30
0.0
 40
0
 41
0
  0
VERTEX
  8
0
 10
157
 20
471.625
 30
0.0
 40
0
 41
0
  0
VERTEX
  8
0
 10
128.002
 20
471.625
 30
0.0
 40
0
 41
0
  0
VERTEX
  8
0
 10
126.991
 20
471.625
 30
0.0
 40
0
 41
0
  0
VERTEX
  8
0
 10
123.957
 20
471.593
 30
0.0
 40
0
 41
0
  0
VERTEX
  8
0
 10
119.915
 20
471.496
 30
0.0
 40
0
 41
0
  0
VERTEX
  8
0
 10
115.877
 20
471.333
 30
0.0
 40
0
 41
0
  0
VERTEX
  8
0
 10
111.843
 20
471.107
 30
0.0
 40
0
 41
0
  0
VERTEX
  8
0
 10
107.814
 20
470.817
 30
0.0
 40
0
 41
0
  0
VERTEX
  8
0
 10
103.791
 20
470.461
 30
0.0
 40
0
 41
0
  0
VERTEX
  8
0
 10
99.7749
 20
470.042
 30
0.0
 40
0
 41
0
  0
VERTEX
  8
0
 10
95.7661
 20
469.558
 30
0.0
 40
0
 41
0
  0
VERTEX
  8
0
 10
91.7656
 20
469.011
 30
0.0
 40
0
 41
0
  0
VERTEX
  8
0
 10
87.774
 20
468.4
 30
0.0
 40
0
 41
0
  0
VERTEX
  8
0
 10
83.7924
 20
467.725
 30
0.0
 40
0
 41
0
  0
VERTEX
  8
0
 10
79.8212
 20
466.986
 30
0.0
 40
0
 41
0
  0
VERTEX
  8
0
 10
75.8614
 20
466.183
 30
0.0
 40
0
 41
0
  0
VERTEX
  8
0
 10
71.9136
 20
465.317
 30
0.0
 40
0
 41
0
  0
VERTEX
  8
0
 10
67.9786
 20
464.387
 30
0.0
 40
0
 41
0
  0
VERTEX
  8
0
 10
65.0357
 20
463.65
 30
0.0
 40
0
 41
0
  0
VERTEX
  8
0
 10
64.0575
 20
463.394
 30
0.0
 40
0
 41
0
  0
VERTEX
  8
0
 10
0
 20
446.625
 30
0.0
 40
0
 41
0
  0
VERTEX
  8
0
 10
0
 20
434.125
 30
0.0
 40
0
 41
0
  0
VERTEX
  8
0
 10
3
 20
434.125
 30
0.0
 40
0
 41
0
  0
SEQEND
 8
0
  0
POLYLINE
  8
0
 62
     0
 66
     1
 10
0
 20
0
 30
0.0
 70
     1
 40
0
 41
0
  0
VERTEX
  8
0
 10
154
 20
285.544
 30
0.0
 40
0
 41
0
  0
VERTEX
  8
0
 10
154
 20
294.544
 30
0.0
 40
0
 41
0
  0
VERTEX
  8
0
 10
157
 20
294.544
 30
0.0
 40
0
 41
0
  0
VERTEX
  8
0
 10
157
 20
307.044
 30
0.0
 40
0
 41
0
  0
VERTEX
  8
0
 10
154
 20
307.044
 30
0.0
 40
0
 41
0
  0
VERTEX
  8
0
 10
154
 20
316.044
 30
0.0
 40
0
 41
0
  0
VERTEX
  8
0
 10
157
 20
316.044
 30
0.0
 40
0
 41
0
  0
VERTEX
  8
0
 10
157
 20
328.544
 30
0.0
 40
0
 41
0
  0
VERTEX
  8
0
 10
92.9428
 20
345.314
 30
0.0
 40
0
 41
0
  0
VERTEX
  8
0
 10
91.9644
 20
345.569
 30
0.0
 40
0
 41
0
  0
VERTEX
  8
0
 10
89.0215
 20
346.307
 30
0.0
 40
0
 41
0
  0
VERTEX
  8
0
 10
85.0865
 20
347.236
 30
0.0
 40
0
 41
0
  0
VERTEX
  8
0
 10
81.1389
 20
348.103
 30
0.0
 40
0
 41
0
  0
VERTEX
  8
0
 10
77.179
 20
348.906
 30
0.0
 40
0
 41
0
  0
VERTEX
  8
0
 10
73.2078
 20
349.644
 30
0.0
 40
0
 41
0
  0
VERTEX
  8
0
 10
69.2261
 20
350.319
 30
0.0
 40
0
 41
0
  0
VERTEX
  8
0
 10
65.2346
 20
350.931
 30
0.0
 40
0
 41
0
  0
VERTEX
  8
0
 10
61.2342
 20
351.478
 30
0.0
 40
0
 41
0
  0
VERTEX
  8
0
 10
57.2254
 20
351.963
 30
0.0
 40
0
 41
0
  0
VERTEX
  8
0
 10
53.2092
 20
352.381
 30
0.0
 40
0
 41
0
  0
VERTEX
  8
0
 10
49.1862
 20
352.736
 30
0.0
 40
0
 41
0
  0
VERTEX
  8
0
 10
45.1574
 20
353.026
 30
0.0
 40
0
 41
0
  0
VERTEX
  8
0
 10
41.1233
 20
353.253
 30
0.0
 40
0
 41
0
  0
VERTEX
  8
0
 10
37.0849
 20
353.415
 30
0.0
 40
0
 41
0
  0
VERTEX
  8
0
 10
33.0428
 20
353.513
 30
0.0
 40
0
 41
0
  0
VERTEX
  8
0
 10
30.0092
 20
353.544
 30
0.0
 40
0
 41
0
  0
VERTEX
  8
0
 10
28.9979
 20
353.544
 30
0.0
 40
0
 41
0
  0
VERTEX
  8
0
 10
0
 20
353.544
 30
0.0
 40
0
 41
0
  0
VERTEX
  8
0
 10
0
 20
339.878
 30
0.0
 40
0
 41
0
  0
VERTEX
  8
0
 10
3
 20
339.878
 30
0.0
 40
0
 41
0
  0
VERTEX
  8
0
 10
3
 20
330.878
 30
0.0
 40
0
 41
0
  0
VERTEX
  8
0
 10
0
 20
330.878
 30
0.0
 40
0
 41
0
  0
VERTEX
  8
0
 10
0
 20
317.211
 30
0.0
 40
0
 41
0
  0
VERTEX
  8
0
 10
3
 20
317.211
 30
0.0
 40
0
 41
0
  0
VERTEX
  8
0
 10
3
 20
308.211
 30
0.0
 40
0
 41
0
  0
VERTEX
  8
0
 10
0
 20
308.211
 30
0.0
 40
0
 41
0
  0
VERTEX
  8
0
 10
0
 20
294.544
 30
0.0
 40
0
 41
0
  0
VERTEX
  8
0
 10
3
 20
294.544
 30
0.0
 40
0
 41
0
  0
VERTEX
  8
0
 10
3
 20
285.544
 30
0.0
 40
0
 41
0
  0
VERTEX
  8
0
 10
0
 20
285.544
 30
0.0
 40
0
 41
0
  0
VERTEX
  8
0
 10
0
 20
271.878
 30
0.0
 40
0
 41
0
  0
VERTEX
  8
0
 10
3
 20
271.878
 30
0.0
 40
0
 41
0
  0
VERTEX
  8
0
 10
3
 20
262.878
 30
0.0
 40
0
 41
0
  0
VERTEX
  8
0
 10
0
 20
262.878
 30
0.0
 40
0
 41
0
  0
VERTEX
  8
0
 10
0
 20
249.211
 30
0.0
 40
0
 41
0
  0
VERTEX
  8
0
 10
3
 20
249.211
 30
0.0
 40
0
 41
0
  0
VERTEX
  8
0
 10
3
 20
240.211
 30
0.0
 40
0
 41
0
  0
VERTEX
  8
0
 10
0
 20
240.211
 30
0.0
 40
0
 41
0
  0
VERTEX
  8
0
 10
0
 20
226.544
 30
0.0
 40
0
 41
0
  0
VERTEX
  8
0
 10
28.9979
 20
226.544
 30
0.0
 40
0
 41
0
  0
VERTEX
  8
0
 10
30.0092
 20
226.544
 30
0.0
 40
0
 41
0
  0
VERTEX
  8
0
 10
33.0428
 20
226.576
 30
0.0
 40
0
 41
0
  0
VERTEX
  8
0
 10
37.0849
 20
226.674
 30
0.0
 40
0
 41
0
  0
VERTEX
  8
0
 10
41.1233
 20
226.836
 30
0.0
 40
0
 41
0
  0
VERTEX
  8
0
 10
45.1574
 20
227.063
 30
0.0
 40
0
 41
0
  0
VERTEX
  8
0
 10
49.1862
 20
227.353
 30
0.0
 40
0
 41
0
  0
VERTEX
  8
0
 10
53.2092
 20
227.708
 30
0.0
 40
0
 41
0
  0
VERTEX
  8
0
 10
57.2254
 20
228.128
 30
0.0
 40
0
 41
0
  0
VERTEX
  8
0
 10
61.2342
 20
228.611
 30
0.0
 40
0
 41
0
  0
VERTEX
  8
0
 10
65.2346
 20
229.158
 30
0.0
 40
0
 41
0
  0
VERTEX
  8
0
 10
69.2261
 20
229.769
 30
0.0
 40
0
 41
0
  0
VERTEX
  8
0
 10
73.2078
 20
230.444
 30
0.0
 40
0
 41
0
  0
VERTEX
  8
0
 10
77.179
 20
231.183
 30
0.0
 40
0
 41
0
  0
VERTEX
  8
0
 10
81.1389
 20
231.986
 30
0.0
 40
0
 41
0
  0
VERTEX
  8
0
 10
85.0865
 20
232.853
 30
0.0
 40
0
 41
0
  0
VERTEX
  8
0
 10
89.0215
 20
233.782
 30
0.0
 40
0
 41
0
  0
VERTEX
  8
0
 10
91.9644
 20
234.519
 30
0.0
 40
0
 41
0
  0
VERTEX
  8
0
 10
92.9428
 20
234.775
 30
0.0
 40
0
 41
0
  0
VERTEX
  8
0
 10
157
 20
251.544
 30
0.0
 40
0
 41
0
  0
VERTEX
  8
0
 10
157
 20
264.044
 30
0.0
 40
0
 41
0
  0
VERTEX
  8
0
 10
154
 20
264.044
 30
0.0
 40
0
 41
0
  0
VERTEX
  8
0
 10
154
 20
273.044
 30
0.0
 40
0
 41
0
  0
VERTEX
  8
0
 10
157
 20
273.044
 30
0.0
 40
0
 41
0
  0
VERTEX
  8
0
 10
157
 20
285.544
 30
0.0
 40
0
 41
0
  0
VERTEX
  8
0
 10
154
 20
285.544
 30
0.0
 40
0
 41
0
  0
SEQEND
 8
0
  0
POLYLINE
  8
0
 62
     0
 66
     1
 10
0
 20
0
 30
0.0
 70
     1
 40
0
 41
0
  0
VERTEX
  8
0
 10
133.75
 20
292.044
 30
0.0
 40
0
 41
0
  0
VERTEX
  8
0
 10
133.549
 20
292.044
 30
0.0
 40
0
 41
0
  0
VERTEX
  8
0
 10
132.944
 20
292.064
 30
0.0
 40
0
 41
0
  0
VERTEX
  8
0
 10
132.144
 20
292.124
 30
0.0
 40
0
 41
0
  0
VERTEX
  8
0
 10
131.351
 20
292.222
 30
0.0
 40
0
 41
0
  0
VERTEX
  8
0
 10
130.565
 20
292.36
 30
0.0
 40
0
 41
0
  0
VERTEX
  8
0
 10
129.789
 20
292.535
 30
0.0
 40
0
 41
0
  0
VERTEX
  8
0
 10
129.024
 20
292.747
 30
0.0
 40
0
 41
0
  0
VERTEX
  8
0
 10
128.271
 20
292.996
 30
0.0
 40
0
 41
0
  0
VERTEX
  8
0
 10
127.532
 20
293.282
 30
0.0
 40
0
 41
0
  0
VERTEX
  8
0
 10
126.807
 20
293.603
 30
0.0
 40
0
 41
0
  0
VERTEX
  8
0
 10
126.098
 20
293.958
 30
0.0
 40
0
 41
0
  0
VERTEX
  8
0
 10
125.407
 20
294.35
 30
0.0
 40
0
 41
0
  0
VERTEX
  8
0
 10
124.735
 20
294.775
 30
0.0
 40
0
 41
0
  0
VERTEX
  8
0
 10
124.082
 20
295.233
 30
0.0
 40
0
 41
0
  0
VERTEX
  8
0
 10
123.452
 20
295.725
 30
0.0
 40
0
 41
0
  0
VERTEX
  8
0
 10
122.844
 20
296.249
 30
0.0
 40
0
 41
0
  0
VERTEX
  8
0
 10
122.402
 20
296.661
 30
0.0
 40
0
 41
0
  0
VERTEX
  8
0
 10
122.26
 20
296.804
 30
0.0
 40
0
 41
0
  0
VERTEX
  8
0
 10
122.117
 20
296.947
 30
0.0
 40
0
 41
0
  0
VERTEX
  8
0
 10
121.704
 20
297.388
 30
0.0
 40
0
 41
0
  0
VERTEX
  8
0
 10
121.18
 20
297.996
 30
0.0
 40
0
 41
0
  0
VERTEX
  8
0
 10
120.689
 20
298.626
 30
0.0
 40
0
 41
0
  0
VERTEX
  8
0
 10
120.23
 20
299.279
 30
0.0
 40
0
 41
0
  0
VERTEX
  8
0
 10
119.805
 20
299.951
 30
0.0
 40
0
 41
0
  0
VERTEX
  8
0
 10
119.414
 20
300.643
 30
0.0
 40
0
 41
0
  0
VERTEX
  8
0
 10
119.058
 20
301.351
 30
0.0
 40
0
 41
0
  0
VERTEX
  8
0
 10
118.737
 20
302.076
 30
0.0
 40
0
 41
0
  0
VERTEX
  8
0
 10
118.452
 20
302.815
 30
0.0
 40
0
 41
0
  0
VERTEX
  8
0
 10
118.203
 20
303.568
 30
0.0
 40
0
 41
0
  0
VERTEX
  8
0
 10
117.99
 20
304.333
 30
0.0
 40
0
 41
0
  0
VERTEX
  8
0
 10
117.815
 20
305.11
 30
0.0
 40
0
 41
0
  0
VERTEX
  8
0
 10
117.678
 20
305.894
 30
0.0
 40
0
 41
0
  0
VERTEX
  8
0
 10
117.58
 20
306.689
 30
0.0
 40
0
 41
0
  0
VERTEX
  8
0
 10
117.52
 20
307.489
 30
0.0
 40
0
 41
0
  0
VERTEX
  8
0
 10
117.5
 20
308.093
 30
0.0
 40
0
 41
0
  0
VERTEX
  8
0
 10
117.5
 20
308.294
 30
0.0
 40
0
 41
0
  0
VERTEX
  8
0
 10
117.5
 20
308.496
 30
0.0
 40
0
 41
0
  0
VERTEX
  8
0
 10
117.52
 20
309.1
 30
0.0
 40
0
 41
0
  0
VERTEX
  8
0
 10
117.58
 20
309.901
 30
0.0
 40
0
 41
0
  0
VERTEX
  8
0
 10
117.678
 20
310.694
 30
0.0
 40
0
 41
0
  0
VERTEX
  8
0
 10
117.815
 20
311.479
 30
0.0
 40
0
 41
0
  0
VERTEX
  8
0
 10
117.99
 20
312.256
 30
0.0
 40
0
 41
0
  0
VERTEX
  8
0
 10
118.203
 20
313.021
 30
0.0
 40
0
 41
0
  0
VERTEX
  8
0
 10
118.452
 20
313.774
 30
0.0
 40
0
 41
0
  0
VERTEX
  8
0
 10
118.737
 20
314.514
 30
0.0
 40
0
 41
0
  0
VERTEX
  8
0
 10
119.058
 20
315.237
 30
0.0
 40
0
 41
0
  0
VERTEX
  8
0
 10
119.414
 20
315.947
 30
0.0
 40
0
 41
0
  0
VERTEX
  8
0
 10
119.805
 20
316.638
 30
0.0
 40
0
 41
0
  0
VERTEX
  8
0
 10
120.23
 20
317.31
 30
0.0
 40
0
 41
0
  0
VERTEX
  8
0
 10
120.689
 20
317.963
 30
0.0
 40
0
 41
0
  0
VERTEX
  8
0
 10
121.18
 20
318.593
 30
0.0
 40
0
 41
0
  0
VERTEX
  8
0
 10
121.704
 20
319.201
 30
0.0
 40
0
 41
0
  0
VERTEX
  8
0
 10
122.117
 20
319.643
 30
0.0
 40
0
 41
0
  0
VERTEX
  8
0
 10
122.26
 20
319.785
 30
0.0
 40
0
 41
0
  0
VERTEX
  8
0
 10
122.402
 20
319.928
 30
0.0
 40
0
 41
0
  0
VERTEX
  8
0
 10
122.844
 20
320.34
 30
0.0
 40
0
 41
0
  0
VERTEX
  8
0
 10
123.452
 20
320.864
 30
0.0
 40
0
 41
0
  0
VERTEX
  8
0
 10
124.082
 20
321.356
 30
0.0
 40
0
 41
0
  0
VERTEX
  8
0
 10
124.735
 20
321.814
 30
0.0
 40
0
 41
0
  0
VERTEX
  8
0
 10
125.407
 20
322.239
 30
0.0
 40
0
 41
0
  0
VERTEX
  8
0
 10
126.098
 20
322.631
 30
0.0
 40
0
 41
0
  0
VERTEX
  8
0
 10
126.807
 20
322.986
 30
0.0
 40
0
 41
0
  0
VERTEX
  8
0
 10
127.532
 20
323.308
 30
0.0
 40
0
 41
0
  0
VERTEX
  8
0
 10
128.271
 20
323.593
 30
0.0
 40
0
 41
0
  0
VERTEX
  8
0
 10
129.024
 20
323.842
 30
0.0
 40
0
 41
0
  0
VERTEX
  8
0
 10
129.789
 20
324.054
 30
0.0
 40
0
 41
0
  0
VERTEX
  8
0
 10
130.565
 20
324.229
 30
0.0
 40
0
 41
0
  0
VERTEX
  8
0
 10
131.351
 20
324.367
 30
0.0
 40
0
 41
0
  0
VERTEX
  8
0
 10
132.144
 20
324.465
 30
0.0
 40
0
 41
0
  0
VERTEX
  8
0
 10
132.944
 20
324.525
 30
0.0
 40
0
 41
0
  0
VERTEX
  8
0
 10
133.549
 20
324.544
 30
0.0
 40
0
 41
0
  0
VERTEX
  8
0
 10
133.75
 20
324.544
 30
0.0
 40
0
 41
0
  0
VERTEX
  8
0
 10
133.952
 20
324.544
 30
0.0
 40
0
 41
0
  0
VERTEX
  8
0
 10
134.556
 20
324.525
 30
0.0
 40
0
 41
0
  0
VERTEX
  8
0
 10
135.356
 20
324.465
 30
0.0
 40
0
 41
0
  0
VERTEX
  8
0
 10
136.15
 20
324.367
 30
0.0
 40
0
 41
0
  0
VERTEX
  8
0
 10
136.935
 20
324.229
 30
0.0
 40
0
 41
0
  0
VERTEX
  8
0
 10
137.711
 20
324.054
 30
0.0
 40
0
 41
0
  0
VERTEX
  8
0
 10
138.476
 20
323.842
 30
0.0
 40
0
 41
0
  0
VERTEX
  8
0
 10
139.229
 20
323.593
 30
0.0
 40
0
 41
0
  0
VERTEX
  8
0
 10
139.969
 20
323.308
 30
0.0
 40
0
 41
0
  0
VERTEX
  8
0
 10
140.693
 20
322.986
 30
0.0
 40
0
 41
0
  0
VERTEX
  8
0
 10
141.403
 20
322.631
 30
0.0
 40
0
 41
0
  0
VERTEX
  8
0
 10
142.093
 20
322.239
 30
0.0
 40
0
 41
0
  0
VERTEX
  8
0
 10
142.765
 20
321.814
 30
0.0
 40
0
 41
0
  0
VERTEX
  8
0
 10
143.418
 20
321.356
 30
0.0
 40
0
 41
0
  0
VERTEX
  8
0
 10
144.049
 20
320.864
 30
0.0
 40
0
 41
0
  0
VERTEX
  8
0
 10
144.657
 20
320.34
 30
0.0
 40
0
 41
0
  0
VERTEX
  8
0
 10
145.099
 20
319.928
 30
0.0
 40
0
 41
0
  0
VERTEX
  8
0
 10
145.24
 20
319.785
 30
0.0
 40
0
 41
0
  0
VERTEX
  8
0
 10
145.383
 20
319.643
 30
0.0
 40
0
 41
0
  0
VERTEX
  8
0
 10
145.796
 20
319.201
 30
0.0
 40
0
 41
0
  0
VERTEX
  8
0
 10
146.321
 20
318.593
 30
0.0
 40
0
 41
0
  0
VERTEX
  8
0
 10
146.811
 20
317.963
 30
0.0
 40
0
 41
0
  0
VERTEX
  8
0
 10
147.269
 20
317.31
 30
0.0
 40
0
 41
0
  0
VERTEX
  8
0
 10
147.694
 20
316.638
 30
0.0
 40
0
 41
0
  0
VERTEX
  8
0
 10
148.086
 20
315.947
 30
0.0
 40
0
 41
0
  0
VERTEX
  8
0
 10
148.442
 20
315.237
 30
0.0
 40
0
 41
0
  0
VERTEX
  8
0
 10
148.764
 20
314.514
 30
0.0
 40
0
 41
0
  0
VERTEX
  8
0
 10
149.049
 20
313.774
 30
0.0
 40
0
 41
0
  0
VERTEX
  8
0
 10
149.297
 20
313.021
 30
0.0
 40
0
 41
0
  0
VERTEX
  8
0
 10
149.51
 20
312.256
 30
0.0
 40
0
 41
0
  0
VERTEX
  8
0
 10
149.685
 20
311.479
 30
0.0
 40
0
 41
0
  0
VERTEX
  8
0
 10
149.822
 20
310.694
 30
0.0
 40
0
 41
0
  0
VERTEX
  8
0
 10
149.921
 20
309.901
 30
0.0
 40
0
 41
0
  0
VERTEX
  8
0
 10
149.981
 20
309.1
 30
0.0
 40
0
 41
0
  0
VERTEX
  8
0
 10
150
 20
308.496
 30
0.0
 40
0
 41
0
  0
VERTEX
  8
0
 10
150
 20
308.294
 30
0.0
 40
0
 41
0
  0
VERTEX
  8
0
 10
150
 20
308.093
 30
0.0
 40
0
 41
0
  0
VERTEX
  8
0
 10
149.981
 20
307.489
 30
0.0
 40
0
 41
0
  0
VERTEX
  8
0
 10
149.921
 20
306.689
 30
0.0
 40
0
 41
0
  0
VERTEX
  8
0
 10
149.822
 20
305.894
 30
0.0
 40
0
 41
0
  0
VERTEX
  8
0
 10
149.685
 20
305.11
 30
0.0
 40
0
 41
0
  0
VERTEX
  8
0
 10
149.51
 20
304.333
 30
0.0
 40
0
 41
0
  0
VERTEX
  8
0
 10
149.297
 20
303.568
 30
0.0
 40
0
 41
0
  0
VERTEX
  8
0
 10
149.049
 20
302.815
 30
0.0
 40
0
 41
0
  0
VERTEX
  8
0
 10
148.764
 20
302.076
 30
0.0
 40
0
 41
0
  0
VERTEX
  8
0
 10
148.442
 20
301.351
 30
0.0
 40
0
 41
0
  0
VERTEX
  8
0
 10
148.086
 20
300.643
 30
0.0
 40
0
 41
0
  0
VERTEX
  8
0
 10
147.694
 20
299.951
 30
0.0
 40
0
 41
0
  0
VERTEX
  8
0
 10
147.269
 20
299.279
 30
0.0
 40
0
 41
0
  0
VERTEX
  8
0
 10
146.811
 20
298.626
 30
0.0
 40
0
 41
0
  0
VERTEX
  8
0
 10
146.321
 20
297.996
 30
0.0
 40
0
 41
0
  0
VERTEX
  8
0
 10
145.796
 20
297.388
 30
0.0
 40
0
 41
0
  0
VERTEX
  8
0
 10
145.383
 20
296.947
 30
0.0
 40
0
 41
0
  0
VERTEX
  8
0
 10
145.24
 20
296.804
 30
0.0
 40
0
 41
0
  0
VERTEX
  8
0
 10
145.099
 20
296.661
 30
0.0
 40
0
 41
0
  0
VERTEX
  8
0
 10
144.657
 20
296.249
 30
0.0
 40
0
 41
0
  0
VERTEX
  8
0
 10
144.049
 20
295.725
 30
0.0
 40
0
 41
0
  0
VERTEX
  8
0
 10
143.418
 20
295.233
 30
0.0
 40
0
 41
0
  0
VERTEX
  8
0
 10
142.765
 20
294.775
 30
0.0
 40
0
 41
0
  0
VERTEX
  8
0
 10
142.093
 20
294.35
 30
0.0
 40
0
 41
0
  0
VERTEX
  8
0
 10
141.403
 20
293.958
 30
0.0
 40
0
 41
0
  0
VERTEX
  8
0
 10
140.693
 20
293.603
 30
0.0
 40
0
 41
0
  0
VERTEX
  8
0
 10
139.969
 20
293.282
 30
0.0
 40
0
 41
0
  0
VERTEX
  8
0
 10
139.229
 20
292.996
 30
0.0
 40
0
 41
0
  0
VERTEX
  8
0
 10
138.476
 20
292.747
 30
0.0
 40
0
 41
0
  0
VERTEX
  8
0
 10
137.711
 20
292.535
 30
0.0
 40
0
 41
0
  0
VERTEX
  8
0
 10
136.935
 20
292.36
 30
0.0
 40
0
 41
0
  0
VERTEX
  8
0
 10
136.15
 20
292.222
 30
0.0
 40
0
 41
0
  0
VERTEX
  8
0
 10
135.356
 20
292.124
 30
0.0
 40
0
 41
0
  0
VERTEX
  8
0
 10
134.556
 20
292.064
 30
0.0
 40
0
 41
0
  0
VERTEX
  8
0
 10
133.952
 20
292.044
 30
0.0
 40
0
 41
0
  0
VERTEX
  8
0
 10
133.75
 20
292.044
 30
0.0
 40
0
 41
0
  0
SEQEND
 8
0
  0
POLYLINE
  8
0
 62
     0
 66
     1
 10
0
 20
0
 30
0.0
 70
     1
 40
0
 41
0
  0
VERTEX
  8
0
 10
91.0001
 20
243.044
 30
0.0
 40
0
 41
0
  0
VERTEX
  8
0
 10
90.7213
 20
243.044
 30
0.0
 40
0
 41
0
  0
VERTEX
  8
0
 10
89.8844
 20
243.072
 30
0.0
 40
0
 41
0
  0
VERTEX
  8
0
 10
88.7763
 20
243.154
 30
0.0
 40
0
 41
0
  0
VERTEX
  8
0
 10
87.6776
 20
243.292
 30
0.0
 40
0
 41
0
  0
VERTEX
  8
0
 10
86.5901
 20
243.481
 30
0.0
 40
0
 41
0
  0
VERTEX
  8
0
 10
85.5157
 20
243.724
 30
0.0
 40
0
 41
0
  0
VERTEX
  8
0
 10
84.4564
 20
244.017
 30
0.0
 40
0
 41
0
  0
VERTEX
  8
0
 10
83.4138
 20
244.362
 30
0.0
 40
0
 41
0
  0
VERTEX
  8
0
 10
82.3897
 20
244.757
 30
0.0
 40
0
 41
0
  0
VERTEX
  8
0
 10
81.3863
 20
245.201
 30
0.0
 40
0
 41
0
  0
VERTEX
  8
0
 10
80.405
 20
245.696
 30
0.0
 40
0
 41
0
  0
VERTEX
  8
0
 10
79.4481
 20
246.236
 30
0.0
 40
0
 41
0
  0
VERTEX
  8
0
 10
78.5171
 20
246.825
 30
0.0
 40
0
 41
0
  0
VERTEX
  8
0
 10
77.614
 20
247.46
 30
0.0
 40
0
 41
0
  0
VERTEX
  8
0
 10
76.7406
 20
248.14
 30
0.0
 40
0
 41
0
  0
VERTEX
  8
0
 10
75.8986
 20
248.865
 30
0.0
 40
0
 41
0
  0
VERTEX
  8
0
 10
75.2875
 20
249.438
 30
0.0
 40
0
 41
0
  0
VERTEX
  8
0
 10
75.0903
 20
249.635
 30
0.0
 40
0
 41
0
  0
VERTEX
  8
0
 10
74.8929
 20
249.832
 30
0.0
 40
0
 41
0
  0
VERTEX
  8
0
 10
74.3208
 20
250.443
 30
0.0
 40
0
 41
0
  0
VERTEX
  8
0
 10
73.5956
 20
251.285
 30
0.0
 40
0
 41
0
  0
VERTEX
  8
0
 10
72.9151
 20
252.158
 30
0.0
 40
0
 41
0
  0
VERTEX
  8
0
 10
72.2804
 20
253.061
 30
0.0
 40
0
 41
0
  0
VERTEX
  8
0
 10
71.6919
 20
253.993
 30
0.0
 40
0
 41
0
  0
VERTEX
  8
0
 10
71.1507
 20
254.95
 30
0.0
 40
0
 41
0
  0
VERTEX
  8
0
 10
70.6575
 20
255.931
 30
0.0
 40
0
 41
0
  0
VERTEX
  8
0
 10
70.2128
 20
256.935
 30
0.0
 40
0
 41
0
  0
VERTEX
  8
0
 10
69.8176
 20
257.958
 30
0.0
 40
0
 41
0
  0
VERTEX
  8
0
 10
69.4726
 20
259.001
 30
0.0
 40
0
 41
0
  0
VERTEX
  8
0
 10
69.1786
 20
260.06
 30
0.0
 40
0
 41
0
  0
VERTEX
  8
0
 10
68.9364
 20
261.135
 30
0.0
 40
0
 41
0
  0
VERTEX
  8
0
 10
68.7467
 20
262.222
 30
0.0
 40
0
 41
0
  0
VERTEX
  8
0
 10
68.6101
 20
263.321
 30
0.0
 40
0
 41
0
  0
VERTEX
  8
0
 10
68.5278
 20
264.429
 30
0.0
 40
0
 41
0
  0
VERTEX
  8
0
 10
68.5001
 20
265.265
 30
0.0
 40
0
 41
0
  0
VERTEX
  8
0
 10
68.5001
 20
265.544
 30
0.0
 40
0
 41
0
  0
VERTEX
  8
0
 10
68.5001
 20
265.824
 30
0.0
 40
0
 41
0
  0
VERTEX
  8
0
 10
68.5278
 20
266.66
 30
0.0
 40
0
 41
0
  0
VERTEX
  8
0
 10
68.6101
 20
267.768
 30
0.0
 40
0
 41
0
  0
VERTEX
  8
0
 10
68.7467
 20
268.867
 30
0.0
 40
0
 41
0
  0
VERTEX
  8
0
 10
68.9364
 20
269.954
 30
0.0
 40
0
 41
0
  0
VERTEX
  8
0
 10
69.1786
 20
271.029
 30
0.0
 40
0
 41
0
  0
VERTEX
  8
0
 10
69.4726
 20
272.089
 30
0.0
 40
0
 41
0
  0
VERTEX
  8
0
 10
69.8176
 20
273.131
 30
0.0
 40
0
 41
0
  0
VERTEX
  8
0
 10
70.2128
 20
274.156
 30
0.0
 40
0
 41
0
  0
VERTEX
  8
0
 10
70.6575
 20
275.158
 30
0.0
 40
0
 41
0
  0
VERTEX
  8
0
 10
71.1507
 20
276.14
 30
0.0
 40
0
 41
0
  0
VERTEX
  8
0
 10
71.6919
 20
277.097
 30
0.0
 40
0
 41
0
  0
VERTEX
  8
0
 10
72.2804
 20
278.028
 30
0.0
 40
0
 41
0
  0
VERTEX
  8
0
 10
72.9151
 20
278.931
 30
0.0
 40
0
 41
0
  0
VERTEX
  8
0
 10
73.5956
 20
279.804
 30
0.0
 40
0
 41
0
  0
VERTEX
  8
0
 10
74.3208
 20
280.646
 30
0.0
 40
0
 41
0
  0
VERTEX
  8
0
 10
74.8929
 20
281.257
 30
0.0
 40
0
 41
0
  0
VERTEX
  8
0
 10
75.0903
 20
281.454
 30
0.0
 40
0
 41
0
  0
VERTEX
  8
0
 10
75.2875
 20
281.651
 30
0.0
 40
0
 41
0
  0
VERTEX
  8
0
 10
75.8986
 20
282.224
 30
0.0
 40
0
 41
0
  0
VERTEX
  8
0
 10
76.7406
 20
282.949
 30
0.0
 40
0
 41
0
  0
VERTEX
  8
0
 10
77.614
 20
283.629
 30
0.0
 40
0
 41
0
  0
VERTEX
  8
0
 10
78.5171
 20
284.264
 30
0.0
 40
0
 41
0
  0
VERTEX
  8
0
 10
79.4481
 20
284.853
 30
0.0
 40
0
 41
0
  0
VERTEX
  8
0
 10
80.405
 20
285.394
 30
0.0
 40
0
 41
0
  0
VERTEX
  8
0
 10
81.3863
 20
285.888
 30
0.0
 40
0
 41
0
  0
VERTEX
  8
0
 10
82.3897
 20
286.332
 30
0.0
 40
0
 41
0
  0
VERTEX
  8
0
 10
83.4138
 20
286.726
 30
0.0
 40
0
 41
0
  0
VERTEX
  8
0
 10
84.4564
 20
287.072
 30
0.0
 40
0
 41
0
  0
VERTEX
  8
0
 10
85.5157
 20
287.367
 30
0.0
 40
0
 41
0
  0
VERTEX
  8
0
 10
86.5901
 20
287.608
 30
0.0
 40
0
 41
0
  0
VERTEX
  8
0
 10
87.6776
 20
287.799
 30
0.0
 40
0
 41
0
  0
VERTEX
  8
0
 10
88.7763
 20
287.935
 30
0.0
 40
0
 41
0
  0
VERTEX
  8
0
 10
89.8844
 20
288.017
 30
0.0
 40
0
 41
0
  0
VERTEX
  8
0
 10
90.7213
 20
288.044
 30
0.0
 40
0
 41
0
  0
VERTEX
  8
0
 10
91.0001
 20
288.044
 30
0.0
 40
0
 41
0
  0
VERTEX
  8
0
 10
91.279
 20
288.044
 30
0.0
 40
0
 41
0
  0
VERTEX
  8
0
 10
92.1158
 20
288.017
 30
0.0
 40
0
 41
0
  0
VERTEX
  8
0
 10
93.224
 20
287.935
 30
0.0
 40
0
 41
0
  0
VERTEX
  8
0
 10
94.3226
 20
287.799
 30
0.0
 40
0
 41
0
  0
VERTEX
  8
0
 10
95.4101
 20
287.608
 30
0.0
 40
0
 41
0
  0
VERTEX
  8
0
 10
96.4844
 20
287.367
 30
0.0
 40
0
 41
0
  0
VERTEX
  8
0
 10
97.5439
 20
287.072
 30
0.0
 40
0
 41
0
  0
VERTEX
  8
0
 10
98.5865
 20
286.726
 30
0.0
 40
0
 41
0
  0
VERTEX
  8
0
 10
99.6106
 20
286.332
 30
0.0
 40
0
 41
0
  0
VERTEX
  8
0
 10
100.614
 20
285.888
 30
0.0
 40
0
 41
0
  0
VERTEX
  8
0
 10
101.595
 20
285.394
 30
0.0
 40
0
 41
0
  0
VERTEX
  8
0
 10
102.552
 20
284.853
 30
0.0
 40
0
 41
0
  0
VERTEX
  8
0
 10
103.483
 20
284.264
 30
0.0
 40
0
 41
0
  0
VERTEX
  8
0
 10
104.386
 20
283.629
 30
0.0
 40
0
 41
0
  0
VERTEX
  8
0
 10
105.26
 20
282.949
 30
0.0
 40
0
 41
0
  0
VERTEX
  8
0
 10
106.102
 20
282.224
 30
0.0
 40
0
 41
0
  0
VERTEX
  8
0
 10
106.713
 20
281.651
 30
0.0
 40
0
 41
0
  0
VERTEX
  8
0
 10
106.91
 20
281.454
 30
0.0
 40
0
 41
0
  0
VERTEX
  8
0
 10
107.107
 20
281.257
 30
0.0
 40
0
 41
0
  0
VERTEX
  8
0
 10
107.679
 20
280.646
 30
0.0
 40
0
 41
0
  0
VERTEX
  8
0
 10
108.405
 20
279.804
 30
0.0
 40
0
 41
0
  0
VERTEX
  8
0
 10
109.085
 20
278.931
 30
0.0
 40
0
 41
0
  0
VERTEX
  8
0
 10
109.72
 20
278.028
 30
0.0
 40
0
 41
0
  0
VERTEX
  8
0
 10
110.308
 20
277.097
 30
0.0
 40
0
 41
0
  0
VERTEX
  8
0
 10
110.849
 20
276.14
 30
0.0
 40
0
 41
0
  0
VERTEX
  8
0
 10
111.343
 20
275.158
 30
0.0
 40
0
 41
0
  0
VERTEX
  8
0
 10
111.788
 20
274.156
 30
0.0
 40
0
 41
0
  0
VERTEX
  8
0
 10
112.183
 20
273.131
 30
0.0
 40
0
 41
0
  0
VERTEX
  8
0
 10
112.528
 20
272.089
 30
0.0
 40
0
 41
0
  0
VERTEX
  8
0
 10
112.822
 20
271.029
 30
0.0
 40
0
 41
0
  0
VERTEX
  8
0
 10
113.064
 20
269.954
 30
0.0
 40
0
 41
0
  0
VERTEX
  8
0
 10
113.254
 20
268.867
 30
0.0
 40
0
 41
0
  0
VERTEX
  8
0
 10
113.39
 20
267.768
 30
0.0
 40
0
 41
0
  0
VERTEX
  8
0
 10
113.473
 20
266.66
 30
0.0
 40
0
 41
0
  0
VERTEX
  8
0
 10
113.5
 20
265.824
 30
0.0
 40
0
 41
0
  0
VERTEX
  8
0
 10
113.5
 20
265.544
 30
0.0
 40
0
 41
0
  0
VERTEX
  8
0
 10
113.5
 20
265.265
 30
0.0
 40
0
 41
0
  0
VERTEX
  8
0
 10
113.473
 20
264.429
 30
0.0
 40
0
 41
0
  0
VERTEX
  8
0
 10
113.39
 20
263.321
 30
0.0
 40
0
 41
0
  0
VERTEX
  8
0
 10
113.254
 20
262.222
 30
0.0
 40
0
 41
0
  0
VERTEX
  8
0
 10
113.064
 20
261.135
 30
0.0
 40
0
 41
0
  0
VERTEX
  8
0
 10
112.822
 20
260.06
 30
0.0
 40
0
 41
0
  0
VERTEX
  8
0
 10
112.528
 20
259.001
 30
0.0
 40
0
 41
0
  0
VERTEX
  8
0
 10
112.183
 20
257.958
 30
0.0
 40
0
 41
0
  0
VERTEX
  8
0
 10
111.788
 20
256.935
 30
0.0
 40
0
 41
0
  0
VERTEX
  8
0
 10
111.343
 20
255.931
 30
0.0
 40
0
 41
0
  0
VERTEX
  8
0
 10
110.849
 20
254.95
 30
0.0
 40
0
 41
0
  0
VERTEX
  8
0
 10
110.308
 20
253.993
 30
0.0
 40
0
 41
0
  0
VERTEX
  8
0
 10
109.72
 20
253.061
 30
0.0
 40
0
 41
0
  0
VERTEX
  8
0
 10
109.085
 20
252.158
 30
0.0
 40
0
 41
0
  0
VERTEX
  8
0
 10
108.405
 20
251.285
 30
0.0
 40
0
 41
0
  0
VERTEX
  8
0
 10
107.679
 20
250.443
 30
0.0
 40
0
 41
0
  0
VERTEX
  8
0
 10
107.107
 20
249.832
 30
0.0
 40
0
 41
0
  0
VERTEX
  8
0
 10
106.91
 20
249.635
 30
0.0
 40
0
 41
0
  0
VERTEX
  8
0
 10
106.713
 20
249.438
 30
0.0
 40
0
 41
0
  0
VERTEX
  8
0
 10
106.102
 20
248.865
 30
0.0
 40
0
 41
0
  0
VERTEX
  8
0
 10
105.26
 20
248.14
 30
0.0
 40
0
 41
0
  0
VERTEX
  8
0
 10
104.386
 20
247.46
 30
0.0
 40
0
 41
0
  0
VERTEX
  8
0
 10
103.483
 20
246.825
 30
0.0
 40
0
 41
0
  0
VERTEX
  8
0
 10
102.552
 20
246.236
 30
0.0
 40
0
 41
0
  0
VERTEX
  8
0
 10
101.595
 20
245.696
 30
0.0
 40
0
 41
0
  0
VERTEX
  8
0
 10
100.614
 20
245.201
 30
0.0
 40
0
 41
0
  0
VERTEX
  8
0
 10
99.6106
 20
244.757
 30
0.0
 40
0
 41
0
  0
VERTEX
  8
0
 10
98.5865
 20
244.362
 30
0.0
 40
0
 41
0
  0
VERTEX
  8
0
 10
97.5439
 20
244.017
 30
0.0
 40
0
 41
0
  0
VERTEX
  8
0
 10
96.4844
 20
243.724
 30
0.0
 40
0
 41
0
  0
VERTEX
  8
0
 10
95.4101
 20
243.481
 30
0.0
 40
0
 41
0
  0
VERTEX
  8
0
 10
94.3226
 20
243.292
 30
0.0
 40
0
 41
0
  0
VERTEX
  8
0
 10
93.224
 20
243.154
 30
0.0
 40
0
 41
0
  0
VERTEX
  8
0
 10
92.1158
 20
243.072
 30
0.0
 40
0
 41
0
  0
VERTEX
  8
0
 10
91.279
 20
243.044
 30
0.0
 40
0
 41
0
  0
VERTEX
  8
0
 10
91.0001
 20
243.044
 30
0.0
 40
0
 41
0
  0
SEQEND
 8
0
  0
POLYLINE
  8
0
 62
     0
 66
     1
 10
0
 20
0
 30
0.0
 70
     1
 40
0
 41
0
  0
VERTEX
  8
0
 10
35.75
 20
230.544
 30
0.0
 40
0
 41
0
  0
VERTEX
  8
0
 10
35.5715
 20
230.544
 30
0.0
 40
0
 41
0
  0
VERTEX
  8
0
 10
35.0361
 20
230.553
 30
0.0
 40
0
 41
0
  0
VERTEX
  8
0
 10
34.3244
 20
230.579
 30
0.0
 40
0
 41
0
  0
VERTEX
  8
0
 10
33.6151
 20
230.624
 30
0.0
 40
0
 41
0
  0
VERTEX
  8
0
 10
32.9085
 20
230.685
 30
0.0
 40
0
 41
0
  0
VERTEX
  8
0
 10
32.2049
 20
230.764
 30
0.0
 40
0
 41
0
  0
VERTEX
  8
0
 10
31.5044
 20
230.86
 30
0.0
 40
0
 41
0
  0
VERTEX
  8
0
 10
30.8078
 20
230.972
 30
0.0
 40
0
 41
0
  0
VERTEX
  8
0
 10
30.115
 20
231.101
 30
0.0
 40
0
 41
0
  0
VERTEX
  8
0
 10
29.4264
 20
231.249
 30
0.0
 40
0
 41
0
  0
VERTEX
  8
0
 10
28.7422
 20
231.411
 30
0.0
 40
0
 41
0
  0
VERTEX
  8
0
 10
28.0628
 20
231.592
 30
0.0
 40
0
 41
0
  0
VERTEX
  8
0
 10
27.3885
 20
231.787
 30
0.0
 40
0
 41
0
  0
VERTEX
  8
0
 10
26.7196
 20
232
 30
0.0
 40
0
 41
0
  0
VERTEX
  8
0
 10
26.0563
 20
232.228
 30
0.0
 40
0
 41
0
  0
VERTEX
  8
0
 10
25.3989
 20
232.472
 30
0.0
 40
0
 41
0
  0
VERTEX
  8
0
 10
24.7479
 20
232.733
 30
0.0
 40
0
 41
0
  0
VERTEX
  8
0
 10
24.1033
 20
233.01
 30
0.0
 40
0
 41
0
  0
VERTEX
  8
0
 10
23.4656
 20
233.301
 30
0.0
 40
0
 41
0
  0
VERTEX
  8
0
 10
22.8351
 20
233.608
 30
0.0
 40
0
 41
0
  0
VERTEX
  8
0
 10
22.2119
 20
233.932
 30
0.0
 40
0
 41
0
  0
VERTEX
  8
0
 10
21.5965
 20
234.269
 30
0.0
 40
0
 41
0
  0
VERTEX
  8
0
 10
20.989
 20
234.624
 30
0.0
 40
0
 41
0
  0
VERTEX
  8
0
 10
20.39
 20
234.992
 30
0.0
 40
0
 41
0
  0
VERTEX
  8
0
 10
19.7994
 20
235.375
 30
0.0
 40
0
 41
0
  0
VERTEX
  8
0
 10
19.2179
 20
235.774
 30
0.0
 40
0
 41
0
  0
VERTEX
  8
0
 10
18.6456
 20
236.186
 30
0.0
 40
0
 41
0
  0
VERTEX
  8
0
 10
18.0826
 20
236.614
 30
0.0
 40
0
 41
0
  0
VERTEX
  8
0
 10
17.5294
 20
237.056
 30
0.0
 40
0
 41
0
  0
VERTEX
  8
0
 10
16.9864
 20
237.511
 30
0.0
 40
0
 41
0
  0
VERTEX
  8
0
 10
16.4538
 20
237.982
 30
0.0
 40
0
 41
0
  0
VERTEX
  8
0
 10
15.9317
 20
238.467
 30
0.0
 40
0
 41
0
  0
VERTEX
  8
0
 10
15.5468
 20
238.839
 30
0.0
 40
0
 41
0
  0
VERTEX
  8
0
 10
15.4207
 20
238.965
 30
0.0
 40
0
 41
0
  0
VERTEX
  8
0
 10
15.2944
 20
239.092
 30
0.0
 40
0
 41
0
  0
VERTEX
  8
0
 10
14.9221
 20
239.476
 30
0.0
 40
0
 41
0
  0
VERTEX
  8
0
 10
14.4375
 20
239.999
 30
0.0
 40
0
 41
0
  0
VERTEX
  8
0
 10
13.9671
 20
240.531
 30
0.0
 40
0
 41
0
  0
VERTEX
  8
0
 10
13.5108
 20
241.074
 30
0.0
 40
0
 41
0
  0
VERTEX
  8
0
 10
13.0689
 20
241.628
 30
0.0
 40
0
 41
0
  0
VERTEX
  8
0
 10
12.6414
 20
242.19
 30
0.0
 40
0
 41
0
  0
VERTEX
  8
0
 10
12.2285
 20
242.763
 30
0.0
 40
0
 41
0
  0
VERTEX
  8
0
 10
11.8303
 20
243.344
 30
0.0
 40
0
 41
0
  0
VERTEX
  8
0
 10
11.4469
 20
243.935
 30
0.0
 40
0
 41
0
  0
VERTEX
  8
0
 10
11.0785
 20
244.533
 30
0.0
 40
0
 41
0
  0
VERTEX
  8
0
 10
10.7251
 20
245.142
 30
0.0
 40
0
 41
0
  0
VERTEX
  8
0
 10
10.3869
 20
245.757
 30
0.0
 40
0
 41
0
  0
VERTEX
  8
0
 10
10.064
 20
246.379
 30
0.0
 40
0
 41
0
  0
VERTEX
  8
0
 10
9.75657
 20
247.01
 30
0.0
 40
0
 41
0
  0
VERTEX
  8
0
 10
9.46468
 20
247.647
 30
0.0
 40
0
 41
0
  0
VERTEX
  8
0
 10
9.18842
 20
248.293
 30
0.0
 40
0
 41
0
  0
VERTEX
  8
0
 10
8.928
 20
248.943
 30
0.0
 40
0
 41
0
  0
VERTEX
  8
0
 10
8.68349
 20
249.601
 30
0.0
 40
0
 41
0
  0
VERTEX
  8
0
 10
8.45503
 20
250.264
 30
0.0
 40
0
 41
0
  0
VERTEX
  8
0
 10
8.24268
 20
250.933
 30
0.0
 40
0
 41
0
  0
VERTEX
  8
0
 10
8.04665
 20
251.607
 30
0.0
 40
0
 41
0
  0
VERTEX
  8
0
 10
7.86703
 20
252.286
 30
0.0
 40
0
 41
0
  0
VERTEX
  8
0
 10
7.70394
 20
252.971
 30
0.0
 40
0
 41
0
  0
VERTEX
  8
0
 10
7.55751
 20
253.66
 30
0.0
 40
0
 41
0
  0
VERTEX
  8
0
 10
7.42785
 20
254.353
 30
0.0
 40
0
 41
0
  0
VERTEX
  8
0
 10
7.31506
 20
255.049
 30
0.0
 40
0
 41
0
  0
VERTEX
  8
0
 10
7.21929
 20
255.749
 30
0.0
 40
0
 41
0
  0
VERTEX
  8
0
 10
7.14068
 20
256.453
 30
0.0
 40
0
 41
0
  0
VERTEX
  8
0
 10
7.07926
 20
257.16
 30
0.0
 40
0
 41
0
  0
VERTEX
  8
0
 10
7.03532
 20
257.869
 30
0.0
 40
0
 41
0
  0
VERTEX
  8
0
 10
7.00885
 20
258.581
 30
0.0
 40
0
 41
0
  0
VERTEX
  8
0
 10
7
 20
259.117
 30
0.0
 40
0
 41
0
  0
VERTEX
  8
0
 10
7
 20
259.294
 30
0.0
 40
0
 41
0
  0
VERTEX
  8
0
 10
7
 20
259.474
 30
0.0
 40
0
 41
0
  0
VERTEX
  8
0
 10
7.00885
 20
260.008
 30
0.0
 40
0
 41
0
  0
VERTEX
  8
0
 10
7.03532
 20
260.721
 30
0.0
 40
0
 41
0
  0
VERTEX
  8
0
 10
7.07926
 20
261.429
 30
0.0
 40
0
 41
0
  0
VERTEX
  8
0
 10
7.14068
 20
262.136
 30
0.0
 40
0
 41
0
  0
VERTEX
  8
0
 10
7.21929
 20
262.84
 30
0.0
 40
0
 41
0
  0
VERTEX
  8
0
 10
7.31506
 20
263.54
 30
0.0
 40
0
 41
0
  0
VERTEX
  8
0
 10
7.42785
 20
264.236
 30
0.0
 40
0
 41
0
  0
VERTEX
  8
0
 10
7.55751
 20
264.929
 30
0.0
 40
0
 41
0
  0
VERTEX
  8
0
 10
7.70394
 20
265.618
 30
0.0
 40
0
 41
0
  0
VERTEX
  8
0
 10
7.86703
 20
266.303
 30
0.0
 40
0
 41
0
  0
VERTEX
  8
0
 10
8.04665
 20
266.982
 30
0.0
 40
0
 41
0
  0
VERTEX
  8
0
 10
8.24268
 20
267.656
 30
0.0
 40
0
 41
0
  0
VERTEX
  8
0
 10
8.45503
 20
268.325
 30
0.0
 40
0
 41
0
  0
VERTEX
  8
0
 10
8.68349
 20
268.989
 30
0.0
 40
0
 41
0
  0
VERTEX
  8
0
 10
8.928
 20
269.646
 30
0.0
 40
0
 41
0
  0
VERTEX
  8
0
 10
9.18842
 20
270.297
 30
0.0
 40
0
 41
0
  0
VERTEX
  8
0
 10
9.46468
 20
270.942
 30
0.0
 40
0
 41
0
  0
VERTEX
  8
0
 10
9.75657
 20
271.579
 30
0.0
 40
0
 41
0
  0
VERTEX
  8
0
 10
10.064
 20
272.21
 30
0.0
 40
0
 41
0
  0
VERTEX
  8
0
 10
10.3869
 20
272.832
 30
0.0
 40
0
 41
0
  0
VERTEX
  8
0
 10
10.7251
 20
273.449
 30
0.0
 40
0
 41
0
  0
VERTEX
  8
0
 10
11.0785
 20
274.056
 30
0.0
 40
0
 41
0
  0
VERTEX
  8
0
 10
11.4469
 20
274.654
 30
0.0
 40
0
 41
0
  0
VERTEX
  8
0
 10
11.8303
 20
275.244
 30
0.0
 40
0
 41
0
  0
VERTEX
  8
0
 10
12.2285
 20
275.826
 30
0.0
 40
0
 41
0
  0
VERTEX
  8
0
 10
12.6414
 20
276.399
 30
0.0
 40
0
 41
0
  0
VERTEX
  8
0
 10
13.0689
 20
276.963
 30
0.0
 40
0
 41
0
  0
VERTEX
  8
0
 10
13.5108
 20
277.515
 30
0.0
 40
0
 41
0
  0
VERTEX
  8
0
 10
13.9671
 20
278.058
 30
0.0
 40
0
 41
0
  0
VERTEX
  8
0
 10
14.4375
 20
278.59
 30
0.0
 40
0
 41
0
  0
VERTEX
  8
0
 10
14.9221
 20
279.112
 30
0.0
 40
0
 41
0
  0
VERTEX
  8
0
 10
15.2944
 20
279.497
 30
0.0
 40
0
 41
0
  0
VERTEX
  8
0
 10
15.4207
 20
279.624
 30
0.0
 40
0
 41
0
  0
VERTEX
  8
0
 10
15.5469
 20
279.75
 30
0.0
 40
0
 41
0
  0
VERTEX
  8
0
 10
15.9317
 20
280.122
 30
0.0
 40
0
 41
0
  0
VERTEX
  8
0
 10
16.4538
 20
280.607
 30
0.0
 40
0
 41
0
  0
VERTEX
  8
0
 10
16.9864
 20
281.078
 30
0.0
 40
0
 41
0
  0
VERTEX
  8
0
 10
17.5294
 20
281.533
 30
0.0
 40
0
 41
0
  0
VERTEX
  8
0
 10
18.0826
 20
281.975
 30
0.0
 40
0
 41
0
  0
VERTEX
  8
0
 10
18.6456
 20
282.403
 30
0.0
 40
0
 41
0
  0
VERTEX
  8
0
 10
19.2179
 20
282.817
 30
0.0
 40
0
 41
0
  0
VERTEX
  8
0
 10
19.7994
 20
283.214
 30
0.0
 40
0
 41
0
  0
VERTEX
  8
0
 10
20.39
 20
283.597
 30
0.0
 40
0
 41
0
  0
VERTEX
  8
0
 10
20.989
 20
283.967
 30
0.0
 40
0
 41
0
  0
VERTEX
  8
0
 10
21.5965
 20
284.319
 30
0.0
 40
0
 41
0
  0
VERTEX
  8
0
 10
22.2119
 20
284.657
 30
0.0
 40
0
 41
0
  0
VERTEX
  8
0
 10
22.8351
 20
284.981
 30
0.0
 40
0
 41
0
  0
VERTEX
  8
0
 10
23.4656
 20
285.287
 30
0.0
 40
0
 41
0
  0
VERTEX
  8
0
 10
24.1033
 20
285.581
 30
0.0
 40
0
 41
0
  0
VERTEX
  8
0
 10
24.7479
 20
285.856
 30
0.0
 40
0
 41
0
  0
VERTEX
  8
0
 10
25.3989
 20
286.117
 30
0.0
 40
0
 41
0
  0
VERTEX
  8
0
 10
26.0563
 20
286.361
 30
0.0
 40
0
 41
0
  0
VERTEX
  8
0
 10
26.7196
 20
286.589
 30
0.0
 40
0
 41
0
  0
VERTEX
  8
0
 10
27.3885
 20
286.801
 30
0.0
 40
0
 41
0
  0
VERTEX
  8
0
 10
28.0628
 20
286.997
 30
0.0
 40
0
 41
0
  0
VERTEX
  8
0
 10
28.7422
 20
287.178
 30
0.0
 40
0
 41
0
  0
VERTEX
  8
0
 10
29.4264
 20
287.34
 30
0.0
 40
0
 41
0
  0
VERTEX
  8
0
 10
30.115
 20
287.487
 30
0.0
 40
0
 41
0
  0
VERTEX
  8
0
 10
30.8078
 20
287.617
 30
0.0
 40
0
 41
0
  0
VERTEX
  8
0
 10
31.5044
 20
287.729
 30
0.0
 40
0
 41
0
  0
VERTEX
  8
0
 10
32.2049
 20
287.825
 30
0.0
 40
0
 41
0
  0
VERTEX
  8
0
 10
32.9085
 20
287.904
 30
0.0
 40
0
 41
0
  0
VERTEX
  8
0
 10
33.6151
 20
287.965
 30
0.0
 40
0
 41
0
  0
VERTEX
  8
0
 10
34.3244
 20
288.01
 30
0.0
 40
0
 41
0
  0
VERTEX
  8
0
 10
35.0361
 20
288.036
 30
0.0
 40
0
 41
0
  0
VERTEX
  8
0
 10
35.5715
 20
288.044
 30
0.0
 40
0
 41
0
  0
VERTEX
  8
0
 10
35.75
 20
288.044
 30
0.0
 40
0
 41
0
  0
VERTEX
  8
0
 10
35.9285
 20
288.044
 30
0.0
 40
0
 41
0
  0
VERTEX
  8
0
 10
36.4639
 20
288.036
 30
0.0
 40
0
 41
0
  0
VERTEX
  8
0
 10
37.1757
 20
288.01
 30
0.0
 40
0
 41
0
  0
VERTEX
  8
0
 10
37.885
 20
287.965
 30
0.0
 40
0
 41
0
  0
VERTEX
  8
0
 10
38.5917
 20
287.904
 30
0.0
 40
0
 41
0
  0
VERTEX
  8
0
 10
39.2953
 20
287.825
 30
0.0
 40
0
 41
0
  0
VERTEX
  8
0
 10
39.9956
 20
287.729
 30
0.0
 40
0
 41
0
  0
VERTEX
  8
0
 10
40.6922
 20
287.617
 30
0.0
 40
0
 41
0
  0
VERTEX
  8
0
 10
41.3851
 20
287.487
 30
0.0
 40
0
 41
0
  0
VERTEX
  8
0
 10
42.0738
 20
287.34
 30
0.0
 40
0
 41
0
  0
VERTEX
  8
0
 10
42.7579
 20
287.178
 30
0.0
 40
0
 41
0
  0
VERTEX
  8
0
 10
43.4372
 20
286.997
 30
0.0
 40
0
 41
0
  0
VERTEX
  8
0
 10
44.1115
 20
286.801
 30
0.0
 40
0
 41
0
  0
VERTEX
  8
0
 10
44.7806
 20
286.589
 30
0.0
 40
0
 41
0
  0
VERTEX
  8
0
 10
45.4437
 20
286.361
 30
0.0
 40
0
 41
0
  0
VERTEX
  8
0
 10
46.1011
 20
286.117
 30
0.0
 40
0
 41
0
  0
VERTEX
  8
0
 10
46.7522
 20
285.856
 30
0.0
 40
0
 41
0
  0
VERTEX
  8
0
 10
47.3968
 20
285.581
 30
0.0
 40
0
 41
0
  0
VERTEX
  8
0
 10
48.0344
 20
285.287
 30
0.0
 40
0
 41
0
  0
VERTEX
  8
0
 10
48.665
 20
284.981
 30
0.0
 40
0
 41
0
  0
VERTEX
  8
0
 10
49.2882
 20
284.657
 30
0.0
 40
0
 41
0
  0
VERTEX
  8
0
 10
49.9036
 20
284.319
 30
0.0
 40
0
 41
0
  0
VERTEX
  8
0
 10
50.511
 20
283.967
 30
0.0
 40
0
 41
0
  0
VERTEX
  8
0
 10
51.1101
 20
283.597
 30
0.0
 40
0
 41
0
  0
VERTEX
  8
0
 10
51.7006
 20
283.214
 30
0.0
 40
0
 41
0
  0
VERTEX
  8
0
 10
52.2822
 20
282.817
 30
0.0
 40
0
 41
0
  0
VERTEX
  8
0
 10
52.8546
 20
282.403
 30
0.0
 40
0
 41
0
  0
VERTEX
  8
0
 10
53.4175
 20
281.975
 30
0.0
 40
0
 41
0
  0
VERTEX
  8
0
 10
53.9706
 20
281.533
 30
0.0
 40
0
 41
0
  0
VERTEX
  8
0
 10
54.5136
 20
281.078
 30
0.0
 40
0
 41
0
  0
VERTEX
  8
0
 10
55.0464
 20
280.607
 30
0.0
 40
0
 41
0
  0
VERTEX
  8
0
 10
55.5683
 20
280.122
 30
0.0
 40
0
 41
0
  0
VERTEX
  8
0
 10
55.9532
 20
279.75
 30
0.0
 40
0
 41
0
  0
VERTEX
  8
0
 10
56.0794
 20
279.624
 30
0.0
 40
0
 41
0
  0
VERTEX
  8
0
 10
56.2056
 20
279.497
 30
0.0
 40
0
 41
0
  0
VERTEX
  8
0
 10
56.5779
 20
279.112
 30
0.0
 40
0
 41
0
  0
VERTEX
  8
0
 10
57.0625
 20
278.59
 30
0.0
 40
0
 41
0
  0
VERTEX
  8
0
 10
57.5329
 20
278.058
 30
0.0
 40
0
 41
0
  0
VERTEX
  8
0
 10
57.9892
 20
277.515
 30
0.0
 40
0
 41
0
  0
VERTEX
  8
0
 10
58.4311
 20
276.963
 30
0.0
 40
0
 41
0
  0
VERTEX
  8
0
 10
58.8586
 20
276.399
 30
0.0
 40
0
 41
0
  0
VERTEX
  8
0
 10
59.2715
 20
275.826
 30
0.0
 40
0
 41
0
  0
VERTEX
  8
0
 10
59.6697
 20
275.244
 30
0.0
 40
0
 41
0
  0
VERTEX
  8
0
 10
60.0531
 20
274.654
 30
0.0
 40
0
 41
0
  0
VERTEX
  8
0
 10
60.4215
 20
274.056
 30
0.0
 40
0
 41
0
  0
VERTEX
  8
0
 10
60.775
 20
273.449
 30
0.0
 40
0
 41
0
  0
VERTEX
  8
0
 10
61.1131
 20
272.832
 30
0.0
 40
0
 41
0
  0
VERTEX
  8
0
 10
61.436
 20
272.21
 30
0.0
 40
0
 41
0
  0
VERTEX
  8
0
 10
61.7435
 20
271.579
 30
0.0
 40
0
 41
0
  0
VERTEX
  8
0
 10
62.0354
 20
270.942
 30
0.0
 40
0
 41
0
  0
VERTEX
  8
0
 10
62.3117
 20
270.297
 30
0.0
 40
0
 41
0
  0
VERTEX
  8
0
 10
62.5721
 20
269.646
 30
0.0
 40
0
 41
0
  0
VERTEX
  8
0
 10
62.8165
 20
268.989
 30
0.0
 40
0
 41
0
  0
VERTEX
  8
0
 10
63.045
 20
268.325
 30
0.0
 40
0
 41
0
  0
VERTEX
  8
0
 10
63.2574
 20
267.656
 30
0.0
 40
0
 41
0
  0
VERTEX
  8
0
 10
63.4533
 20
266.982
 30
0.0
 40
0
 41
0
  0
VERTEX
  8
0
 10
63.6331
 20
266.303
 30
0.0
 40
0
 41
0
  0
VERTEX
  8
0
 10
63.7961
 20
265.618
 30
0.0
 40
0
 41
0
  0
VERTEX
  8
0
 10
63.9425
 20
264.929
 30
0.0
 40
0
 41
0
  0
VERTEX
  8
0
 10
64.0722
 20
264.236
 30
0.0
 40
0
 41
0
  0
VERTEX
  8
0
 10
64.185
 20
263.54
 30
0.0
 40
0
 41
0
  0
VERTEX
  8
0
 10
64.2807
 20
262.84
 30
0.0
 40
0
 41
0
  0
VERTEX
  8
0
 10
64.3594
 20
262.136
 30
0.0
 40
0
 41
0
  0
VERTEX
  8
0
 10
64.4208
 20
261.429
 30
0.0
 40
0
 41
0
  0
VERTEX
  8
0
 10
64.4647
 20
260.721
 30
0.0
 40
0
 41
0
  0
VERTEX
  8
0
 10
64.4913
 20
260.008
 30
0.0
 40
0
 41
0
  0
VERTEX
  8
0
 10
64.5001
 20
259.474
 30
0.0
 40
0
 41
0
  0
VERTEX
  8
0
 10
64.5001
 20
259.294
 30
0.0
 40
0
 41
0
  0
VERTEX
  8
0
 10
64.5001
 20
259.117
 30
0.0
 40
0
 41
0
  0
VERTEX
  8
0
 10
64.4913
 20
258.581
 30
0.0
 40
0
 41
0
  0
VERTEX
  8
0
 10
64.4647
 20
257.869
 30
0.0
 40
0
 41
0
  0
VERTEX
  8
0
 10
64.4208
 20
257.16
 30
0.0
 40
0
 41
0
  0
VERTEX
  8
0
 10
64.3594
 20
256.453
 30
0.0
 40
0
 41
0
  0
VERTEX
  8
0
 10
64.2807
 20
255.749
 30
0.0
 40
0
 41
0
  0
VERTEX
  8
0
 10
64.185
 20
255.049
 30
0.0
 40
0
 41
0
  0
VERTEX
  8
0
 10
64.0722
 20
254.353
 30
0.0
 40
0
 41
0
  0
VERTEX
  8
0
 10
63.9425
 20
253.66
 30
0.0
 40
0
 41
0
  0
VERTEX
  8
0
 10
63.7961
 20
252.971
 30
0.0
 40
0
 41
0
  0
VERTEX
  8
0
 10
63.6331
 20
252.286
 30
0.0
 40
0
 41
0
  0
VERTEX
  8
0
 10
63.4533
 20
251.607
 30
0.0
 40
0
 41
0
  0
VERTEX
  8
0
 10
63.2574
 20
250.933
 30
0.0
 40
0
 41
0
  0
VERTEX
  8
0
 10
63.045
 20
250.264
 30
0.0
 40
0
 41
0
  0
VERTEX
  8
0
 10
62.8165
 20
249.601
 30
0.0
 40
0
 41
0
  0
VERTEX
  8
0
 10
62.5721
 20
248.943
 30
0.0
 40
0
 41
0
  0
VERTEX
  8
0
 10
62.3117
 20
248.293
 30
0.0
 40
0
 41
0
  0
VERTEX
  8
0
 10
62.0354
 20
247.647
 30
0.0
 40
0
 41
0
  0
VERTEX
  8
0
 10
61.7435
 20
247.01
 30
0.0
 40
0
 41
0
  0
VERTEX
  8
0
 10
61.436
 20
246.379
 30
0.0
 40
0
 41
0
  0
VERTEX
  8
0
 10
61.1131
 20
245.757
 30
0.0
 40
0
 41
0
  0
VERTEX
  8
0
 10
60.775
 20
245.142
 30
0.0
 40
0
 41
0
  0
VERTEX
  8
0
 10
60.4215
 20
244.533
 30
0.0
 40
0
 41
0
  0
VERTEX
  8
0
 10
60.0531
 20
243.935
 30
0.0
 40
0
 41
0
  0
VERTEX
  8
0
 10
59.6697
 20
243.344
 30
0.0
 40
0
 41
0
  0
VERTEX
  8
0
 10
59.2715
 20
242.763
 30
0.0
 40
0
 41
0
  0
VERTEX
  8
0
 10
58.8586
 20
242.19
 30
0.0
 40
0
 41
0
  0
VERTEX
  8
0
 10
58.4311
 20
241.628
 30
0.0
 40
0
 41
0
  0
VERTEX
  8
0
 10
57.9892
 20
241.074
 30
0.0
 40
0
 41
0
  0
VERTEX
  8
0
 10
57.5329
 20
240.531
 30
0.0
 40
0
 41
0
  0
VERTEX
  8
0
 10
57.0625
 20
239.999
 30
0.0
 40
0
 41
0
  0
VERTEX
  8
0
 10
56.5779
 20
239.476
 30
0.0
 40
0
 41
0
  0
VERTEX
  8
0
 10
56.2056
 20
239.092
 30
0.0
 40
0
 41
0
  0
VERTEX
  8
0
 10
56.0794
 20
238.965
 30
0.0
 40
0
 41
0
  0
VERTEX
  8
0
 10
55.9532
 20
238.839
 30
0.0
 40
0
 41
0
  0
VERTEX
  8
0
 10
55.5683
 20
238.467
 30
0.0
 40
0
 41
0
  0
VERTEX
  8
0
 10
55.0464
 20
237.982
 30
0.0
 40
0
 41
0
  0
VERTEX
  8
0
 10
54.5136
 20
237.511
 30
0.0
 40
0
 41
0
  0
VERTEX
  8
0
 10
53.9706
 20
237.056
 30
0.0
 40
0
 41
0
  0
VERTEX
  8
0
 10
53.4175
 20
236.614
 30
0.0
 40
0
 41
0
  0
VERTEX
  8
0
 10
52.8546
 20
236.186
 30
0.0
 40
0
 41
0
  0
VERTEX
  8
0
 10
52.2822
 20
235.774
 30
0.0
 40
0
 41
0
  0
VERTEX
  8
0
 10
51.7006
 20
235.375
 30
0.0
 40
0
 41
0
  0
VERTEX
  8
0
 10
51.1101
 20
234.992
 30
0.0
 40
0
 41
0
  0
VERTEX
  8
0
 10
50.511
 20
234.624
 30
0.0
 40
0
 41
0
  0
VERTEX
  8
0
 10
49.9036
 20
234.269
 30
0.0
 40
0
 41
0
  0
VERTEX
  8
0
 10
49.2882
 20
233.932
 30
0.0
 40
0
 41
0
  0
VERTEX
  8
0
 10
48.665
 20
233.608
 30
0.0
 40
0
 41
0
  0
VERTEX
  8
0
 10
48.0344
 20
233.301
 30
0.0
 40
0
 41
0
  0
VERTEX
  8
0
 10
47.3968
 20
233.01
 30
0.0
 40
0
 41
0
  0
VERTEX
  8
0
 10
46.7522
 20
232.733
 30
0.0
 40
0
 41
0
  0
VERTEX
  8
0
 10
46.1011
 20
232.472
 30
0.0
 40
0
 41
0
  0
VERTEX
  8
0
 10
45.4437
 20
232.228
 30
0.0
 40
0
 41
0
  0
VERTEX
  8
0
 10
44.7806
 20
232
 30
0.0
 40
0
 41
0
  0
VERTEX
  8
0
 10
44.1115
 20
231.787
 30
0.0
 40
0
 41
0
  0
VERTEX
  8
0
 10
43.4372
 20
231.592
 30
0.0
 40
0
 41
0
  0
VERTEX
  8
0
 10
42.7579
 20
231.411
 30
0.0
 40
0
 41
0
  0
VERTEX
  8
0
 10
42.0738
 20
231.249
 30
0.0
 40
0
 41
0
  0
VERTEX
  8
0
 10
41.3851
 20
231.101
 30
0.0
 40
0
 41
0
  0
VERTEX
  8
0
 10
40.6922
 20
230.972
 30
0.0
 40
0
 41
0
  0
VERTEX
  8
0
 10
39.9956
 20
230.86
 30
0.0
 40
0
 41
0
  0
VERTEX
  8
0
 10
39.2953
 20
230.764
 30
0.0
 40
0
 41
0
  0
VERTEX
  8
0
 10
38.5917
 20
230.685
 30
0.0
 40
0
 41
0
  0
VERTEX
  8
0
 10
37.885
 20
230.624
 30
0.0
 40
0
 41
0
  0
VERTEX
  8
0
 10
37.1757
 20
230.579
 30
0.0
 40
0
 41
0
  0
VERTEX
  8
0
 10
36.4639
 20
230.553
 30
0.0
 40
0
 41
0
  0
VERTEX
  8
0
 10
35.9285
 20
230.544
 30
0.0
 40
0
 41
0
  0
VERTEX
  8
0
 10
35.75
 20
230.544
 30
0.0
 40
0
 41
0
  0
SEQEND
 8
0
  0
POLYLINE
  8
0
 62
     0
 66
     1
 10
0
 20
0
 30
0.0
 70
     1
 40
0
 41
0
  0
VERTEX
  8
0
 10
91.0001
 20
292.044
 30
0.0
 40
0
 41
0
  0
VERTEX
  8
0
 10
90.7213
 20
292.044
 30
0.0
 40
0
 41
0
  0
VERTEX
  8
0
 10
89.8844
 20
292.072
 30
0.0
 40
0
 41
0
  0
VERTEX
  8
0
 10
88.7763
 20
292.154
 30
0.0
 40
0
 41
0
  0
VERTEX
  8
0
 10
87.6776
 20
292.292
 30
0.0
 40
0
 41
0
  0
VERTEX
  8
0
 10
86.5901
 20
292.481
 30
0.0
 40
0
 41
0
  0
VERTEX
  8
0
 10
85.5157
 20
292.724
 30
0.0
 40
0
 41
0
  0
VERTEX
  8
0
 10
84.4564
 20
293.017
 30
0.0
 40
0
 41
0
  0
VERTEX
  8
0
 10
83.4138
 20
293.362
 30
0.0
 40
0
 41
0
  0
VERTEX
  8
0
 10
82.3897
 20
293.757
 30
0.0
 40
0
 41
0
  0
VERTEX
  8
0
 10
81.3863
 20
294.201
 30
0.0
 40
0
 41
0
  0
VERTEX
  8
0
 10
80.405
 20
294.696
 30
0.0
 40
0
 41
0
  0
VERTEX
  8
0
 10
79.4481
 20
295.236
 30
0.0
 40
0
 41
0
  0
VERTEX
  8
0
 10
78.5171
 20
295.825
 30
0.0
 40
0
 41
0
  0
VERTEX
  8
0
 10
77.614
 20
296.46
 30
0.0
 40
0
 41
0
  0
VERTEX
  8
0
 10
76.7406
 20
297.14
 30
0.0
 40
0
 41
0
  0
VERTEX
  8
0
 10
75.8986
 20
297.865
 30
0.0
 40
0
 41
0
  0
VERTEX
  8
0
 10
75.2875
 20
298.438
 30
0.0
 40
0
 41
0
  0
VERTEX
  8
0
 10
75.0903
 20
298.635
 30
0.0
 40
0
 41
0
  0
VERTEX
  8
0
 10
74.8929
 20
298.832
 30
0.0
 40
0
 41
0
  0
VERTEX
  8
0
 10
74.3208
 20
299.443
 30
0.0
 40
0
 41
0
  0
VERTEX
  8
0
 10
73.5956
 20
300.285
 30
0.0
 40
0
 41
0
  0
VERTEX
  8
0
 10
72.9151
 20
301.158
 30
0.0
 40
0
 41
0
  0
VERTEX
  8
0
 10
72.2804
 20
302.061
 30
0.0
 40
0
 41
0
  0
VERTEX
  8
0
 10
71.6919
 20
302.993
 30
0.0
 40
0
 41
0
  0
VERTEX
  8
0
 10
71.1507
 20
303.95
 30
0.0
 40
0
 41
0
  0
VERTEX
  8
0
 10
70.6575
 20
304.931
 30
0.0
 40
0
 41
0
  0
VERTEX
  8
0
 10
70.2128
 20
305.935
 30
0.0
 40
0
 41
0
  0
VERTEX
  8
0
 10
69.8176
 20
306.958
 30
0.0
 40
0
 41
0
  0
VERTEX
  8
0
 10
69.4726
 20
308.001
 30
0.0
 40
0
 41
0
  0
VERTEX
  8
0
 10
69.1786
 20
309.06
 30
0.0
 40
0
 41
0
  0
VERTEX
  8
0
 10
68.9364
 20
310.135
 30
0.0
 40
0
 41
0
  0
VERTEX
  8
0
 10
68.7467
 20
311.222
 30
0.0
 40
0
 41
0
  0
VERTEX
  8
0
 10
68.6101
 20
312.321
 30
0.0
 40
0
 41
0
  0
VERTEX
  8
0
 10
68.5278
 20
313.429
 30
0.0
 40
0
 41
0
  0
VERTEX
  8
0
 10
68.5001
 20
314.265
 30
0.0
 40
0
 41
0
  0
VERTEX
  8
0
 10
68.5001
 20
314.544
 30
0.0
 40
0
 41
0
  0
VERTEX
  8
0
 10
68.5001
 20
314.824
 30
0.0
 40
0
 41
0
  0
VERTEX
  8
0
 10
68.5278
 20
315.66
 30
0.0
 40
0
 41
0
  0
VERTEX
  8
0
 10
68.6101
 20
316.768
 30
0.0
 40
0
 41
0
  0
VERTEX
  8
0
 10
68.7467
 20
317.867
 30
0.0
 40
0
 41
0
  0
VERTEX
  8
0
 10
68.9364
 20
318.954
 30
0.0
 40
0
 41
0
  0
VERTEX
  8
0
 10
69.1786
 20
320.029
 30
0.0
 40
0
 41
0
  0
VERTEX
  8
0
 10
69.4726
 20
321.089
 30
0.0
 40
0
 41
0
  0
VERTEX
  8
0
 10
69.8176
 20
322.131
 30
0.0
 40
0
 41
0
  0
VERTEX
  8
0
 10
70.2128
 20
323.156
 30
0.0
 40
0
 41
0
  0
VERTEX
  8
0
 10
70.6575
 20
324.158
 30
0.0
 40
0
 41
0
  0
VERTEX
  8
0
 10
71.1507
 20
325.14
 30
0.0
 40
0
 41
0
  0
VERTEX
  8
0
 10
71.6919
 20
326.097
 30
0.0
 40
0
 41
0
  0
VERTEX
  8
0
 10
72.2804
 20
327.028
 30
0.0
 40
0
 41
0
  0
VERTEX
  8
0
 10
72.9151
 20
327.931
 30
0.0
 40
0
 41
0
  0
VERTEX
  8
0
 10
73.5956
 20
328.804
 30
0.0
 40
0
 41
0
  0
VERTEX
  8
0
 10
74.3208
 20
329.646
 30
0.0
 40
0
 41
0
  0
VERTEX
  8
0
 10
74.8929
 20
330.257
 30
0.0
 40
0
 41
0
  0
VERTEX
  8
0
 10
75.0903
 20
330.454
 30
0.0
 40
0
 41
0
  0
VERTEX
  8
0
 10
75.2875
 20
330.651
 30
0.0
 40
0
 41
0
  0
VERTEX
  8
0
 10
75.8986
 20
331.224
 30
0.0
 40
0
 41
0
  0
VERTEX
  8
0
 10
76.7406
 20
331.949
 30
0.0
 40
0
 41
0
  0
VERTEX
  8
0
 10
77.614
 20
332.629
 30
0.0
 40
0
 41
0
  0
VERTEX
  8
0
 10
78.5171
 20
333.264
 30
0.0
 40
0
 41
0
  0
VERTEX
  8
0
 10
79.4481
 20
333.853
 30
0.0
 40
0
 41
0
  0
VERTEX
  8
0
 10
80.405
 20
334.394
 30
0.0
 40
0
 41
0
  0
VERTEX
  8
0
 10
81.3863
 20
334.888
 30
0.0
 40
0
 41
0
  0
VERTEX
  8
0
 10
82.3897
 20
335.332
 30
0.0
 40
0
 41
0
  0
VERTEX
  8
0
 10
83.4138
 20
335.728
 30
0.0
 40
0
 41
0
  0
VERTEX
  8
0
 10
84.4564
 20
336.072
 30
0.0
 40
0
 41
0
  0
VERTEX
  8
0
 10
85.5157
 20
336.367
 30
0.0
 40
0
 41
0
  0
VERTEX
  8
0
 10
86.5901
 20
336.608
 30
0.0
 40
0
 41
0
  0
VERTEX
  8
0
 10
87.6776
 20
336.799
 30
0.0
 40
0
 41
0
  0
VERTEX
  8
0
 10
88.7763
 20
336.935
 30
0.0
 40
0
 41
0
  0
VERTEX
  8
0
 10
89.8844
 20
337.017
 30
0.0
 40
0
 41
0
  0
VERTEX
  8
0
 10
90.7213
 20
337.044
 30
0.0
 40
0
 41
0
  0
VERTEX
  8
0
 10
91.0001
 20
337.044
 30
0.0
 40
0
 41
0
  0
VERTEX
  8
0
 10
91.279
 20
337.044
 30
0.0
 40
0
 41
0
  0
VERTEX
  8
0
 10
92.1158
 20
337.017
 30
0.0
 40
0
 41
0
  0
VERTEX
  8
0
 10
93.224
 20
336.935
 30
0.0
 40
0
 41
0
  0
VERTEX
  8
0
 10
94.3226
 20
336.799
 30
0.0
 40
0
 41
0
  0
VERTEX
  8
0
 10
95.4101
 20
336.608
 30
0.0
 40
0
 41
0
  0
VERTEX
  8
0
 10
96.4844
 20
336.367
 30
0.0
 40
0
 41
0
  0
VERTEX
  8
0
 10
97.5439
 20
336.072
 30
0.0
 40
0
 41
0
  0
VERTEX
  8
0
 10
98.5865
 20
335.728
 30
0.0
 40
0
 41
0
  0
VERTEX
  8
0
 10
99.6106
 20
335.332
 30
0.0
 40
0
 41
0
  0
VERTEX
  8
0
 10
100.614
 20
334.888
 30
0.0
 40
0
 41
0
  0
VERTEX
  8
0
 10
101.595
 20
334.394
 30
0.0
 40
0
 41
0
  0
VERTEX
  8
0
 10
102.552
 20
333.853
 30
0.0
 40
0
 41
0
  0
VERTEX
  8
0
 10
103.483
 20
333.264
 30
0.0
 40
0
 41
0
  0
VERTEX
  8
0
 10
104.386
 20
332.629
 30
0.0
 40
0
 41
0
  0
VERTEX
  8
0
 10
105.26
 20
331.949
 30
0.0
 40
0
 41
0
  0
VERTEX
  8
0
 10
106.102
 20
331.224
 30
0.0
 40
0
 41
0
  0
VERTEX
  8
0
 10
106.713
 20
330.651
 30
0.0
 40
0
 41
0
  0
VERTEX
  8
0
 10
106.91
 20
330.454
 30
0.0
 40
0
 41
0
  0
VERTEX
  8
0
 10
107.107
 20
330.257
 30
0.0
 40
0
 41
0
  0
VERTEX
  8
0
 10
107.679
 20
329.646
 30
0.0
 40
0
 41
0
  0
VERTEX
  8
0
 10
108.405
 20
328.804
 30
0.0
 40
0
 41
0
  0
VERTEX
  8
0
 10
109.085
 20
327.931
 30
0.0
 40
0
 41
0
  0
VERTEX
  8
0
 10
109.72
 20
327.028
 30
0.0
 40
0
 41
0
  0
VERTEX
  8
0
 10
110.308
 20
326.097
 30
0.0
 40
0
 41
0
  0
VERTEX
  8
0
 10
110.849
 20
325.14
 30
0.0
 40
0
 41
0
  0
VERTEX
  8
0
 10
111.343
 20
324.158
 30
0.0
 40
0
 41
0
  0
VERTEX
  8
0
 10
111.788
 20
323.156
 30
0.0
 40
0
 41
0
  0
VERTEX
  8
0
 10
112.183
 20
322.131
 30
0.0
 40
0
 41
0
  0
VERTEX
  8
0
 10
112.528
 20
321.089
 30
0.0
 40
0
 41
0
  0
VERTEX
  8
0
 10
112.822
 20
320.029
 30
0.0
 40
0
 41
0
  0
VERTEX
  8
0
 10
113.064
 20
318.954
 30
0.0
 40
0
 41
0
  0
VERTEX
  8
0
 10
113.254
 20
317.867
 30
0.0
 40
0
 41
0
  0
VERTEX
  8
0
 10
113.39
 20
316.768
 30
0.0
 40
0
 41
0
  0
VERTEX
  8
0
 10
113.473
 20
315.66
 30
0.0
 40
0
 41
0
  0
VERTEX
  8
0
 10
113.5
 20
314.824
 30
0.0
 40
0
 41
0
  0
VERTEX
  8
0
 10
113.5
 20
314.544
 30
0.0
 40
0
 41
0
  0
VERTEX
  8
0
 10
113.5
 20
314.265
 30
0.0
 40
0
 41
0
  0
VERTEX
  8
0
 10
113.473
 20
313.429
 30
0.0
 40
0
 41
0
  0
VERTEX
  8
0
 10
113.39
 20
312.321
 30
0.0
 40
0
 41
0
  0
VERTEX
  8
0
 10
113.254
 20
311.222
 30
0.0
 40
0
 41
0
  0
VERTEX
  8
0
 10
113.064
 20
310.135
 30
0.0
 40
0
 41
0
  0
VERTEX
  8
0
 10
112.822
 20
309.06
 30
0.0
 40
0
 41
0
  0
VERTEX
  8
0
 10
112.528
 20
308.001
 30
0.0
 40
0
 41
0
  0
VERTEX
  8
0
 10
112.183
 20
306.958
 30
0.0
 40
0
 41
0
  0
VERTEX
  8
0
 10
111.788
 20
305.935
 30
0.0
 40
0
 41
0
  0
VERTEX
  8
0
 10
111.343
 20
304.931
 30
0.0
 40
0
 41
0
  0
VERTEX
  8
0
 10
110.849
 20
303.95
 30
0.0
 40
0
 41
0
  0
VERTEX
  8
0
 10
110.308
 20
302.993
 30
0.0
 40
0
 41
0
  0
VERTEX
  8
0
 10
109.72
 20
302.061
 30
0.0
 40
0
 41
0
  0
VERTEX
  8
0
 10
109.085
 20
301.158
 30
0.0
 40
0
 41
0
  0
VERTEX
  8
0
 10
108.405
 20
300.285
 30
0.0
 40
0
 41
0
  0
VERTEX
  8
0
 10
107.679
 20
299.443
 30
0.0
 40
0
 41
0
  0
VERTEX
  8
0
 10
107.107
 20
298.832
 30
0.0
 40
0
 41
0
  0
VERTEX
  8
0
 10
106.91
 20
298.635
 30
0.0
 40
0
 41
0
  0
VERTEX
  8
0
 10
106.713
 20
298.438
 30
0.0
 40
0
 41
0
  0
VERTEX
  8
0
 10
106.102
 20
297.865
 30
0.0
 40
0
 41
0
  0
VERTEX
  8
0
 10
105.26
 20
297.14
 30
0.0
 40
0
 41
0
  0
VERTEX
  8
0
 10
104.386
 20
296.46
 30
0.0
 40
0
 41
0
  0
VERTEX
  8
0
 10
103.483
 20
295.825
 30
0.0
 40
0
 41
0
  0
VERTEX
  8
0
 10
102.552
 20
295.236
 30
0.0
 40
0
 41
0
  0
VERTEX
  8
0
 10
101.595
 20
294.696
 30
0.0
 40
0
 41
0
  0
VERTEX
  8
0
 10
100.614
 20
294.201
 30
0.0
 40
0
 41
0
  0
VERTEX
  8
0
 10
99.6106
 20
293.757
 30
0.0
 40
0
 41
0
  0
VERTEX
  8
0
 10
98.5865
 20
293.362
 30
0.0
 40
0
 41
0
  0
VERTEX
  8
0
 10
97.5439
 20
293.017
 30
0.0
 40
0
 41
0
  0
VERTEX
  8
0
 10
96.4844
 20
292.724
 30
0.0
 40
0
 41
0
  0
VERTEX
  8
0
 10
95.4101
 20
292.481
 30
0.0
 40
0
 41
0
  0
VERTEX
  8
0
 10
94.3226
 20
292.292
 30
0.0
 40
0
 41
0
  0
VERTEX
  8
0
 10
93.224
 20
292.154
 30
0.0
 40
0
 41
0
  0
VERTEX
  8
0
 10
92.1158
 20
292.072
 30
0.0
 40
0
 41
0
  0
VERTEX
  8
0
 10
91.279
 20
292.044
 30
0.0
 40
0
 41
0
  0
VERTEX
  8
0
 10
91.0001
 20
292.044
 30
0.0
 40
0
 41
0
  0
SEQEND
 8
0
  0
POLYLINE
  8
0
 62
     0
 66
     1
 10
0
 20
0
 30
0.0
 70
     1
 40
0
 41
0
  0
VERTEX
  8
0
 10
35.75
 20
292.044
 30
0.0
 40
0
 41
0
  0
VERTEX
  8
0
 10
35.5715
 20
292.044
 30
0.0
 40
0
 41
0
  0
VERTEX
  8
0
 10
35.0361
 20
292.053
 30
0.0
 40
0
 41
0
  0
VERTEX
  8
0
 10
34.3244
 20
292.081
 30
0.0
 40
0
 41
0
  0
VERTEX
  8
0
 10
33.6151
 20
292.124
 30
0.0
 40
0
 41
0
  0
VERTEX
  8
0
 10
32.9085
 20
292.185
 30
0.0
 40
0
 41
0
  0
VERTEX
  8
0
 10
32.2049
 20
292.264
 30
0.0
 40
0
 41
0
  0
VERTEX
  8
0
 10
31.5044
 20
292.36
 30
0.0
 40
0
 41
0
  0
VERTEX
  8
0
 10
30.8078
 20
292.472
 30
0.0
 40
0
 41
0
  0
VERTEX
  8
0
 10
30.115
 20
292.603
 30
0.0
 40
0
 41
0
  0
VERTEX
  8
0
 10
29.4264
 20
292.749
 30
0.0
 40
0
 41
0
  0
VERTEX
  8
0
 10
28.7422
 20
292.911
 30
0.0
 40
0
 41
0
  0
VERTEX
  8
0
 10
28.0628
 20
293.092
 30
0.0
 40
0
 41
0
  0
VERTEX
  8
0
 10
27.3885
 20
293.287
 30
0.0
 40
0
 41
0
  0
VERTEX
  8
0
 10
26.7196
 20
293.5
 30
0.0
 40
0
 41
0
  0
VERTEX
  8
0
 10
26.0563
 20
293.728
 30
0.0
 40
0
 41
0
  0
VERTEX
  8
0
 10
25.3989
 20
293.972
 30
0.0
 40
0
 41
0
  0
VERTEX
  8
0
 10
24.7479
 20
294.233
 30
0.0
 40
0
 41
0
  0
VERTEX
  8
0
 10
24.1033
 20
294.51
 30
0.0
 40
0
 41
0
  0
VERTEX
  8
0
 10
23.4656
 20
294.801
 30
0.0
 40
0
 41
0
  0
VERTEX
  8
0
 10
22.8351
 20
295.108
 30
0.0
 40
0
 41
0
  0
VERTEX
  8
0
 10
22.2119
 20
295.432
 30
0.0
 40
0
 41
0
  0
VERTEX
  8
0
 10
21.5965
 20
295.769
 30
0.0
 40
0
 41
0
  0
VERTEX
  8
0
 10
20.989
 20
296.124
 30
0.0
 40
0
 41
0
  0
VERTEX
  8
0
 10
20.39
 20
296.492
 30
0.0
 40
0
 41
0
  0
VERTEX
  8
0
 10
19.7994
 20
296.875
 30
0.0
 40
0
 41
0
  0
VERTEX
  8
0
 10
19.2179
 20
297.274
 30
0.0
 40
0
 41
0
  0
VERTEX
  8
0
 10
18.6456
 20
297.686
 30
0.0
 40
0
 41
0
  0
VERTEX
  8
0
 10
18.0826
 20
298.114
 30
0.0
 40
0
 41
0
  0
VERTEX
  8
0
 10
17.5294
 20
298.556
 30
0.0
 40
0
 41
0
  0
VERTEX
  8
0
 10
16.9864
 20
299.011
 30
0.0
 40
0
 41
0
  0
VERTEX
  8
0
 10
16.4538
 20
299.482
 30
0.0
 40
0
 41
0
  0
VERTEX
  8
0
 10
15.9317
 20
299.967
 30
0.0
 40
0
 41
0
  0
VERTEX
  8
0
 10
15.5468
 20
300.339
 30
0.0
 40
0
 41
0
  0
VERTEX
  8
0
 10
15.4207
 20
300.465
 30
0.0
 40
0
 41
0
  0
VERTEX
  8
0
 10
15.2944
 20
300.592
 30
0.0
 40
0
 41
0
  0
VERTEX
  8
0
 10
14.9221
 20
300.976
 30
0.0
 40
0
 41
0
  0
VERTEX
  8
0
 10
14.4375
 20
301.499
 30
0.0
 40
0
 41
0
  0
VERTEX
  8
0
 10
13.9671
 20
302.031
 30
0.0
 40
0
 41
0
  0
VERTEX
  8
0
 10
13.5108
 20
302.574
 30
0.0
 40
0
 41
0
  0
VERTEX
  8
0
 10
13.0689
 20
303.128
 30
0.0
 40
0
 41
0
  0
VERTEX
  8
0
 10
12.6414
 20
303.69
 30
0.0
 40
0
 41
0
  0
VERTEX
  8
0
 10
12.2285
 20
304.263
 30
0.0
 40
0
 41
0
  0
VERTEX
  8
0
 10
11.8303
 20
304.844
 30
0.0
 40
0
 41
0
  0
VERTEX
  8
0
 10
11.4469
 20
305.435
 30
0.0
 40
0
 41
0
  0
VERTEX
  8
0
 10
11.0785
 20
306.033
 30
0.0
 40
0
 41
0
  0
VERTEX
  8
0
 10
10.7251
 20
306.642
 30
0.0
 40
0
 41
0
  0
VERTEX
  8
0
 10
10.3869
 20
307.257
 30
0.0
 40
0
 41
0
  0
VERTEX
  8
0
 10
10.064
 20
307.879
 30
0.0
 40
0
 41
0
  0
VERTEX
  8
0
 10
9.75657
 20
308.51
 30
0.0
 40
0
 41
0
  0
VERTEX
  8
0
 10
9.46468
 20
309.147
 30
0.0
 40
0
 41
0
  0
VERTEX
  8
0
 10
9.18842
 20
309.793
 30
0.0
 40
0
 41
0
  0
VERTEX
  8
0
 10
8.928
 20
310.443
 30
0.0
 40
0
 41
0
  0
VERTEX
  8
0
 10
8.68349
 20
311.101
 30
0.0
 40
0
 41
0
  0
VERTEX
  8
0
 10
8.45503
 20
311.764
 30
0.0
 40
0
 41
0
  0
VERTEX
  8
0
 10
8.24268
 20
312.433
 30
0.0
 40
0
 41
0
  0
VERTEX
  8
0
 10
8.04665
 20
313.107
 30
0.0
 40
0
 41
0
  0
VERTEX
  8
0
 10
7.86703
 20
313.786
 30
0.0
 40
0
 41
0
  0
VERTEX
  8
0
 10
7.70394
 20
314.471
 30
0.0
 40
0
 41
0
  0
VERTEX
  8
0
 10
7.55751
 20
315.16
 30
0.0
 40
0
 41
0
  0
VERTEX
  8
0
 10
7.42785
 20
315.853
 30
0.0
 40
0
 41
0
  0
VERTEX
  8
0
 10
7.31506
 20
316.549
 30
0.0
 40
0
 41
0
  0
VERTEX
  8
0
 10
7.21929
 20
317.25
 30
0.0
 40
0
 41
0
  0
VERTEX
  8
0
 10
7.14068
 20
317.953
 30
0.0
 40
0
 41
0
  0
VERTEX
  8
0
 10
7.07926
 20
318.66
 30
0.0
 40
0
 41
0
  0
VERTEX
  8
0
 10
7.03532
 20
319.369
 30
0.0
 40
0
 41
0
  0
VERTEX
  8
0
 10
7.00885
 20
320.081
 30
0.0
 40
0
 41
0
  0
VERTEX
  8
0
 10
7
 20
320.617
 30
0.0
 40
0
 41
0
  0
VERTEX
  8
0
 10
7
 20
320.794
 30
0.0
 40
0
 41
0
  0
VERTEX
  8
0
 10
7
 20
320.974
 30
0.0
 40
0
 41
0
  0
VERTEX
  8
0
 10
7.00885
 20
321.508
 30
0.0
 40
0
 41
0
  0
VERTEX
  8
0
 10
7.03532
 20
322.221
 30
0.0
 40
0
 41
0
  0
VERTEX
  8
0
 10
7.07926
 20
322.929
 30
0.0
 40
0
 41
0
  0
VERTEX
  8
0
 10
7.14068
 20
323.636
 30
0.0
 40
0
 41
0
  0
VERTEX
  8
0
 10
7.21929
 20
324.34
 30
0.0
 40
0
 41
0
  0
VERTEX
  8
0
 10
7.31506
 20
325.04
 30
0.0
 40
0
 41
0
  0
VERTEX
  8
0
 10
7.42785
 20
325.737
 30
0.0
 40
0
 41
0
  0
VERTEX
  8
0
 10
7.55751
 20
326.429
 30
0.0
 40
0
 41
0
  0
VERTEX
  8
0
 10
7.70394
 20
327.118
 30
0.0
 40
0
 41
0
  0
VERTEX
  8
0
 10
7.86703
 20
327.803
 30
0.0
 40
0
 41
0
  0
VERTEX
  8
0
 10
8.04665
 20
328.482
 30
0.0
 40
0
 41
0
  0
VERTEX
  8
0
 10
8.24268
 20
329.156
 30
0.0
 40
0
 41
0
  0
VERTEX
  8
0
 10
8.45503
 20
329.825
 30
0.0
 40
0
 41
0
  0
VERTEX
  8
0
 10
8.68349
 20
330.489
 30
0.0
 40
0
 41
0
  0
VERTEX
  8
0
 10
8.928
 20
331.146
 30
0.0
 40
0
 41
0
  0
VERTEX
  8
0
 10
9.18842
 20
331.797
 30
0.0
 40
0
 41
0
  0
VERTEX
  8
0
 10
9.46468
 20
332.442
 30
0.0
 40
0
 41
0
  0
VERTEX
  8
0
 10
9.75657
 20
333.079
 30
0.0
 40
0
 41
0
  0
VERTEX
  8
0
 10
10.064
 20
333.71
 30
0.0
 40
0
 41
0
  0
VERTEX
  8
0
 10
10.3869
 20
334.333
 30
0.0
 40
0
 41
0
  0
VERTEX
  8
0
 10
10.7251
 20
334.949
 30
0.0
 40
0
 41
0
  0
VERTEX
  8
0
 10
11.0785
 20
335.556
 30
0.0
 40
0
 41
0
  0
VERTEX
  8
0
 10
11.4469
 20
336.154
 30
0.0
 40
0
 41
0
  0
VERTEX
  8
0
 10
11.8303
 20
336.746
 30
0.0
 40
0
 41
0
  0
VERTEX
  8
0
 10
12.2285
 20
337.326
 30
0.0
 40
0
 41
0
  0
VERTEX
  8
0
 10
12.6414
 20
337.899
 30
0.0
 40
0
 41
0
  0
VERTEX
  8
0
 10
13.0689
 20
338.463
 30
0.0
 40
0
 41
0
  0
VERTEX
  8
0
 10
13.5108
 20
339.015
 30
0.0
 40
0
 41
0
  0
VERTEX
  8
0
 10
13.9671
 20
339.558
 30
0.0
 40
0
 41
0
  0
VERTEX
  8
0
 10
14.4375
 20
340.09
 30
0.0
 40
0
 41
0
  0
VERTEX
  8
0
 10
14.9221
 20
340.612
 30
0.0
 40
0
 41
0
  0
VERTEX
  8
0
 10
15.2944
 20
340.997
 30
0.0
 40
0
 41
0
  0
VERTEX
  8
0
 10
15.4207
 20
341.124
 30
0.0
 40
0
 41
0
  0
VERTEX
  8
0
 10
15.5469
 20
341.25
 30
0.0
 40
0
 41
0
  0
VERTEX
  8
0
 10
15.9317
 20
341.622
 30
0.0
 40
0
 41
0
  0
VERTEX
  8
0
 10
16.4538
 20
342.107
 30
0.0
 40
0
 41
0
  0
VERTEX
  8
0
 10
16.9864
 20
342.578
 30
0.0
 40
0
 41
0
  0
VERTEX
  8
0
 10
17.5294
 20
343.033
 30
0.0
 40
0
 41
0
  0
VERTEX
  8
0
 10
18.0826
 20
343.476
 30
0.0
 40
0
 41
0
  0
VERTEX
  8
0
 10
18.6456
 20
343.903
 30
0.0
 40
0
 41
0
  0
VERTEX
  8
0
 10
19.2179
 20
344.317
 30
0.0
 40
0
 41
0
  0
VERTEX
  8
0
 10
19.7994
 20
344.714
 30
0.0
 40
0
 41
0
  0
VERTEX
  8
0
 10
20.39
 20
345.097
 30
0.0
 40
0
 41
0
  0
VERTEX
  8
0
 10
20.989
 20
345.467
 30
0.0
 40
0
 41
0
  0
VERTEX
  8
0
 10
21.5965
 20
345.819
 30
0.0
 40
0
 41
0
  0
VERTEX
  8
0
 10
22.2119
 20
346.158
 30
0.0
 40
0
 41
0
  0
VERTEX
  8
0
 10
22.8351
 20
346.481
 30
0.0
 40
0
 41
0
  0
VERTEX
  8
0
 10
23.4656
 20
346.787
 30
0.0
 40
0
 41
0
  0
VERTEX
  8
0
 10
24.1033
 20
347.081
 30
0.0
 40
0
 41
0
  0
VERTEX
  8
0
 10
24.7479
 20
347.356
 30
0.0
 40
0
 41
0
  0
VERTEX
  8
0
 10
25.3989
 20
347.617
 30
0.0
 40
0
 41
0
  0
VERTEX
  8
0
 10
26.0563
 20
347.861
 30
0.0
 40
0
 41
0
  0
VERTEX
  8
0
 10
26.7196
 20
348.09
 30
0.0
 40
0
 41
0
  0
VERTEX
  8
0
 10
27.3885
 20
348.301
 30
0.0
 40
0
 41
0
  0
VERTEX
  8
0
 10
28.0628
 20
348.499
 30
0.0
 40
0
 41
0
  0
VERTEX
  8
0
 10
28.7422
 20
348.678
 30
0.0
 40
0
 41
0
  0
VERTEX
  8
0
 10
29.4264
 20
348.84
 30
0.0
 40
0
 41
0
  0
VERTEX
  8
0
 10
30.115
 20
348.987
 30
0.0
 40
0
 41
0
  0
VERTEX
  8
0
 10
30.8078
 20
349.117
 30
0.0
 40
0
 41
0
  0
VERTEX
  8
0
 10
31.5044
 20
349.229
 30
0.0
 40
0
 41
0
  0
VERTEX
  8
0
 10
32.2049
 20
349.325
 30
0.0
 40
0
 41
0
  0
VERTEX
  8
0
 10
32.9085
 20
349.404
 30
0.0
 40
0
 41
0
  0
VERTEX
  8
0
 10
33.6151
 20
349.465
 30
0.0
 40
0
 41
0
  0
VERTEX
  8
0
 10
34.3244
 20
349.51
 30
0.0
 40
0
 41
0
  0
VERTEX
  8
0
 10
35.0361
 20
349.536
 30
0.0
 40
0
 41
0
  0
VERTEX
  8
0
 10
35.5715
 20
349.544
 30
0.0
 40
0
 41
0
  0
VERTEX
  8
0
 10
35.75
 20
349.544
 30
0.0
 40
0
 41
0
  0
VERTEX
  8
0
 10
35.9285
 20
349.544
 30
0.0
 40
0
 41
0
  0
VERTEX
  8
0
 10
36.4639
 20
349.536
 30
0.0
 40
0
 41
0
  0
VERTEX
  8
0
 10
37.1757
 20
349.51
 30
0.0
 40
0
 41
0
  0
VERTEX
  8
0
 10
37.885
 20
349.465
 30
0.0
 40
0
 41
0
  0
VERTEX
  8
0
 10
38.5917
 20
349.404
 30
0.0
 40
0
 41
0
  0
VERTEX
  8
0
 10
39.2953
 20
349.325
 30
0.0
 40
0
 41
0
  0
VERTEX
  8
0
 10
39.9956
 20
349.229
 30
0.0
 40
0
 41
0
  0
VERTEX
  8
0
 10
40.6922
 20
349.117
 30
0.0
 40
0
 41
0
  0
VERTEX
  8
0
 10
41.3851
 20
348.987
 30
0.0
 40
0
 41
0
  0
VERTEX
  8
0
 10
42.0738
 20
348.84
 30
0.0
 40
0
 41
0
  0
VERTEX
  8
0
 10
42.7579
 20
348.678
 30
0.0
 40
0
 41
0
  0
VERTEX
  8
0
 10
43.4372
 20
348.499
 30
0.0
 40
0
 41
0
  0
VERTEX
  8
0
 10
44.1115
 20
348.301
 30
0.0
 40
0
 41
0
  0
VERTEX
  8
0
 10
44.7806
 20
348.09
 30
0.0
 40
0
 41
0
  0
VERTEX
  8
0
 10
45.4437
 20
347.861
 30
0.0
 40
0
 41
0
  0
VERTEX
  8
0
 10
46.1011
 20
347.617
 30
0.0
 40
0
 41
0
  0
VERTEX
  8
0
 10
46.7522
 20
347.356
 30
0.0
 40
0
 41
0
  0
VERTEX
  8
0
 10
47.3968
 20
347.081
 30
0.0
 40
0
 41
0
  0
VERTEX
  8
0
 10
48.0344
 20
346.787
 30
0.0
 40
0
 41
0
  0
VERTEX
  8
0
 10
48.665
 20
346.481
 30
0.0
 40
0
 41
0
  0
VERTEX
  8
0
 10
49.2882
 20
346.158
 30
0.0
 40
0
 41
0
  0
VERTEX
  8
0
 10
49.9036
 20
345.819
 30
0.0
 40
0
 41
0
  0
VERTEX
  8
0
 10
50.511
 20
345.467
 30
0.0
 40
0
 41
0
  0
VERTEX
  8
0
 10
51.1101
 20
345.097
 30
0.0
 40
0
 41
0
  0
VERTEX
  8
0
 10
51.7006
 20
344.714
 30
0.0
 40
0
 41
0
  0
VERTEX
  8
0
 10
52.2822
 20
344.317
 30
0.0
 40
0
 41
0
  0
VERTEX
  8
0
 10
52.8546
 20
343.903
 30
0.0
 40
0
 41
0
  0
VERTEX
  8
0
 10
53.4175
 20
343.476
 30
0.0
 40
0
 41
0
  0
VERTEX
  8
0
 10
53.9706
 20
343.033
 30
0.0
 40
0
 41
0
  0
VERTEX
  8
0
 10
54.5136
 20
342.578
 30
0.0
 40
0
 41
0
  0
VERTEX
  8
0
 10
55.0464
 20
342.107
 30
0.0
 40
0
 41
0
  0
VERTEX
  8
0
 10
55.5683
 20
341.622
 30
0.0
 40
0
 41
0
  0
VERTEX
  8
0
 10
55.9532
 20
341.25
 30
0.0
 40
0
 41
0
  0
VERTEX
  8
0
 10
56.0794
 20
341.124
 30
0.0
 40
0
 41
0
  0
VERTEX
  8
0
 10
56.2056
 20
340.997
 30
0.0
 40
0
 41
0
  0
VERTEX
  8
0
 10
56.5779
 20
340.612
 30
0.0
 40
0
 41
0
  0
VERTEX
  8
0
 10
57.0625
 20
340.09
 30
0.0
 40
0
 41
0
  0
VERTEX
  8
0
 10
57.5329
 20
339.558
 30
0.0
 40
0
 41
0
  0
VERTEX
  8
0
 10
57.9892
 20
339.015
 30
0.0
 40
0
 41
0
  0
VERTEX
  8
0
 10
58.4311
 20
338.463
 30
0.0
 40
0
 41
0
  0
VERTEX
  8
0
 10
58.8586
 20
337.899
 30
0.0
 40
0
 41
0
  0
VERTEX
  8
0
 10
59.2715
 20
337.326
 30
0.0
 40
0
 41
0
  0
VERTEX
  8
0
 10
59.6697
 20
336.746
 30
0.0
 40
0
 41
0
  0
VERTEX
  8
0
 10
60.0531
 20
336.154
 30
0.0
 40
0
 41
0
  0
VERTEX
  8
0
 10
60.4215
 20
335.556
 30
0.0
 40
0
 41
0
  0
VERTEX
  8
0
 10
60.775
 20
334.949
 30
0.0
 40
0
 41
0
  0
VERTEX
  8
0
 10
61.1131
 20
334.333
 30
0.0
 40
0
 41
0
  0
VERTEX
  8
0
 10
61.436
 20
333.71
 30
0.0
 40
0
 41
0
  0
VERTEX
  8
0
 10
61.7435
 20
333.079
 30
0.0
 40
0
 41
0
  0
VERTEX
  8
0
 10
62.0354
 20
332.442
 30
0.0
 40
0
 41
0
  0
VERTEX
  8
0
 10
62.3117
 20
331.797
 30
0.0
 40
0
 41
0
  0
VERTEX
  8
0
 10
62.5721
 20
331.146
 30
0.0
 40
0
 41
0
  0
VERTEX
  8
0
 10
62.8165
 20
330.489
 30
0.0
 40
0
 41
0
  0
VERTEX
  8
0
 10
63.045
 20
329.825
 30
0.0
 40
0
 41
0
  0
VERTEX
  8
0
 10
63.2574
 20
329.156
 30
0.0
 40
0
 41
0
  0
VERTEX
  8
0
 10
63.4533
 20
328.482
 30
0.0
 40
0
 41
0
  0
VERTEX
  8
0
 10
63.6331
 20
327.803
 30
0.0
 40
0
 41
0
  0
VERTEX
  8
0
 10
63.7961
 20
327.118
 30
0.0
 40
0
 41
0
  0
VERTEX
  8
0
 10
63.9425
 20
326.429
 30
0.0
 40
0
 41
0
  0
VERTEX
  8
0
 10
64.0722
 20
325.737
 30
0.0
 40
0
 41
0
  0
VERTEX
  8
0
 10
64.185
 20
325.04
 30
0.0
 40
0
 41
0
  0
VERTEX
  8
0
 10
64.2807
 20
324.34
 30
0.0
 40
0
 41
0
  0
VERTEX
  8
0
 10
64.3594
 20
323.636
 30
0.0
 40
0
 41
0
  0
VERTEX
  8
0
 10
64.4208
 20
322.929
 30
0.0
 40
0
 41
0
  0
VERTEX
  8
0
 10
64.4647
 20
322.221
 30
0.0
 40
0
 41
0
  0
VERTEX
  8
0
 10
64.4913
 20
321.508
 30
0.0
 40
0
 41
0
  0
VERTEX
  8
0
 10
64.5001
 20
320.974
 30
0.0
 40
0
 41
0
  0
VERTEX
  8
0
 10
64.5001
 20
320.794
 30
0.0
 40
0
 41
0
  0
VERTEX
  8
0
 10
64.5001
 20
320.617
 30
0.0
 40
0
 41
0
  0
VERTEX
  8
0
 10
64.4913
 20
320.081
 30
0.0
 40
0
 41
0
  0
VERTEX
  8
0
 10
64.4647
 20
319.369
 30
0.0
 40
0
 41
0
  0
VERTEX
  8
0
 10
64.4208
 20
318.66
 30
0.0
 40
0
 41
0
  0
VERTEX
  8
0
 10
64.3594
 20
317.953
 30
0.0
 40
0
 41
0
  0
VERTEX
  8
0
 10
64.2807
 20
317.25
 30
0.0
 40
0
 41
0
  0
VERTEX
  8
0
 10
64.185
 20
316.549
 30
0.0
 40
0
 41
0
  0
VERTEX
  8
0
 10
64.0722
 20
315.853
 30
0.0
 40
0
 41
0
  0
VERTEX
  8
0
 10
63.9425
 20
315.16
 30
0.0
 40
0
 41
0
  0
VERTEX
  8
0
 10
63.7961
 20
314.471
 30
0.0
 40
0
 41
0
  0
VERTEX
  8
0
 10
63.6331
 20
313.786
 30
0.0
 40
0
 41
0
  0
VERTEX
  8
0
 10
63.4533
 20
313.107
 30
0.0
 40
0
 41
0
  0
VERTEX
  8
0
 10
63.2574
 20
312.433
 30
0.0
 40
0
 41
0
  0
VERTEX
  8
0
 10
63.045
 20
311.764
 30
0.0
 40
0
 41
0
  0
VERTEX
  8
0
 10
62.8165
 20
311.101
 30
0.0
 40
0
 41
0
  0
VERTEX
  8
0
 10
62.5721
 20
310.443
 30
0.0
 40
0
 41
0
  0
VERTEX
  8
0
 10
62.3117
 20
309.793
 30
0.0
 40
0
 41
0
  0
VERTEX
  8
0
 10
62.0354
 20
309.147
 30
0.0
 40
0
 41
0
  0
VERTEX
  8
0
 10
61.7435
 20
308.51
 30
0.0
 40
0
 41
0
  0
VERTEX
  8
0
 10
61.436
 20
307.879
 30
0.0
 40
0
 41
0
  0
VERTEX
  8
0
 10
61.1131
 20
307.257
 30
0.0
 40
0
 41
0
  0
VERTEX
  8
0
 10
60.775
 20
306.642
 30
0.0
 40
0
 41
0
  0
VERTEX
  8
0
 10
60.4215
 20
306.033
 30
0.0
 40
0
 41
0
  0
VERTEX
  8
0
 10
60.0531
 20
305.435
 30
0.0
 40
0
 41
0
  0
VERTEX
  8
0
 10
59.6697
 20
304.844
 30
0.0
 40
0
 41
0
  0
VERTEX
  8
0
 10
59.2715
 20
304.263
 30
0.0
 40
0
 41
0
  0
VERTEX
  8
0
 10
58.8586
 20
303.69
 30
0.0
 40
0
 41
0
  0
VERTEX
  8
0
 10
58.4311
 20
303.128
 30
0.0
 40
0
 41
0
  0
VERTEX
  8
0
 10
57.9892
 20
302.574
 30
0.0
 40
0
 41
0
  0
VERTEX
  8
0
 10
57.5329
 20
302.031
 30
0.0
 40
0
 41
0
  0
VERTEX
  8
0
 10
57.0625
 20
301.499
 30
0.0
 40
0
 41
0
  0
VERTEX
  8
0
 10
56.5779
 20
300.976
 30
0.0
 40
0
 41
0
  0
VERTEX
  8
0
 10
56.2056
 20
300.592
 30
0.0
 40
0
 41
0
  0
VERTEX
  8
0
 10
56.0794
 20
300.465
 30
0.0
 40
0
 41
0
  0
VERTEX
  8
0
 10
55.9532
 20
300.339
 30
0.0
 40
0
 41
0
  0
VERTEX
  8
0
 10
55.5683
 20
299.967
 30
0.0
 40
0
 41
0
  0
VERTEX
  8
0
 10
55.0464
 20
299.482
 30
0.0
 40
0
 41
0
  0
VERTEX
  8
0
 10
54.5136
 20
299.011
 30
0.0
 40
0
 41
0
  0
VERTEX
  8
0
 10
53.9706
 20
298.556
 30
0.0
 40
0
 41
0
  0
VERTEX
  8
0
 10
53.4175
 20
298.114
 30
0.0
 40
0
 41
0
  0
VERTEX
  8
0
 10
52.8546
 20
297.686
 30
0.0
 40
0
 41
0
  0
VERTEX
  8
0
 10
52.2822
 20
297.274
 30
0.0
 40
0
 41
0
  0
VERTEX
  8
0
 10
51.7006
 20
296.875
 30
0.0
 40
0
 41
0
  0
VERTEX
  8
0
 10
51.1101
 20
296.492
 30
0.0
 40
0
 41
0
  0
VERTEX
  8
0
 10
50.511
 20
296.124
 30
0.0
 40
0
 41
0
  0
VERTEX
  8
0
 10
49.9036
 20
295.769
 30
0.0
 40
0
 41
0
  0
VERTEX
  8
0
 10
49.2882
 20
295.432
 30
0.0
 40
0
 41
0
  0
VERTEX
  8
0
 10
48.665
 20
295.108
 30
0.0
 40
0
 41
0
  0
VERTEX
  8
0
 10
48.0344
 20
294.801
 30
0.0
 40
0
 41
0
  0
VERTEX
  8
0
 10
47.3968
 20
294.51
 30
0.0
 40
0
 41
0
  0
VERTEX
  8
0
 10
46.7522
 20
294.233
 30
0.0
 40
0
 41
0
  0
VERTEX
  8
0
 10
46.1011
 20
293.972
 30
0.0
 40
0
 41
0
  0
VERTEX
  8
0
 10
45.4437
 20
293.728
 30
0.0
 40
0
 41
0
  0
VERTEX
  8
0
 10
44.7806
 20
293.5
 30
0.0
 40
0
 41
0
  0
VERTEX
  8
0
 10
44.1115
 20
293.287
 30
0.0
 40
0
 41
0
  0
VERTEX
  8
0
 10
43.4372
 20
293.092
 30
0.0
 40
0
 41
0
  0
VERTEX
  8
0
 10
42.7579
 20
292.911
 30
0.0
 40
0
 41
0
  0
VERTEX
  8
0
 10
42.0738
 20
292.749
 30
0.0
 40
0
 41
0
  0
VERTEX
  8
0
 10
41.3851
 20
292.603
 30
0.0
 40
0
 41
0
  0
VERTEX
  8
0
 10
40.6922
 20
292.472
 30
0.0
 40
0
 41
0
  0
VERTEX
  8
0
 10
39.9956
 20
292.36
 30
0.0
 40
0
 41
0
  0
VERTEX
  8
0
 10
39.2953
 20
292.264
 30
0.0
 40
0
 41
0
  0
VERTEX
  8
0
 10
38.5917
 20
292.185
 30
0.0
 40
0
 41
0
  0
VERTEX
  8
0
 10
37.885
 20
292.124
 30
0.0
 40
0
 41
0
  0
VERTEX
  8
0
 10
37.1757
 20
292.081
 30
0.0
 40
0
 41
0
  0
VERTEX
  8
0
 10
36.4639
 20
292.053
 30
0.0
 40
0
 41
0
  0
VERTEX
  8
0
 10
35.9285
 20
292.044
 30
0.0
 40
0
 41
0
  0
VERTEX
  8
0
 10
35.75
 20
292.044
 30
0.0
 40
0
 41
0
  0
SEQEND
 8
0
  0
POLYLINE
  8
0
 62
     0
 66
     1
 10
0
 20
0
 30
0.0
 70
     1
 40
0
 41
0
  0
VERTEX
  8
0
 10
133.75
 20
255.544
 30
0.0
 40
0
 41
0
  0
VERTEX
  8
0
 10
133.549
 20
255.544
 30
0.0
 40
0
 41
0
  0
VERTEX
  8
0
 10
132.944
 20
255.564
 30
0.0
 40
0
 41
0
  0
VERTEX
  8
0
 10
132.144
 20
255.624
 30
0.0
 40
0
 41
0
  0
VERTEX
  8
0
 10
131.351
 20
255.722
 30
0.0
 40
0
 41
0
  0
VERTEX
  8
0
 10
130.565
 20
255.86
 30
0.0
 40
0
 41
0
  0
VERTEX
  8
0
 10
129.789
 20
256.035
 30
0.0
 40
0
 41
0
  0
VERTEX
  8
0
 10
129.024
 20
256.247
 30
0.0
 40
0
 41
0
  0
VERTEX
  8
0
 10
128.271
 20
256.496
 30
0.0
 40
0
 41
0
  0
VERTEX
  8
0
 10
127.532
 20
256.782
 30
0.0
 40
0
 41
0
  0
VERTEX
  8
0
 10
126.807
 20
257.103
 30
0.0
 40
0
 41
0
  0
VERTEX
  8
0
 10
126.098
 20
257.458
 30
0.0
 40
0
 41
0
  0
VERTEX
  8
0
 10
125.407
 20
257.85
 30
0.0
 40
0
 41
0
  0
VERTEX
  8
0
 10
124.735
 20
258.275
 30
0.0
 40
0
 41
0
  0
VERTEX
  8
0
 10
124.082
 20
258.733
 30
0.0
 40
0
 41
0
  0
VERTEX
  8
0
 10
123.452
 20
259.225
 30
0.0
 40
0
 41
0
  0
VERTEX
  8
0
 10
122.844
 20
259.749
 30
0.0
 40
0
 41
0
  0
VERTEX
  8
0
 10
122.402
 20
260.161
 30
0.0
 40
0
 41
0
  0
VERTEX
  8
0
 10
122.26
 20
260.304
 30
0.0
 40
0
 41
0
  0
VERTEX
  8
0
 10
122.117
 20
260.446
 30
0.0
 40
0
 41
0
  0
VERTEX
  8
0
 10
121.704
 20
260.888
 30
0.0
 40
0
 41
0
  0
VERTEX
  8
0
 10
121.18
 20
261.496
 30
0.0
 40
0
 41
0
  0
VERTEX
  8
0
 10
120.689
 20
262.126
 30
0.0
 40
0
 41
0
  0
VERTEX
  8
0
 10
120.23
 20
262.779
 30
0.0
 40
0
 41
0
  0
VERTEX
  8
0
 10
119.805
 20
263.451
 30
0.0
 40
0
 41
0
  0
VERTEX
  8
0
 10
119.414
 20
264.143
 30
0.0
 40
0
 41
0
  0
VERTEX
  8
0
 10
119.058
 20
264.851
 30
0.0
 40
0
 41
0
  0
VERTEX
  8
0
 10
118.737
 20
265.576
 30
0.0
 40
0
 41
0
  0
VERTEX
  8
0
 10
118.452
 20
266.315
 30
0.0
 40
0
 41
0
  0
VERTEX
  8
0
 10
118.203
 20
267.068
 30
0.0
 40
0
 41
0
  0
VERTEX
  8
0
 10
117.99
 20
267.833
 30
0.0
 40
0
 41
0
  0
VERTEX
  8
0
 10
117.815
 20
268.61
 30
0.0
 40
0
 41
0
  0
VERTEX
  8
0
 10
117.678
 20
269.394
 30
0.0
 40
0
 41
0
  0
VERTEX
  8
0
 10
117.58
 20
270.189
 30
0.0
 40
0
 41
0
  0
VERTEX
  8
0
 10
117.52
 20
270.989
 30
0.0
 40
0
 41
0
  0
VERTEX
  8
0
 10
117.5
 20
271.593
 30
0.0
 40
0
 41
0
  0
VERTEX
  8
0
 10
117.5
 20
271.794
 30
0.0
 40
0
 41
0
  0
VERTEX
  8
0
 10
117.5
 20
271.996
 30
0.0
 40
0
 41
0
  0
VERTEX
  8
0
 10
117.52
 20
272.6
 30
0.0
 40
0
 41
0
  0
VERTEX
  8
0
 10
117.58
 20
273.4
 30
0.0
 40
0
 41
0
  0
VERTEX
  8
0
 10
117.678
 20
274.194
 30
0.0
 40
0
 41
0
  0
VERTEX
  8
0
 10
117.815
 20
274.979
 30
0.0
 40
0
 41
0
  0
VERTEX
  8
0
 10
117.99
 20
275.756
 30
0.0
 40
0
 41
0
  0
VERTEX
  8
0
 10
118.203
 20
276.521
 30
0.0
 40
0
 41
0
  0
VERTEX
  8
0
 10
118.452
 20
277.274
 30
0.0
 40
0
 41
0
  0
VERTEX
  8
0
 10
118.737
 20
278.013
 30
0.0
 40
0
 41
0
  0
VERTEX
  8
0
 10
119.058
 20
278.737
 30
0.0
 40
0
 41
0
  0
VERTEX
  8
0
 10
119.414
 20
279.446
 30
0.0
 40
0
 41
0
  0
VERTEX
  8
0
 10
119.805
 20
280.138
 30
0.0
 40
0
 41
0
  0
VERTEX
  8
0
 10
120.23
 20
280.81
 30
0.0
 40
0
 41
0
  0
VERTEX
  8
0
 10
120.689
 20
281.463
 30
0.0
 40
0
 41
0
  0
VERTEX
  8
0
 10
121.18
 20
282.093
 30
0.0
 40
0
 41
0
  0
VERTEX
  8
0
 10
121.704
 20
282.701
 30
0.0
 40
0
 41
0
  0
VERTEX
  8
0
 10
122.117
 20
283.143
 30
0.0
 40
0
 41
0
  0
VERTEX
  8
0
 10
122.26
 20
283.285
 30
0.0
 40
0
 41
0
  0
VERTEX
  8
0
 10
122.402
 20
283.428
 30
0.0
 40
0
 41
0
  0
VERTEX
  8
0
 10
122.844
 20
283.84
 30
0.0
 40
0
 41
0
  0
VERTEX
  8
0
 10
123.452
 20
284.364
 30
0.0
 40
0
 41
0
  0
VERTEX
  8
0
 10
124.082
 20
284.856
 30
0.0
 40
0
 41
0
  0
VERTEX
  8
0
 10
124.735
 20
285.314
 30
0.0
 40
0
 41
0
  0
VERTEX
  8
0
 10
125.407
 20
285.739
 30
0.0
 40
0
 41
0
  0
VERTEX
  8
0
 10
126.098
 20
286.131
 30
0.0
 40
0
 41
0
  0
VERTEX
  8
0
 10
126.807
 20
286.486
 30
0.0
 40
0
 41
0
  0
VERTEX
  8
0
 10
127.532
 20
286.807
 30
0.0
 40
0
 41
0
  0
VERTEX
  8
0
 10
128.271
 20
287.093
 30
0.0
 40
0
 41
0
  0
VERTEX
  8
0
 10
129.024
 20
287.342
 30
0.0
 40
0
 41
0
  0
VERTEX
  8
0
 10
129.789
 20
287.554
 30
0.0
 40
0
 41
0
  0
VERTEX
  8
0
 10
130.565
 20
287.729
 30
0.0
 40
0
 41
0
  0
VERTEX
  8
0
 10
131.351
 20
287.867
 30
0.0
 40
0
 41
0
  0
VERTEX
  8
0
 10
132.144
 20
287.965
 30
0.0
 40
0
 41
0
  0
VERTEX
  8
0
 10
132.944
 20
288.025
 30
0.0
 40
0
 41
0
  0
VERTEX
  8
0
 10
133.549
 20
288.044
 30
0.0
 40
0
 41
0
  0
VERTEX
  8
0
 10
133.75
 20
288.044
 30
0.0
 40
0
 41
0
  0
VERTEX
  8
0
 10
133.952
 20
288.044
 30
0.0
 40
0
 41
0
  0
VERTEX
  8
0
 10
134.556
 20
288.025
 30
0.0
 40
0
 41
0
  0
VERTEX
  8
0
 10
135.356
 20
287.965
 30
0.0
 40
0
 41
0
  0
VERTEX
  8
0
 10
136.15
 20
287.867
 30
0.0
 40
0
 41
0
  0
VERTEX
  8
0
 10
136.935
 20
287.729
 30
0.0
 40
0
 41
0
  0
VERTEX
  8
0
 10
137.711
 20
287.554
 30
0.0
 40
0
 41
0
  0
VERTEX
  8
0
 10
138.476
 20
287.342
 30
0.0
 40
0
 41
0
  0
VERTEX
  8
0
 10
139.229
 20
287.093
 30
0.0
 40
0
 41
0
  0
VERTEX
  8
0
 10
139.969
 20
286.807
 30
0.0
 40
0
 41
0
  0
VERTEX
  8
0
 10
140.693
 20
286.486
 30
0.0
 40
0
 41
0
  0
VERTEX
  8
0
 10
141.403
 20
286.131
 30
0.0
 40
0
 41
0
  0
VERTEX
  8
0
 10
142.093
 20
285.739
 30
0.0
 40
0
 41
0
  0
VERTEX
  8
0
 10
142.765
 20
285.314
 30
0.0
 40
0
 41
0
  0
VERTEX
  8
0
 10
143.418
 20
284.856
 30
0.0
 40
0
 41
0
  0
VERTEX
  8
0
 10
144.049
 20
284.364
 30
0.0
 40
0
 41
0
  0
VERTEX
  8
0
 10
144.657
 20
283.84
 30
0.0
 40
0
 41
0
  0
VERTEX
  8
0
 10
145.099
 20
283.428
 30
0.0
 40
0
 41
0
  0
VERTEX
  8
0
 10
145.24
 20
283.285
 30
0.0
 40
0
 41
0
  0
VERTEX
  8
0
 10
145.383
 20
283.143
 30
0.0
 40
0
 41
0
  0
VERTEX
  8
0
 10
145.796
 20
282.701
 30
0.0
 40
0
 41
0
  0
VERTEX
  8
0
 10
146.321
 20
282.093
 30
0.0
 40
0
 41
0
  0
VERTEX
  8
0
 10
146.811
 20
281.463
 30
0.0
 40
0
 41
0
  0
VERTEX
  8
0
 10
147.269
 20
280.81
 30
0.0
 40
0
 41
0
  0
VERTEX
  8
0
 10
147.694
 20
280.138
 30
0.0
 40
0
 41
0
  0
VERTEX
  8
0
 10
148.086
 20
279.446
 30
0.0
 40
0
 41
0
  0
VERTEX
  8
0
 10
148.442
 20
278.737
 30
0.0
 40
0
 41
0
  0
VERTEX
  8
0
 10
148.764
 20
278.013
 30
0.0
 40
0
 41
0
  0
VERTEX
  8
0
 10
149.049
 20
277.274
 30
0.0
 40
0
 41
0
  0
VERTEX
  8
0
 10
149.297
 20
276.521
 30
0.0
 40
0
 41
0
  0
VERTEX
  8
0
 10
149.51
 20
275.756
 30
0.0
 40
0
 41
0
  0
VERTEX
  8
0
 10
149.685
 20
274.979
 30
0.0
 40
0
 41
0
  0
VERTEX
  8
0
 10
149.822
 20
274.194
 30
0.0
 40
0
 41
0
  0
VERTEX
  8
0
 10
149.921
 20
273.4
 30
0.0
 40
0
 41
0
  0
VERTEX
  8
0
 10
149.981
 20
272.6
 30
0.0
 40
0
 41
0
  0
VERTEX
  8
0
 10
150
 20
271.996
 30
0.0
 40
0
 41
0
  0
VERTEX
  8
0
 10
150
 20
271.794
 30
0.0
 40
0
 41
0
  0
VERTEX
  8
0
 10
150
 20
271.593
 30
0.0
 40
0
 41
0
  0
VERTEX
  8
0
 10
149.981
 20
270.989
 30
0.0
 40
0
 41
0
  0
VERTEX
  8
0
 10
149.921
 20
270.189
 30
0.0
 40
0
 41
0
  0
VERTEX
  8
0
 10
149.822
 20
269.394
 30
0.0
 40
0
 41
0
  0
VERTEX
  8
0
 10
149.685
 20
268.61
 30
0.0
 40
0
 41
0
  0
VERTEX
  8
0
 10
149.51
 20
267.833
 30
0.0
 40
0
 41
0
  0
VERTEX
  8
0
 10
149.297
 20
267.068
 30
0.0
 40
0
 41
0
  0
VERTEX
  8
0
 10
149.049
 20
266.315
 30
0.0
 40
0
 41
0
  0
VERTEX
  8
0
 10
148.764
 20
265.576
 30
0.0
 40
0
 41
0
  0
VERTEX
  8
0
 10
148.442
 20
264.851
 30
0.0
 40
0
 41
0
  0
VERTEX
  8
0
 10
148.086
 20
264.143
 30
0.0
 40
0
 41
0
  0
VERTEX
  8
0
 10
147.694
 20
263.451
 30
0.0
 40
0
 41
0
  0
VERTEX
  8
0
 10
147.269
 20
262.779
 30
0.0
 40
0
 41
0
  0
VERTEX
  8
0
 10
146.811
 20
262.126
 30
0.0
 40
0
 41
0
  0
VERTEX
  8
0
 10
146.321
 20
261.496
 30
0.0
 40
0
 41
0
  0
VERTEX
  8
0
 10
145.796
 20
260.888
 30
0.0
 40
0
 41
0
  0
VERTEX
  8
0
 10
145.383
 20
260.446
 30
0.0
 40
0
 41
0
  0
VERTEX
  8
0
 10
145.24
 20
260.304
 30
0.0
 40
0
 41
0
  0
VERTEX
  8
0
 10
145.099
 20
260.161
 30
0.0
 40
0
 41
0
  0
VERTEX
  8
0
 10
144.657
 20
259.749
 30
0.0
 40
0
 41
0
  0
VERTEX
  8
0
 10
144.049
 20
259.225
 30
0.0
 40
0
 41
0
  0
VERTEX
  8
0
 10
143.418
 20
258.733
 30
0.0
 40
0
 41
0
  0
VERTEX
  8
0
 10
142.765
 20
258.275
 30
0.0
 40
0
 41
0
  0
VERTEX
  8
0
 10
142.093
 20
257.85
 30
0.0
 40
0
 41
0
  0
VERTEX
  8
0
 10
141.403
 20
257.458
 30
0.0
 40
0
 41
0
  0
VERTEX
  8
0
 10
140.693
 20
257.103
 30
0.0
 40
0
 41
0
  0
VERTEX
  8
0
 10
139.969
 20
256.782
 30
0.0
 40
0
 41
0
  0
VERTEX
  8
0
 10
139.229
 20
256.496
 30
0.0
 40
0
 41
0
  0
VERTEX
  8
0
 10
138.476
 20
256.247
 30
0.0
 40
0
 41
0
  0
VERTEX
  8
0
 10
137.711
 20
256.035
 30
0.0
 40
0
 41
0
  0
VERTEX
  8
0
 10
136.935
 20
255.86
 30
0.0
 40
0
 41
0
  0
VERTEX
  8
0
 10
136.15
 20
255.722
 30
0.0
 40
0
 41
0
  0
VERTEX
  8
0
 10
135.356
 20
255.624
 30
0.0
 40
0
 41
0
  0
VERTEX
  8
0
 10
134.556
 20
255.564
 30
0.0
 40
0
 41
0
  0
VERTEX
  8
0
 10
133.952
 20
255.544
 30
0.0
 40
0
 41
0
  0
VERTEX
  8
0
 10
133.75
 20
255.544
 30
0.0
 40
0
 41
0
  0
SEQEND
 8
0
  0
POLYLINE
  8
0
 62
     0
 66
     1
 10
0
 20
0
 30
0.0
 70
     1
 40
0
 41
0
  0
VERTEX
  8
0
 10
0
 20
177.163
 30
0.0
 40
0
 41
0
  0
VERTEX
  8
0
 10
3
 20
177.163
 30
0.0
 40
0
 41
0
  0
VERTEX
  8
0
 10
3
 20
168.163
 30
0.0
 40
0
 41
0
  0
VERTEX
  8
0
 10
0
 20
168.163
 30
0.0
 40
0
 41
0
  0
VERTEX
  8
0
 10
0
 20
155.661
 30
0.0
 40
0
 41
0
  0
VERTEX
  8
0
 10
3
 20
155.661
 30
0.0
 40
0
 41
0
  0
VERTEX
  8
0
 10
3
 20
146.661
 30
0.0
 40
0
 41
0
  0
VERTEX
  8
0
 10
0
 20
146.661
 30
0.0
 40
0
 41
0
  0
VERTEX
  8
0
 10
0
 20
134.162
 30
0.0
 40
0
 41
0
  0
VERTEX
  8
0
 10
64.0575
 20
117.393
 30
0.0
 40
0
 41
0
  0
VERTEX
  8
0
 10
65.0357
 20
117.137
 30
0.0
 40
0
 41
0
  0
VERTEX
  8
0
 10
67.9786
 20
116.4
 30
0.0
 40
0
 41
0
  0
VERTEX
  8
0
 10
71.9136
 20
115.47
 30
0.0
 40
0
 41
0
  0
VERTEX
  8
0
 10
75.8614
 20
114.604
 30
0.0
 40
0
 41
0
  0
VERTEX
  8
0
 10
79.8212
 20
113.801
 30
0.0
 40
0
 41
0
  0
VERTEX
  8
0
 10
83.7924
 20
113.062
 30
0.0
 40
0
 41
0
  0
VERTEX
  8
0
 10
87.774
 20
112.387
 30
0.0
 40
0
 41
0
  0
VERTEX
  8
0
 10
91.7656
 20
111.776
 30
0.0
 40
0
 41
0
  0
VERTEX
  8
0
 10
95.7661
 20
111.228
 30
0.0
 40
0
 41
0
  0
VERTEX
  8
0
 10
99.7749
 20
110.745
 30
0.0
 40
0
 41
0
  0
VERTEX
  8
0
 10
103.791
 20
110.325
 30
0.0
 40
0
 41
0
  0
VERTEX
  8
0
 10
107.814
 20
109.97
 30
0.0
 40
0
 41
0
  0
VERTEX
  8
0
 10
111.843
 20
109.679
 30
0.0
 40
0
 41
0
  0
VERTEX
  8
0
 10
115.877
 20
109.453
 30
0.0
 40
0
 41
0
  0
VERTEX
  8
0
 10
119.915
 20
109.291
 30
0.0
 40
0
 41
0
  0
VERTEX
  8
0
 10
123.957
 20
109.194
 30
0.0
 40
0
 41
0
  0
VERTEX
  8
0
 10
126.991
 20
109.162
 30
0.0
 40
0
 41
0
  0
VERTEX
  8
0
 10
128.002
 20
109.162
 30
0.0
 40
0
 41
0
  0
VERTEX
  8
0
 10
157
 20
109.162
 30
0.0
 40
0
 41
0
  0
VERTEX
  8
0
 10
157
 20
122.828
 30
0.0
 40
0
 41
0
  0
VERTEX
  8
0
 10
154
 20
122.828
 30
0.0
 40
0
 41
0
  0
VERTEX
  8
0
 10
154
 20
131.828
 30
0.0
 40
0
 41
0
  0
VERTEX
  8
0
 10
157
 20
131.828
 30
0.0
 40
0
 41
0
  0
VERTEX
  8
0
 10
157
 20
145.494
 30
0.0
 40
0
 41
0
  0
VERTEX
  8
0
 10
154
 20
145.494
 30
0.0
 40
0
 41
0
  0
VERTEX
  8
0
 10
154
 20
154.494
 30
0.0
 40
0
 41
0
  0
VERTEX
  8
0
 10
157
 20
154.494
 30
0.0
 40
0
 41
0
  0
VERTEX
  8
0
 10
157
 20
168.163
 30
0.0
 40
0
 41
0
  0
VERTEX
  8
0
 10
154
 20
168.163
 30
0.0
 40
0
 41
0
  0
VERTEX
  8
0
 10
154
 20
177.163
 30
0.0
 40
0
 41
0
  0
VERTEX
  8
0
 10
157
 20
177.163
 30
0.0
 40
0
 41
0
  0
VERTEX
  8
0
 10
157
 20
190.829
 30
0.0
 40
0
 41
0
  0
VERTEX
  8
0
 10
154
 20
190.829
 30
0.0
 40
0
 41
0
  0
VERTEX
  8
0
 10
154
 20
199.829
 30
0.0
 40
0
 41
0
  0
VERTEX
  8
0
 10
157
 20
199.829
 30
0.0
 40
0
 41
0
  0
VERTEX
  8
0
 10
157
 20
213.496
 30
0.0
 40
0
 41
0
  0
VERTEX
  8
0
 10
154
 20
213.496
 30
0.0
 40
0
 41
0
  0
VERTEX
  8
0
 10
154
 20
222.496
 30
0.0
 40
0
 41
0
  0
VERTEX
  8
0
 10
157
 20
222.496
 30
0.0
 40
0
 41
0
  0
VERTEX
  8
0
 10
157
 20
236.162
 30
0.0
 40
0
 41
0
  0
VERTEX
  8
0
 10
128.002
 20
236.162
 30
0.0
 40
0
 41
0
  0
VERTEX
  8
0
 10
126.991
 20
236.162
 30
0.0
 40
0
 41
0
  0
VERTEX
  8
0
 10
123.957
 20
236.129
 30
0.0
 40
0
 41
0
  0
VERTEX
  8
0
 10
119.915
 20
236.032
 30
0.0
 40
0
 41
0
  0
VERTEX
  8
0
 10
115.877
 20
235.871
 30
0.0
 40
0
 41
0
  0
VERTEX
  8
0
 10
111.843
 20
235.644
 30
0.0
 40
0
 41
0
  0
VERTEX
  8
0
 10
107.814
 20
235.354
 30
0.0
 40
0
 41
0
  0
VERTEX
  8
0
 10
103.791
 20
234.999
 30
0.0
 40
0
 41
0
  0
VERTEX
  8
0
 10
99.7749
 20
234.579
 30
0.0
 40
0
 41
0
  0
VERTEX
  8
0
 10
95.7661
 20
234.096
 30
0.0
 40
0
 41
0
  0
VERTEX
  8
0
 10
91.7656
 20
233.549
 30
0.0
 40
0
 41
0
  0
VERTEX
  8
0
 10
87.774
 20
232.936
 30
0.0
 40
0
 41
0
  0
VERTEX
  8
0
 10
83.7924
 20
232.261
 30
0.0
 40
0
 41
0
  0
VERTEX
  8
0
 10
79.8212
 20
231.522
 30
0.0
 40
0
 41
0
  0
VERTEX
  8
0
 10
75.8614
 20
230.719
 30
0.0
 40
0
 41
0
  0
VERTEX
  8
0
 10
71.9136
 20
229.854
 30
0.0
 40
0
 41
0
  0
VERTEX
  8
0
 10
67.9786
 20
228.924
 30
0.0
 40
0
 41
0
  0
VERTEX
  8
0
 10
65.0357
 20
228.188
 30
0.0
 40
0
 41
0
  0
VERTEX
  8
0
 10
64.0575
 20
227.931
 30
0.0
 40
0
 41
0
  0
VERTEX
  8
0
 10
0
 20
211.163
 30
0.0
 40
0
 41
0
  0
VERTEX
  8
0
 10
0
 20
198.663
 30
0.0
 40
0
 41
0
  0
VERTEX
  8
0
 10
3
 20
198.663
 30
0.0
 40
0
 41
0
  0
VERTEX
  8
0
 10
3
 20
189.663
 30
0.0
 40
0
 41
0
  0
VERTEX
  8
0
 10
0
 20
189.663
 30
0.0
 40
0
 41
0
  0
VERTEX
  8
0
 10
0
 20
177.163
 30
0.0
 40
0
 41
0
  0
SEQEND
 8
0
  0
POLYLINE
  8
0
 62
     0
 66
     1
 10
0
 20
0
 30
0.0
 70
     1
 40
0
 41
0
  0
VERTEX
  8
0
 10
66.0001
 20
170.663
 30
0.0
 40
0
 41
0
  0
VERTEX
  8
0
 10
66.279
 20
170.663
 30
0.0
 40
0
 41
0
  0
VERTEX
  8
0
 10
67.1158
 20
170.635
 30
0.0
 40
0
 41
0
  0
VERTEX
  8
0
 10
68.224
 20
170.551
 30
0.0
 40
0
 41
0
  0
VERTEX
  8
0
 10
69.3226
 20
170.415
 30
0.0
 40
0
 41
0
  0
VERTEX
  8
0
 10
70.4101
 20
170.225
 30
0.0
 40
0
 41
0
  0
VERTEX
  8
0
 10
71.4844
 20
169.983
 30
0.0
 40
0
 41
0
  0
VERTEX
  8
0
 10
72.5439
 20
169.689
 30
0.0
 40
0
 41
0
  0
VERTEX
  8
0
 10
73.5865
 20
169.344
 30
0.0
 40
0
 41
0
  0
VERTEX
  8
0
 10
74.6104
 20
168.949
 30
0.0
 40
0
 41
0
  0
VERTEX
  8
0
 10
75.6139
 20
168.504
 30
0.0
 40
0
 41
0
  0
VERTEX
  8
0
 10
76.5951
 20
168.011
 30
0.0
 40
0
 41
0
  0
VERTEX
  8
0
 10
77.5521
 20
167.469
 30
0.0
 40
0
 41
0
  0
VERTEX
  8
0
 10
78.4832
 20
166.882
 30
0.0
 40
0
 41
0
  0
VERTEX
  8
0
 10
79.3863
 20
166.247
 30
0.0
 40
0
 41
0
  0
VERTEX
  8
0
 10
80.2597
 20
165.567
 30
0.0
 40
0
 41
0
  0
VERTEX
  8
0
 10
81.1015
 20
164.842
 30
0.0
 40
0
 41
0
  0
VERTEX
  8
0
 10
81.7128
 20
164.269
 30
0.0
 40
0
 41
0
  0
VERTEX
  8
0
 10
81.91
 20
164.072
 30
0.0
 40
0
 41
0
  0
VERTEX
  8
0
 10
82.1072
 20
163.875
 30
0.0
 40
0
 41
0
  0
VERTEX
  8
0
 10
82.6794
 20
163.264
 30
0.0
 40
0
 41
0
  0
VERTEX
  8
0
 10
83.4047
 20
162.421
 30
0.0
 40
0
 41
0
  0
VERTEX
  8
0
 10
84.0851
 20
161.549
 30
0.0
 40
0
 41
0
  0
VERTEX
  8
0
 10
84.7199
 20
160.644
 30
0.0
 40
0
 41
0
  0
VERTEX
  8
0
 10
85.3083
 20
159.714
 30
0.0
 40
0
 41
0
  0
VERTEX
  8
0
 10
85.8494
 20
158.757
 30
0.0
 40
0
 41
0
  0
VERTEX
  8
0
 10
86.3428
 20
157.776
 30
0.0
 40
0
 41
0
  0
VERTEX
  8
0
 10
86.7875
 20
156.772
 30
0.0
 40
0
 41
0
  0
VERTEX
  8
0
 10
87.1826
 20
155.749
 30
0.0
 40
0
 41
0
  0
VERTEX
  8
0
 10
87.5275
 20
154.706
 30
0.0
 40
0
 41
0
  0
VERTEX
  8
0
 10
87.8215
 20
153.646
 30
0.0
 40
0
 41
0
  0
VERTEX
  8
0
 10
88.0637
 20
152.572
 30
0.0
 40
0
 41
0
  0
VERTEX
  8
0
 10
88.2536
 20
151.485
 30
0.0
 40
0
 41
0
  0
VERTEX
  8
0
 10
88.39
 20
150.386
 30
0.0
 40
0
 41
0
  0
VERTEX
  8
0
 10
88.4725
 20
149.278
 30
0.0
 40
0
 41
0
  0
VERTEX
  8
0
 10
88.5001
 20
148.44
 30
0.0
 40
0
 41
0
  0
VERTEX
  8
0
 10
88.5001
 20
148.161
 30
0.0
 40
0
 41
0
  0
VERTEX
  8
0
 10
88.5001
 20
147.883
 30
0.0
 40
0
 41
0
  0
VERTEX
  8
0
 10
88.4725
 20
147.046
 30
0.0
 40
0
 41
0
  0
VERTEX
  8
0
 10
88.39
 20
145.938
 30
0.0
 40
0
 41
0
  0
VERTEX
  8
0
 10
88.2536
 20
144.839
 30
0.0
 40
0
 41
0
  0
VERTEX
  8
0
 10
88.0637
 20
143.751
 30
0.0
 40
0
 41
0
  0
VERTEX
  8
0
 10
87.8215
 20
142.678
 30
0.0
 40
0
 41
0
  0
VERTEX
  8
0
 10
87.5275
 20
141.618
 30
0.0
 40
0
 41
0
  0
VERTEX
  8
0
 10
87.1826
 20
140.575
 30
0.0
 40
0
 41
0
  0
VERTEX
  8
0
 10
86.7875
 20
139.551
 30
0.0
 40
0
 41
0
  0
VERTEX
  8
0
 10
86.3428
 20
138.548
 30
0.0
 40
0
 41
0
  0
VERTEX
  8
0
 10
85.8494
 20
137.567
 30
0.0
 40
0
 41
0
  0
VERTEX
  8
0
 10
85.3083
 20
136.61
 30
0.0
 40
0
 41
0
  0
VERTEX
  8
0
 10
84.7199
 20
135.679
 30
0.0
 40
0
 41
0
  0
VERTEX
  8
0
 10
84.0851
 20
134.776
 30
0.0
 40
0
 41
0
  0
VERTEX
  8
0
 10
83.4047
 20
133.902
 30
0.0
 40
0
 41
0
  0
VERTEX
  8
0
 10
82.6794
 20
133.06
 30
0.0
 40
0
 41
0
  0
VERTEX
  8
0
 10
82.1072
 20
132.449
 30
0.0
 40
0
 41
0
  0
VERTEX
  8
0
 10
81.91
 20
132.252
 30
0.0
 40
0
 41
0
  0
VERTEX
  8
0
 10
81.7128
 20
132.055
 30
0.0
 40
0
 41
0
  0
VERTEX
  8
0
 10
81.1015
 20
131.483
 30
0.0
 40
0
 41
0
  0
VERTEX
  8
0
 10
80.2597
 20
130.757
 30
0.0
 40
0
 41
0
  0
VERTEX
  8
0
 10
79.3863
 20
130.077
 30
0.0
 40
0
 41
0
  0
VERTEX
  8
0
 10
78.4832
 20
129.442
 30
0.0
 40
0
 41
0
  0
VERTEX
  8
0
 10
77.5521
 20
128.854
 30
0.0
 40
0
 41
0
  0
VERTEX
  8
0
 10
76.5951
 20
128.312
 30
0.0
 40
0
 41
0
  0
VERTEX
  8
0
 10
75.6139
 20
127.819
 30
0.0
 40
0
 41
0
  0
VERTEX
  8
0
 10
74.6104
 20
127.374
 30
0.0
 40
0
 41
0
  0
VERTEX
  8
0
 10
73.5865
 20
126.979
 30
0.0
 40
0
 41
0
  0
VERTEX
  8
0
 10
72.5439
 20
126.634
 30
0.0
 40
0
 41
0
  0
VERTEX
  8
0
 10
71.4844
 20
126.34
 30
0.0
 40
0
 41
0
  0
VERTEX
  8
0
 10
70.4101
 20
126.098
 30
0.0
 40
0
 41
0
  0
VERTEX
  8
0
 10
69.3226
 20
125.908
 30
0.0
 40
0
 41
0
  0
VERTEX
  8
0
 10
68.224
 20
125.772
 30
0.0
 40
0
 41
0
  0
VERTEX
  8
0
 10
67.1158
 20
125.689
 30
0.0
 40
0
 41
0
  0
VERTEX
  8
0
 10
66.279
 20
125.662
 30
0.0
 40
0
 41
0
  0
VERTEX
  8
0
 10
66.0001
 20
125.662
 30
0.0
 40
0
 41
0
  0
VERTEX
  8
0
 10
65.7211
 20
125.662
 30
0.0
 40
0
 41
0
  0
VERTEX
  8
0
 10
64.8844
 20
125.689
 30
0.0
 40
0
 41
0
  0
VERTEX
  8
0
 10
63.7763
 20
125.772
 30
0.0
 40
0
 41
0
  0
VERTEX
  8
0
 10
62.6775
 20
125.908
 30
0.0
 40
0
 41
0
  0
VERTEX
  8
0
 10
61.59
 20
126.098
 30
0.0
 40
0
 41
0
  0
VERTEX
  8
0
 10
60.5157
 20
126.34
 30
0.0
 40
0
 41
0
  0
VERTEX
  8
0
 10
59.4563
 20
126.634
 30
0.0
 40
0
 41
0
  0
VERTEX
  8
0
 10
58.4136
 20
126.979
 30
0.0
 40
0
 41
0
  0
VERTEX
  8
0
 10
57.3897
 20
127.374
 30
0.0
 40
0
 41
0
  0
VERTEX
  8
0
 10
56.3861
 20
127.819
 30
0.0
 40
0
 41
0
  0
VERTEX
  8
0
 10
55.405
 20
128.312
 30
0.0
 40
0
 41
0
  0
VERTEX
  8
0
 10
54.4481
 20
128.854
 30
0.0
 40
0
 41
0
  0
VERTEX
  8
0
 10
53.5171
 20
129.442
 30
0.0
 40
0
 41
0
  0
VERTEX
  8
0
 10
52.6139
 20
130.077
 30
0.0
 40
0
 41
0
  0
VERTEX
  8
0
 10
51.7406
 20
130.757
 30
0.0
 40
0
 41
0
  0
VERTEX
  8
0
 10
50.8986
 20
131.483
 30
0.0
 40
0
 41
0
  0
VERTEX
  8
0
 10
50.2874
 20
132.055
 30
0.0
 40
0
 41
0
  0
VERTEX
  8
0
 10
50.0901
 20
132.252
 30
0.0
 40
0
 41
0
  0
VERTEX
  8
0
 10
49.8929
 20
132.449
 30
0.0
 40
0
 41
0
  0
VERTEX
  8
0
 10
49.3207
 20
133.06
 30
0.0
 40
0
 41
0
  0
VERTEX
  8
0
 10
48.5956
 20
133.902
 30
0.0
 40
0
 41
0
  0
VERTEX
  8
0
 10
47.9151
 20
134.776
 30
0.0
 40
0
 41
0
  0
VERTEX
  8
0
 10
47.2803
 20
135.679
 30
0.0
 40
0
 41
0
  0
VERTEX
  8
0
 10
46.6919
 20
136.61
 30
0.0
 40
0
 41
0
  0
VERTEX
  8
0
 10
46.1507
 20
137.567
 30
0.0
 40
0
 41
0
  0
VERTEX
  8
0
 10
45.6574
 20
138.548
 30
0.0
 40
0
 41
0
  0
VERTEX
  8
0
 10
45.2128
 20
139.551
 30
0.0
 40
0
 41
0
  0
VERTEX
  8
0
 10
44.8175
 20
140.575
 30
0.0
 40
0
 41
0
  0
VERTEX
  8
0
 10
44.4726
 20
141.618
 30
0.0
 40
0
 41
0
  0
VERTEX
  8
0
 10
44.1786
 20
142.678
 30
0.0
 40
0
 41
0
  0
VERTEX
  8
0
 10
43.9364
 20
143.751
 30
0.0
 40
0
 41
0
  0
VERTEX
  8
0
 10
43.7465
 20
144.839
 30
0.0
 40
0
 41
0
  0
VERTEX
  8
0
 10
43.6101
 20
145.938
 30
0.0
 40
0
 41
0
  0
VERTEX
  8
0
 10
43.5276
 20
147.046
 30
0.0
 40
0
 41
0
  0
VERTEX
  8
0
 10
43.5
 20
147.883
 30
0.0
 40
0
 41
0
  0
VERTEX
  8
0
 10
43.5
 20
148.161
 30
0.0
 40
0
 41
0
  0
VERTEX
  8
0
 10
43.5
 20
148.44
 30
0.0
 40
0
 41
0
  0
VERTEX
  8
0
 10
43.5276
 20
149.278
 30
0.0
 40
0
 41
0
  0
VERTEX
  8
0
 10
43.6101
 20
150.386
 30
0.0
 40
0
 41
0
  0
VERTEX
  8
0
 10
43.7465
 20
151.485
 30
0.0
 40
0
 41
0
  0
VERTEX
  8
0
 10
43.9364
 20
152.572
 30
0.0
 40
0
 41
0
  0
VERTEX
  8
0
 10
44.1786
 20
153.646
 30
0.0
 40
0
 41
0
  0
VERTEX
  8
0
 10
44.4726
 20
154.706
 30
0.0
 40
0
 41
0
  0
VERTEX
  8
0
 10
44.8175
 20
155.749
 30
0.0
 40
0
 41
0
  0
VERTEX
  8
0
 10
45.2128
 20
156.772
 30
0.0
 40
0
 41
0
  0
VERTEX
  8
0
 10
45.6574
 20
157.776
 30
0.0
 40
0
 41
0
  0
VERTEX
  8
0
 10
46.1507
 20
158.757
 30
0.0
 40
0
 41
0
  0
VERTEX
  8
0
 10
46.6919
 20
159.714
 30
0.0
 40
0
 41
0
  0
VERTEX
  8
0
 10
47.2803
 20
160.644
 30
0.0
 40
0
 41
0
  0
VERTEX
  8
0
 10
47.9151
 20
161.549
 30
0.0
 40
0
 41
0
  0
VERTEX
  8
0
 10
48.5956
 20
162.421
 30
0.0
 40
0
 41
0
  0
VERTEX
  8
0
 10
49.3207
 20
163.264
 30
0.0
 40
0
 41
0
  0
VERTEX
  8
0
 10
49.8929
 20
163.875
 30
0.0
 40
0
 41
0
  0
VERTEX
  8
0
 10
50.0901
 20
164.072
 30
0.0
 40
0
 41
0
  0
VERTEX
  8
0
 10
50.2874
 20
164.269
 30
0.0
 40
0
 41
0
  0
VERTEX
  8
0
 10
50.8986
 20
164.842
 30
0.0
 40
0
 41
0
  0
VERTEX
  8
0
 10
51.7406
 20
165.567
 30
0.0
 40
0
 41
0
  0
VERTEX
  8
0
 10
52.6139
 20
166.247
 30
0.0
 40
0
 41
0
  0
VERTEX
  8
0
 10
53.5171
 20
166.882
 30
0.0
 40
0
 41
0
  0
VERTEX
  8
0
 10
54.4481
 20
167.469
 30
0.0
 40
0
 41
0
  0
VERTEX
  8
0
 10
55.405
 20
168.011
 30
0.0
 40
0
 41
0
  0
VERTEX
  8
0
 10
56.3861
 20
168.504
 30
0.0
 40
0
 41
0
  0
VERTEX
  8
0
 10
57.3897
 20
168.949
 30
0.0
 40
0
 41
0
  0
VERTEX
  8
0
 10
58.4136
 20
169.344
 30
0.0
 40
0
 41
0
  0
VERTEX
  8
0
 10
59.4563
 20
169.689
 30
0.0
 40
0
 41
0
  0
VERTEX
  8
0
 10
60.5157
 20
169.983
 30
0.0
 40
0
 41
0
  0
VERTEX
  8
0
 10
61.59
 20
170.225
 30
0.0
 40
0
 41
0
  0
VERTEX
  8
0
 10
62.6775
 20
170.415
 30
0.0
 40
0
 41
0
  0
VERTEX
  8
0
 10
63.7763
 20
170.551
 30
0.0
 40
0
 41
0
  0
VERTEX
  8
0
 10
64.8844
 20
170.635
 30
0.0
 40
0
 41
0
  0
VERTEX
  8
0
 10
65.7211
 20
170.663
 30
0.0
 40
0
 41
0
  0
VERTEX
  8
0
 10
66.0001
 20
170.663
 30
0.0
 40
0
 41
0
  0
SEQEND
 8
0
  0
POLYLINE
  8
0
 62
     0
 66
     1
 10
0
 20
0
 30
0.0
 70
     1
 40
0
 41
0
  0
VERTEX
  8
0
 10
121.25
 20
232.162
 30
0.0
 40
0
 41
0
  0
VERTEX
  8
0
 10
121.429
 20
232.162
 30
0.0
 40
0
 41
0
  0
VERTEX
  8
0
 10
121.964
 20
232.153
 30
0.0
 40
0
 41
0
  0
VERTEX
  8
0
 10
122.676
 20
232.126
 30
0.0
 40
0
 41
0
  0
VERTEX
  8
0
 10
123.385
 20
232.082
 30
0.0
 40
0
 41
0
  0
VERTEX
  8
0
 10
124.092
 20
232.021
 30
0.0
 40
0
 41
0
  0
VERTEX
  8
0
 10
124.795
 20
231.943
 30
0.0
 40
0
 41
0
  0
VERTEX
  8
0
 10
125.496
 20
231.847
 30
0.0
 40
0
 41
0
  0
VERTEX
  8
0
 10
126.192
 20
231.735
 30
0.0
 40
0
 41
0
  0
VERTEX
  8
0
 10
126.885
 20
231.604
 30
0.0
 40
0
 41
0
  0
VERTEX
  8
0
 10
127.574
 20
231.458
 30
0.0
 40
0
 41
0
  0
VERTEX
  8
0
 10
128.258
 20
231.294
 30
0.0
 40
0
 41
0
  0
VERTEX
  8
0
 10
128.937
 20
231.115
 30
0.0
 40
0
 41
0
  0
VERTEX
  8
0
 10
129.612
 20
230.919
 30
0.0
 40
0
 41
0
  0
VERTEX
  8
0
 10
130.281
 20
230.707
 30
0.0
 40
0
 41
0
  0
VERTEX
  8
0
 10
130.944
 20
230.478
 30
0.0
 40
0
 41
0
  0
VERTEX
  8
0
 10
131.601
 20
230.233
 30
0.0
 40
0
 41
0
  0
VERTEX
  8
0
 10
132.252
 20
229.974
 30
0.0
 40
0
 41
0
  0
VERTEX
  8
0
 10
132.897
 20
229.697
 30
0.0
 40
0
 41
0
  0
VERTEX
  8
0
 10
133.535
 20
229.406
 30
0.0
 40
0
 41
0
  0
VERTEX
  8
0
 10
134.165
 20
229.097
 30
0.0
 40
0
 41
0
  0
VERTEX
  8
0
 10
134.788
 20
228.775
 30
0.0
 40
0
 41
0
  0
VERTEX
  8
0
 10
135.404
 20
228.436
 30
0.0
 40
0
 41
0
  0
VERTEX
  8
0
 10
136.011
 20
228.083
 30
0.0
 40
0
 41
0
  0
VERTEX
  8
0
 10
136.61
 20
227.715
 30
0.0
 40
0
 41
0
  0
VERTEX
  8
0
 10
137.201
 20
227.332
 30
0.0
 40
0
 41
0
  0
VERTEX
  8
0
 10
137.782
 20
226.933
 30
0.0
 40
0
 41
0
  0
VERTEX
  8
0
 10
138.355
 20
226.521
 30
0.0
 40
0
 41
0
  0
VERTEX
  8
0
 10
138.918
 20
226.093
 30
0.0
 40
0
 41
0
  0
VERTEX
  8
0
 10
139.471
 20
225.651
 30
0.0
 40
0
 41
0
  0
VERTEX
  8
0
 10
140.014
 20
225.194
 30
0.0
 40
0
 41
0
  0
VERTEX
  8
0
 10
140.546
 20
224.725
 30
0.0
 40
0
 41
0
  0
VERTEX
  8
0
 10
141.068
 20
224.24
 30
0.0
 40
0
 41
0
  0
VERTEX
  8
0
 10
141.453
 20
223.868
 30
0.0
 40
0
 41
0
  0
VERTEX
  8
0
 10
141.579
 20
223.742
 30
0.0
 40
0
 41
0
  0
VERTEX
  8
0
 10
141.706
 20
223.615
 30
0.0
 40
0
 41
0
  0
VERTEX
  8
0
 10
142.078
 20
223.231
 30
0.0
 40
0
 41
0
  0
VERTEX
  8
0
 10
142.563
 20
222.708
 30
0.0
 40
0
 41
0
  0
VERTEX
  8
0
 10
143.033
 20
222.175
 30
0.0
 40
0
 41
0
  0
VERTEX
  8
0
 10
143.489
 20
221.632
 30
0.0
 40
0
 41
0
  0
VERTEX
  8
0
 10
143.932
 20
221.079
 30
0.0
 40
0
 41
0
  0
VERTEX
  8
0
 10
144.358
 20
220.517
 30
0.0
 40
0
 41
0
  0
VERTEX
  8
0
 10
144.772
 20
219.944
 30
0.0
 40
0
 41
0
  0
VERTEX
  8
0
 10
145.169
 20
219.362
 30
0.0
 40
0
 41
0
  0
VERTEX
  8
0
 10
145.553
 20
218.772
 30
0.0
 40
0
 41
0
  0
VERTEX
  8
0
 10
145.922
 20
218.172
 30
0.0
 40
0
 41
0
  0
VERTEX
  8
0
 10
146.275
 20
217.565
 30
0.0
 40
0
 41
0
  0
VERTEX
  8
0
 10
146.614
 20
216.95
 30
0.0
 40
0
 41
0
  0
VERTEX
  8
0
 10
146.936
 20
216.326
 30
0.0
 40
0
 41
0
  0
VERTEX
  8
0
 10
147.243
 20
215.696
 30
0.0
 40
0
 41
0
  0
VERTEX
  8
0
 10
147.536
 20
215.058
 30
0.0
 40
0
 41
0
  0
VERTEX
  8
0
 10
147.811
 20
214.414
 30
0.0
 40
0
 41
0
  0
VERTEX
  8
0
 10
148.072
 20
213.763
 30
0.0
 40
0
 41
0
  0
VERTEX
  8
0
 10
148.317
 20
213.106
 30
0.0
 40
0
 41
0
  0
VERTEX
  8
0
 10
148.546
 20
212.443
 30
0.0
 40
0
 41
0
  0
VERTEX
  8
0
 10
148.757
 20
211.774
 30
0.0
 40
0
 41
0
  0
VERTEX
  8
0
 10
148.954
 20
211.099
 30
0.0
 40
0
 41
0
  0
VERTEX
  8
0
 10
149.133
 20
210.419
 30
0.0
 40
0
 41
0
  0
VERTEX
  8
0
 10
149.296
 20
209.736
 30
0.0
 40
0
 41
0
  0
VERTEX
  8
0
 10
149.443
 20
209.047
 30
0.0
 40
0
 41
0
  0
VERTEX
  8
0
 10
149.572
 20
208.354
 30
0.0
 40
0
 41
0
  0
VERTEX
  8
0
 10
149.685
 20
207.657
 30
0.0
 40
0
 41
0
  0
VERTEX
  8
0
 10
149.781
 20
206.957
 30
0.0
 40
0
 41
0
  0
VERTEX
  8
0
 10
149.86
 20
206.254
 30
0.0
 40
0
 41
0
  0
VERTEX
  8
0
 10
149.921
 20
205.547
 30
0.0
 40
0
 41
0
  0
VERTEX
  8
0
 10
149.965
 20
204.837
 30
0.0
 40
0
 41
0
  0
VERTEX
  8
0
 10
149.992
 20
204.126
 30
0.0
 40
0
 41
0
  0
VERTEX
  8
0
 10
150
 20
203.59
 30
0.0
 40
0
 41
0
  0
VERTEX
  8
0
 10
150
 20
203.413
 30
0.0
 40
0
 41
0
  0
VERTEX
  8
0
 10
150
 20
203.233
 30
0.0
 40
0
 41
0
  0
VERTEX
  8
0
 10
149.992
 20
202.699
 30
0.0
 40
0
 41
0
  0
VERTEX
  8
0
 10
149.965
 20
201.986
 30
0.0
 40
0
 41
0
  0
VERTEX
  8
0
 10
149.921
 20
201.276
 30
0.0
 40
0
 41
0
  0
VERTEX
  8
0
 10
149.86
 20
200.571
 30
0.0
 40
0
 41
0
  0
VERTEX
  8
0
 10
149.781
 20
199.867
 30
0.0
 40
0
 41
0
  0
VERTEX
  8
0
 10
149.685
 20
199.167
 30
0.0
 40
0
 41
0
  0
VERTEX
  8
0
 10
149.572
 20
198.469
 30
0.0
 40
0
 41
0
  0
VERTEX
  8
0
 10
149.443
 20
197.776
 30
0.0
 40
0
 41
0
  0
VERTEX
  8
0
 10
149.296
 20
197.089
 30
0.0
 40
0
 41
0
  0
VERTEX
  8
0
 10
149.133
 20
196.404
 30
0.0
 40
0
 41
0
  0
VERTEX
  8
0
 10
148.954
 20
195.725
 30
0.0
 40
0
 41
0
  0
VERTEX
  8
0
 10
148.757
 20
195.05
 30
0.0
 40
0
 41
0
  0
VERTEX
  8
0
 10
148.546
 20
194.382
 30
0.0
 40
0
 41
0
  0
VERTEX
  8
0
 10
148.317
 20
193.718
 30
0.0
 40
0
 41
0
  0
VERTEX
  8
0
 10
148.072
 20
193.061
 30
0.0
 40
0
 41
0
  0
VERTEX
  8
0
 10
147.811
 20
192.41
 30
0.0
 40
0
 41
0
  0
VERTEX
  8
0
 10
147.536
 20
191.765
 30
0.0
 40
0
 41
0
  0
VERTEX
  8
0
 10
147.243
 20
191.128
 30
0.0
 40
0
 41
0
  0
VERTEX
  8
0
 10
146.936
 20
190.497
 30
0.0
 40
0
 41
0
  0
VERTEX
  8
0
 10
146.614
 20
189.874
 30
0.0
 40
0
 41
0
  0
VERTEX
  8
0
 10
146.275
 20
189.258
 30
0.0
 40
0
 41
0
  0
VERTEX
  8
0
 10
145.922
 20
188.651
 30
0.0
 40
0
 41
0
  0
VERTEX
  8
0
 10
145.553
 20
188.051
 30
0.0
 40
0
 41
0
  0
VERTEX
  8
0
 10
145.169
 20
187.461
 30
0.0
 40
0
 41
0
  0
VERTEX
  8
0
 10
144.772
 20
186.879
 30
0.0
 40
0
 41
0
  0
VERTEX
  8
0
 10
144.358
 20
186.307
 30
0.0
 40
0
 41
0
  0
VERTEX
  8
0
 10
143.932
 20
185.744
 30
0.0
 40
0
 41
0
  0
VERTEX
  8
0
 10
143.489
 20
185.192
 30
0.0
 40
0
 41
0
  0
VERTEX
  8
0
 10
143.033
 20
184.649
 30
0.0
 40
0
 41
0
  0
VERTEX
  8
0
 10
142.563
 20
184.115
 30
0.0
 40
0
 41
0
  0
VERTEX
  8
0
 10
142.078
 20
183.593
 30
0.0
 40
0
 41
0
  0
VERTEX
  8
0
 10
141.706
 20
183.208
 30
0.0
 40
0
 41
0
  0
VERTEX
  8
0
 10
141.579
 20
183.082
 30
0.0
 40
0
 41
0
  0
VERTEX
  8
0
 10
141.453
 20
182.957
 30
0.0
 40
0
 41
0
  0
VERTEX
  8
0
 10
141.068
 20
182.585
 30
0.0
 40
0
 41
0
  0
VERTEX
  8
0
 10
140.546
 20
182.1
 30
0.0
 40
0
 41
0
  0
VERTEX
  8
0
 10
140.014
 20
181.629
 30
0.0
 40
0
 41
0
  0
VERTEX
  8
0
 10
139.471
 20
181.172
 30
0.0
 40
0
 41
0
  0
VERTEX
  8
0
 10
138.918
 20
180.731
 30
0.0
 40
0
 41
0
  0
VERTEX
  8
0
 10
138.355
 20
180.303
 30
0.0
 40
0
 41
0
  0
VERTEX
  8
0
 10
137.782
 20
179.89
 30
0.0
 40
0
 41
0
  0
VERTEX
  8
0
 10
137.201
 20
179.492
 30
0.0
 40
0
 41
0
  0
VERTEX
  8
0
 10
136.61
 20
179.108
 30
0.0
 40
0
 41
0
  0
VERTEX
  8
0
 10
136.011
 20
178.74
 30
0.0
 40
0
 41
0
  0
VERTEX
  8
0
 10
135.404
 20
178.388
 30
0.0
 40
0
 41
0
  0
VERTEX
  8
0
 10
134.788
 20
178.049
 30
0.0
 40
0
 41
0
  0
VERTEX
  8
0
 10
134.165
 20
177.726
 30
0.0
 40
0
 41
0
  0
VERTEX
  8
0
 10
133.535
 20
177.418
 30
0.0
 40
0
 41
0
  0
VERTEX
  8
0
 10
132.897
 20
177.126
 30
0.0
 40
0
 41
0
  0
VERTEX
  8
0
 10
132.252
 20
176.85
 30
0.0
 40
0
 41
0
  0
VERTEX
  8
0
 10
131.601
 20
176.59
 30
0.0
 40
0
 41
0
  0
VERTEX
  8
0
 10
130.944
 20
176.346
 30
0.0
 40
0
 41
0
  0
VERTEX
  8
0
 10
130.281
 20
176.117
 30
0.0
 40
0
 41
0
  0
VERTEX
  8
0
 10
129.612
 20
175.904
 30
0.0
 40
0
 41
0
  0
VERTEX
  8
0
 10
128.937
 20
175.708
 30
0.0
 40
0
 41
0
  0
VERTEX
  8
0
 10
128.258
 20
175.529
 30
0.0
 40
0
 41
0
  0
VERTEX
  8
0
 10
127.574
 20
175.365
 30
0.0
 40
0
 41
0
  0
VERTEX
  8
0
 10
126.885
 20
175.219
 30
0.0
 40
0
 41
0
  0
VERTEX
  8
0
 10
126.192
 20
175.09
 30
0.0
 40
0
 41
0
  0
VERTEX
  8
0
 10
125.496
 20
174.976
 30
0.0
 40
0
 41
0
  0
VERTEX
  8
0
 10
124.795
 20
174.881
 30
0.0
 40
0
 41
0
  0
VERTEX
  8
0
 10
124.092
 20
174.803
 30
0.0
 40
0
 41
0
  0
VERTEX
  8
0
 10
123.385
 20
174.742
 30
0.0
 40
0
 41
0
  0
VERTEX
  8
0
 10
122.676
 20
174.697
 30
0.0
 40
0
 41
0
  0
VERTEX
  8
0
 10
121.964
 20
174.671
 30
0.0
 40
0
 41
0
  0
VERTEX
  8
0
 10
121.429
 20
174.663
 30
0.0
 40
0
 41
0
  0
VERTEX
  8
0
 10
121.25
 20
174.663
 30
0.0
 40
0
 41
0
  0
VERTEX
  8
0
 10
121.072
 20
174.663
 30
0.0
 40
0
 41
0
  0
VERTEX
  8
0
 10
120.536
 20
174.671
 30
0.0
 40
0
 41
0
  0
VERTEX
  8
0
 10
119.824
 20
174.697
 30
0.0
 40
0
 41
0
  0
VERTEX
  8
0
 10
119.115
 20
174.742
 30
0.0
 40
0
 41
0
  0
VERTEX
  8
0
 10
118.409
 20
174.803
 30
0.0
 40
0
 41
0
  0
VERTEX
  8
0
 10
117.705
 20
174.881
 30
0.0
 40
0
 41
0
  0
VERTEX
  8
0
 10
117.005
 20
174.976
 30
0.0
 40
0
 41
0
  0
VERTEX
  8
0
 10
116.308
 20
175.09
 30
0.0
 40
0
 41
0
  0
VERTEX
  8
0
 10
115.615
 20
175.219
 30
0.0
 40
0
 41
0
  0
VERTEX
  8
0
 10
114.927
 20
175.365
 30
0.0
 40
0
 41
0
  0
VERTEX
  8
0
 10
114.242
 20
175.529
 30
0.0
 40
0
 41
0
  0
VERTEX
  8
0
 10
113.563
 20
175.708
 30
0.0
 40
0
 41
0
  0
VERTEX
  8
0
 10
112.889
 20
175.904
 30
0.0
 40
0
 41
0
  0
VERTEX
  8
0
 10
112.22
 20
176.117
 30
0.0
 40
0
 41
0
  0
VERTEX
  8
0
 10
111.556
 20
176.346
 30
0.0
 40
0
 41
0
  0
VERTEX
  8
0
 10
110.899
 20
176.59
 30
0.0
 40
0
 41
0
  0
VERTEX
  8
0
 10
110.248
 20
176.85
 30
0.0
 40
0
 41
0
  0
VERTEX
  8
0
 10
109.603
 20
177.126
 30
0.0
 40
0
 41
0
  0
VERTEX
  8
0
 10
108.966
 20
177.418
 30
0.0
 40
0
 41
0
  0
VERTEX
  8
0
 10
108.335
 20
177.726
 30
0.0
 40
0
 41
0
  0
VERTEX
  8
0
 10
107.712
 20
178.049
 30
0.0
 40
0
 41
0
  0
VERTEX
  8
0
 10
107.097
 20
178.388
 30
0.0
 40
0
 41
0
  0
VERTEX
  8
0
 10
106.489
 20
178.74
 30
0.0
 40
0
 41
0
  0
VERTEX
  8
0
 10
105.89
 20
179.108
 30
0.0
 40
0
 41
0
  0
VERTEX
  8
0
 10
105.3
 20
179.492
 30
0.0
 40
0
 41
0
  0
VERTEX
  8
0
 10
104.718
 20
179.89
 30
0.0
 40
0
 41
0
  0
VERTEX
  8
0
 10
104.146
 20
180.303
 30
0.0
 40
0
 41
0
  0
VERTEX
  8
0
 10
103.583
 20
180.731
 30
0.0
 40
0
 41
0
  0
VERTEX
  8
0
 10
103.03
 20
181.172
 30
0.0
 40
0
 41
0
  0
VERTEX
  8
0
 10
102.487
 20
181.629
 30
0.0
 40
0
 41
0
  0
VERTEX
  8
0
 10
101.954
 20
182.1
 30
0.0
 40
0
 41
0
  0
VERTEX
  8
0
 10
101.432
 20
182.585
 30
0.0
 40
0
 41
0
  0
VERTEX
  8
0
 10
101.047
 20
182.957
 30
0.0
 40
0
 41
0
  0
VERTEX
  8
0
 10
100.921
 20
183.082
 30
0.0
 40
0
 41
0
  0
VERTEX
  8
0
 10
100.795
 20
183.208
 30
0.0
 40
0
 41
0
  0
VERTEX
  8
0
 10
100.422
 20
183.593
 30
0.0
 40
0
 41
0
  0
VERTEX
  8
0
 10
99.9378
 20
184.115
 30
0.0
 40
0
 41
0
  0
VERTEX
  8
0
 10
99.4672
 20
184.649
 30
0.0
 40
0
 41
0
  0
VERTEX
  8
0
 10
99.011
 20
185.192
 30
0.0
 40
0
 41
0
  0
VERTEX
  8
0
 10
98.569
 20
185.744
 30
0.0
 40
0
 41
0
  0
VERTEX
  8
0
 10
98.1415
 20
186.307
 30
0.0
 40
0
 41
0
  0
VERTEX
  8
0
 10
97.7286
 20
186.879
 30
0.0
 40
0
 41
0
  0
VERTEX
  8
0
 10
97.3304
 20
187.461
 30
0.0
 40
0
 41
0
  0
VERTEX
  8
0
 10
96.9471
 20
188.051
 30
0.0
 40
0
 41
0
  0
VERTEX
  8
0
 10
96.5786
 20
188.651
 30
0.0
 40
0
 41
0
  0
VERTEX
  8
0
 10
96.2253
 20
189.258
 30
0.0
 40
0
 41
0
  0
VERTEX
  8
0
 10
95.8871
 20
189.874
 30
0.0
 40
0
 41
0
  0
VERTEX
  8
0
 10
95.5642
 20
190.497
 30
0.0
 40
0
 41
0
  0
VERTEX
  8
0
 10
95.2567
 20
191.128
 30
0.0
 40
0
 41
0
  0
VERTEX
  8
0
 10
94.9647
 20
191.765
 30
0.0
 40
0
 41
0
  0
VERTEX
  8
0
 10
94.6886
 20
192.41
 30
0.0
 40
0
 41
0
  0
VERTEX
  8
0
 10
94.4282
 20
193.061
 30
0.0
 40
0
 41
0
  0
VERTEX
  8
0
 10
94.1836
 20
193.718
 30
0.0
 40
0
 41
0
  0
VERTEX
  8
0
 10
93.9551
 20
194.382
 30
0.0
 40
0
 41
0
  0
VERTEX
  8
0
 10
93.7428
 20
195.05
 30
0.0
 40
0
 41
0
  0
VERTEX
  8
0
 10
93.5468
 20
195.725
 30
0.0
 40
0
 41
0
  0
VERTEX
  8
0
 10
93.3672
 20
196.404
 30
0.0
 40
0
 41
0
  0
VERTEX
  8
0
 10
93.2042
 20
197.089
 30
0.0
 40
0
 41
0
  0
VERTEX
  8
0
 10
93.0576
 20
197.776
 30
0.0
 40
0
 41
0
  0
VERTEX
  8
0
 10
92.9281
 20
198.469
 30
0.0
 40
0
 41
0
  0
VERTEX
  8
0
 10
92.8153
 20
199.167
 30
0.0
 40
0
 41
0
  0
VERTEX
  8
0
 10
92.7194
 20
199.867
 30
0.0
 40
0
 41
0
  0
VERTEX
  8
0
 10
92.6408
 20
200.571
 30
0.0
 40
0
 41
0
  0
VERTEX
  8
0
 10
92.5794
 20
201.276
 30
0.0
 40
0
 41
0
  0
VERTEX
  8
0
 10
92.5354
 20
201.986
 30
0.0
 40
0
 41
0
  0
VERTEX
  8
0
 10
92.509
 20
202.699
 30
0.0
 40
0
 41
0
  0
VERTEX
  8
0
 10
92.5001
 20
203.233
 30
0.0
 40
0
 41
0
  0
VERTEX
  8
0
 10
92.5001
 20
203.413
 30
0.0
 40
0
 41
0
  0
VERTEX
  8
0
 10
92.5001
 20
203.59
 30
0.0
 40
0
 41
0
  0
VERTEX
  8
0
 10
92.509
 20
204.126
 30
0.0
 40
0
 41
0
  0
VERTEX
  8
0
 10
92.5354
 20
204.837
 30
0.0
 40
0
 41
0
  0
VERTEX
  8
0
 10
92.5794
 20
205.547
 30
0.0
 40
0
 41
0
  0
VERTEX
  8
0
 10
92.6408
 20
206.254
 30
0.0
 40
0
 41
0
  0
VERTEX
  8
0
 10
92.7194
 20
206.957
 30
0.0
 40
0
 41
0
  0
VERTEX
  8
0
 10
92.8153
 20
207.657
 30
0.0
 40
0
 41
0
  0
VERTEX
  8
0
 10
92.9281
 20
208.354
 30
0.0
 40
0
 41
0
  0
VERTEX
  8
0
 10
93.0576
 20
209.047
 30
0.0
 40
0
 41
0
  0
VERTEX
  8
0
 10
93.2042
 20
209.736
 30
0.0
 40
0
 41
0
  0
VERTEX
  8
0
 10
93.3672
 20
210.419
 30
0.0
 40
0
 41
0
  0
VERTEX
  8
0
 10
93.5468
 20
211.099
 30
0.0
 40
0
 41
0
  0
VERTEX
  8
0
 10
93.7428
 20
211.774
 30
0.0
 40
0
 41
0
  0
VERTEX
  8
0
 10
93.9551
 20
212.443
 30
0.0
 40
0
 41
0
  0
VERTEX
  8
0
 10
94.1836
 20
213.106
 30
0.0
 40
0
 41
0
  0
VERTEX
  8
0
 10
94.4282
 20
213.763
 30
0.0
 40
0
 41
0
  0
VERTEX
  8
0
 10
94.6886
 20
214.414
 30
0.0
 40
0
 41
0
  0
VERTEX
  8
0
 10
94.9647
 20
215.058
 30
0.0
 40
0
 41
0
  0
VERTEX
  8
0
 10
95.2567
 20
215.696
 30
0.0
 40
0
 41
0
  0
VERTEX
  8
0
 10
95.5642
 20
216.326
 30
0.0
 40
0
 41
0
  0
VERTEX
  8
0
 10
95.8871
 20
216.95
 30
0.0
 40
0
 41
0
  0
VERTEX
  8
0
 10
96.2253
 20
217.565
 30
0.0
 40
0
 41
0
  0
VERTEX
  8
0
 10
96.5786
 20
218.172
 30
0.0
 40
0
 41
0
  0
VERTEX
  8
0
 10
96.9471
 20
218.772
 30
0.0
 40
0
 41
0
  0
VERTEX
  8
0
 10
97.3304
 20
219.362
 30
0.0
 40
0
 41
0
  0
VERTEX
  8
0
 10
97.7286
 20
219.944
 30
0.0
 40
0
 41
0
  0
VERTEX
  8
0
 10
98.1415
 20
220.517
 30
0.0
 40
0
 41
0
  0
VERTEX
  8
0
 10
98.569
 20
221.079
 30
0.0
 40
0
 41
0
  0
VERTEX
  8
0
 10
99.011
 20
221.632
 30
0.0
 40
0
 41
0
  0
VERTEX
  8
0
 10
99.4672
 20
222.175
 30
0.0
 40
0
 41
0
  0
VERTEX
  8
0
 10
99.9378
 20
222.708
 30
0.0
 40
0
 41
0
  0
VERTEX
  8
0
 10
100.422
 20
223.231
 30
0.0
 40
0
 41
0
  0
VERTEX
  8
0
 10
100.795
 20
223.615
 30
0.0
 40
0
 41
0
  0
VERTEX
  8
0
 10
100.921
 20
223.742
 30
0.0
 40
0
 41
0
  0
VERTEX
  8
0
 10
101.047
 20
223.868
 30
0.0
 40
0
 41
0
  0
VERTEX
  8
0
 10
101.432
 20
224.24
 30
0.0
 40
0
 41
0
  0
VERTEX
  8
0
 10
101.954
 20
224.725
 30
0.0
 40
0
 41
0
  0
VERTEX
  8
0
 10
102.487
 20
225.194
 30
0.0
 40
0
 41
0
  0
VERTEX
  8
0
 10
103.03
 20
225.651
 30
0.0
 40
0
 41
0
  0
VERTEX
  8
0
 10
103.583
 20
226.093
 30
0.0
 40
0
 41
0
  0
VERTEX
  8
0
 10
104.146
 20
226.521
 30
0.0
 40
0
 41
0
  0
VERTEX
  8
0
 10
104.718
 20
226.933
 30
0.0
 40
0
 41
0
  0
VERTEX
  8
0
 10
105.3
 20
227.332
 30
0.0
 40
0
 41
0
  0
VERTEX
  8
0
 10
105.89
 20
227.715
 30
0.0
 40
0
 41
0
  0
VERTEX
  8
0
 10
106.489
 20
228.083
 30
0.0
 40
0
 41
0
  0
VERTEX
  8
0
 10
107.097
 20
228.436
 30
0.0
 40
0
 41
0
  0
VERTEX
  8
0
 10
107.712
 20
228.775
 30
0.0
 40
0
 41
0
  0
VERTEX
  8
0
 10
108.335
 20
229.097
 30
0.0
 40
0
 41
0
  0
VERTEX
  8
0
 10
108.966
 20
229.406
 30
0.0
 40
0
 41
0
  0
VERTEX
  8
0
 10
109.603
 20
229.697
 30
0.0
 40
0
 41
0
  0
VERTEX
  8
0
 10
110.248
 20
229.974
 30
0.0
 40
0
 41
0
  0
VERTEX
  8
0
 10
110.899
 20
230.233
 30
0.0
 40
0
 41
0
  0
VERTEX
  8
0
 10
111.556
 20
230.478
 30
0.0
 40
0
 41
0
  0
VERTEX
  8
0
 10
112.22
 20
230.707
 30
0.0
 40
0
 41
0
  0
VERTEX
  8
0
 10
112.889
 20
230.919
 30
0.0
 40
0
 41
0
  0
VERTEX
  8
0
 10
113.563
 20
231.115
 30
0.0
 40
0
 41
0
  0
VERTEX
  8
0
 10
114.242
 20
231.294
 30
0.0
 40
0
 41
0
  0
VERTEX
  8
0
 10
114.927
 20
231.458
 30
0.0
 40
0
 41
0
  0
VERTEX
  8
0
 10
115.615
 20
231.604
 30
0.0
 40
0
 41
0
  0
VERTEX
  8
0
 10
116.308
 20
231.735
 30
0.0
 40
0
 41
0
  0
VERTEX
  8
0
 10
117.005
 20
231.847
 30
0.0
 40
0
 41
0
  0
VERTEX
  8
0
 10
117.705
 20
231.943
 30
0.0
 40
0
 41
0
  0
VERTEX
  8
0
 10
118.409
 20
232.021
 30
0.0
 40
0
 41
0
  0
VERTEX
  8
0
 10
119.115
 20
232.082
 30
0.0
 40
0
 41
0
  0
VERTEX
  8
0
 10
119.824
 20
232.126
 30
0.0
 40
0
 41
0
  0
VERTEX
  8
0
 10
120.536
 20
232.153
 30
0.0
 40
0
 41
0
  0
VERTEX
  8
0
 10
121.072
 20
232.162
 30
0.0
 40
0
 41
0
  0
VERTEX
  8
0
 10
121.25
 20
232.162
 30
0.0
 40
0
 41
0
  0
SEQEND
 8
0
  0
POLYLINE
  8
0
 62
     0
 66
     1
 10
0
 20
0
 30
0.0
 70
     1
 40
0
 41
0
  0
VERTEX
  8
0
 10
66.0001
 20
219.663
 30
0.0
 40
0
 41
0
  0
VERTEX
  8
0
 10
66.279
 20
219.663
 30
0.0
 40
0
 41
0
  0
VERTEX
  8
0
 10
67.1158
 20
219.635
 30
0.0
 40
0
 41
0
  0
VERTEX
  8
0
 10
68.224
 20
219.551
 30
0.0
 40
0
 41
0
  0
VERTEX
  8
0
 10
69.3226
 20
219.415
 30
0.0
 40
0
 41
0
  0
VERTEX
  8
0
 10
70.4101
 20
219.225
 30
0.0
 40
0
 41
0
  0
VERTEX
  8
0
 10
71.4844
 20
218.983
 30
0.0
 40
0
 41
0
  0
VERTEX
  8
0
 10
72.5439
 20
218.689
 30
0.0
 40
0
 41
0
  0
VERTEX
  8
0
 10
73.5865
 20
218.344
 30
0.0
 40
0
 41
0
  0
VERTEX
  8
0
 10
74.6104
 20
217.949
 30
0.0
 40
0
 41
0
  0
VERTEX
  8
0
 10
75.6139
 20
217.504
 30
0.0
 40
0
 41
0
  0
VERTEX
  8
0
 10
76.5951
 20
217.011
 30
0.0
 40
0
 41
0
  0
VERTEX
  8
0
 10
77.5521
 20
216.469
 30
0.0
 40
0
 41
0
  0
VERTEX
  8
0
 10
78.4832
 20
215.882
 30
0.0
 40
0
 41
0
  0
VERTEX
  8
0
 10
79.3863
 20
215.247
 30
0.0
 40
0
 41
0
  0
VERTEX
  8
0
 10
80.2597
 20
214.567
 30
0.0
 40
0
 41
0
  0
VERTEX
  8
0
 10
81.1015
 20
213.842
 30
0.0
 40
0
 41
0
  0
VERTEX
  8
0
 10
81.7128
 20
213.269
 30
0.0
 40
0
 41
0
  0
VERTEX
  8
0
 10
81.91
 20
213.072
 30
0.0
 40
0
 41
0
  0
VERTEX
  8
0
 10
82.1072
 20
212.875
 30
0.0
 40
0
 41
0
  0
VERTEX
  8
0
 10
82.6794
 20
212.264
 30
0.0
 40
0
 41
0
  0
VERTEX
  8
0
 10
83.4047
 20
211.421
 30
0.0
 40
0
 41
0
  0
VERTEX
  8
0
 10
84.0851
 20
210.549
 30
0.0
 40
0
 41
0
  0
VERTEX
  8
0
 10
84.7199
 20
209.644
 30
0.0
 40
0
 41
0
  0
VERTEX
  8
0
 10
85.3083
 20
208.714
 30
0.0
 40
0
 41
0
  0
VERTEX
  8
0
 10
85.8494
 20
207.757
 30
0.0
 40
0
 41
0
  0
VERTEX
  8
0
 10
86.3428
 20
206.776
 30
0.0
 40
0
 41
0
  0
VERTEX
  8
0
 10
86.7875
 20
205.772
 30
0.0
 40
0
 41
0
  0
VERTEX
  8
0
 10
87.1826
 20
204.749
 30
0.0
 40
0
 41
0
  0
VERTEX
  8
0
 10
87.5275
 20
203.706
 30
0.0
 40
0
 41
0
  0
VERTEX
  8
0
 10
87.8215
 20
202.646
 30
0.0
 40
0
 41
0
  0
VERTEX
  8
0
 10
88.0637
 20
201.572
 30
0.0
 40
0
 41
0
  0
VERTEX
  8
0
 10
88.2536
 20
200.485
 30
0.0
 40
0
 41
0
  0
VERTEX
  8
0
 10
88.39
 20
199.386
 30
0.0
 40
0
 41
0
  0
VERTEX
  8
0
 10
88.4725
 20
198.278
 30
0.0
 40
0
 41
0
  0
VERTEX
  8
0
 10
88.5001
 20
197.44
 30
0.0
 40
0
 41
0
  0
VERTEX
  8
0
 10
88.5001
 20
197.163
 30
0.0
 40
0
 41
0
  0
VERTEX
  8
0
 10
88.5001
 20
196.883
 30
0.0
 40
0
 41
0
  0
VERTEX
  8
0
 10
88.4725
 20
196.046
 30
0.0
 40
0
 41
0
  0
VERTEX
  8
0
 10
88.39
 20
194.938
 30
0.0
 40
0
 41
0
  0
VERTEX
  8
0
 10
88.2536
 20
193.839
 30
0.0
 40
0
 41
0
  0
VERTEX
  8
0
 10
88.0637
 20
192.751
 30
0.0
 40
0
 41
0
  0
VERTEX
  8
0
 10
87.8215
 20
191.678
 30
0.0
 40
0
 41
0
  0
VERTEX
  8
0
 10
87.5275
 20
190.618
 30
0.0
 40
0
 41
0
  0
VERTEX
  8
0
 10
87.1826
 20
189.575
 30
0.0
 40
0
 41
0
  0
VERTEX
  8
0
 10
86.7875
 20
188.551
 30
0.0
 40
0
 41
0
  0
VERTEX
  8
0
 10
86.3428
 20
187.549
 30
0.0
 40
0
 41
0
  0
VERTEX
  8
0
 10
85.8494
 20
186.567
 30
0.0
 40
0
 41
0
  0
VERTEX
  8
0
 10
85.3083
 20
185.61
 30
0.0
 40
0
 41
0
  0
VERTEX
  8
0
 10
84.7199
 20
184.679
 30
0.0
 40
0
 41
0
  0
VERTEX
  8
0
 10
84.0851
 20
183.776
 30
0.0
 40
0
 41
0
  0
VERTEX
  8
0
 10
83.4047
 20
182.903
 30
0.0
 40
0
 41
0
  0
VERTEX
  8
0
 10
82.6794
 20
182.061
 30
0.0
 40
0
 41
0
  0
VERTEX
  8
0
 10
82.1072
 20
181.449
 30
0.0
 40
0
 41
0
  0
VERTEX
  8
0
 10
81.91
 20
181.251
 30
0.0
 40
0
 41
0
  0
VERTEX
  8
0
 10
81.7128
 20
181.054
 30
0.0
 40
0
 41
0
  0
VERTEX
  8
0
 10
81.1015
 20
180.482
 30
0.0
 40
0
 41
0
  0
VERTEX
  8
0
 10
80.2597
 20
179.757
 30
0.0
 40
0
 41
0
  0
VERTEX
  8
0
 10
79.3863
 20
179.076
 30
0.0
 40
0
 41
0
  0
VERTEX
  8
0
 10
78.4832
 20
178.442
 30
0.0
 40
0
 41
0
  0
VERTEX
  8
0
 10
77.5521
 20
177.854
 30
0.0
 40
0
 41
0
  0
VERTEX
  8
0
 10
76.5951
 20
177.313
 30
0.0
 40
0
 41
0
  0
VERTEX
  8
0
 10
75.6139
 20
176.819
 30
0.0
 40
0
 41
0
  0
VERTEX
  8
0
 10
74.6104
 20
176.375
 30
0.0
 40
0
 41
0
  0
VERTEX
  8
0
 10
73.5865
 20
175.979
 30
0.0
 40
0
 41
0
  0
VERTEX
  8
0
 10
72.5439
 20
175.635
 30
0.0
 40
0
 41
0
  0
VERTEX
  8
0
 10
71.4844
 20
175.34
 30
0.0
 40
0
 41
0
  0
VERTEX
  8
0
 10
70.4101
 20
175.099
 30
0.0
 40
0
 41
0
  0
VERTEX
  8
0
 10
69.3226
 20
174.908
 30
0.0
 40
0
 41
0
  0
VERTEX
  8
0
 10
68.224
 20
174.772
 30
0.0
 40
0
 41
0
  0
VERTEX
  8
0
 10
67.1158
 20
174.689
 30
0.0
 40
0
 41
0
  0
VERTEX
  8
0
 10
66.279
 20
174.663
 30
0.0
 40
0
 41
0
  0
VERTEX
  8
0
 10
66.0001
 20
174.663
 30
0.0
 40
0
 41
0
  0
VERTEX
  8
0
 10
65.7211
 20
174.663
 30
0.0
 40
0
 41
0
  0
VERTEX
  8
0
 10
64.8844
 20
174.689
 30
0.0
 40
0
 41
0
  0
VERTEX
  8
0
 10
63.7763
 20
174.772
 30
0.0
 40
0
 41
0
  0
VERTEX
  8
0
 10
62.6775
 20
174.908
 30
0.0
 40
0
 41
0
  0
VERTEX
  8
0
 10
61.59
 20
175.099
 30
0.0
 40
0
 41
0
  0
VERTEX
  8
0
 10
60.5157
 20
175.34
 30
0.0
 40
0
 41
0
  0
VERTEX
  8
0
 10
59.4563
 20
175.635
 30
0.0
 40
0
 41
0
  0
VERTEX
  8
0
 10
58.4136
 20
175.979
 30
0.0
 40
0
 41
0
  0
VERTEX
  8
0
 10
57.3897
 20
176.375
 30
0.0
 40
0
 41
0
  0
VERTEX
  8
0
 10
56.3861
 20
176.819
 30
0.0
 40
0
 41
0
  0
VERTEX
  8
0
 10
55.405
 20
177.313
 30
0.0
 40
0
 41
0
  0
VERTEX
  8
0
 10
54.4481
 20
177.854
 30
0.0
 40
0
 41
0
  0
VERTEX
  8
0
 10
53.5171
 20
178.442
 30
0.0
 40
0
 41
0
  0
VERTEX
  8
0
 10
52.6139
 20
179.076
 30
0.0
 40
0
 41
0
  0
VERTEX
  8
0
 10
51.7406
 20
179.757
 30
0.0
 40
0
 41
0
  0
VERTEX
  8
0
 10
50.8986
 20
180.482
 30
0.0
 40
0
 41
0
  0
VERTEX
  8
0
 10
50.2874
 20
181.054
 30
0.0
 40
0
 41
0
  0
VERTEX
  8
0
 10
50.0901
 20
181.251
 30
0.0
 40
0
 41
0
  0
VERTEX
  8
0
 10
49.8929
 20
181.449
 30
0.0
 40
0
 41
0
  0
VERTEX
  8
0
 10
49.3207
 20
182.061
 30
0.0
 40
0
 41
0
  0
VERTEX
  8
0
 10
48.5956
 20
182.903
 30
0.0
 40
0
 41
0
  0
VERTEX
  8
0
 10
47.9151
 20
183.776
 30
0.0
 40
0
 41
0
  0
VERTEX
  8
0
 10
47.2803
 20
184.679
 30
0.0
 40
0
 41
0
  0
VERTEX
  8
0
 10
46.6919
 20
185.61
 30
0.0
 40
0
 41
0
  0
VERTEX
  8
0
 10
46.1507
 20
186.567
 30
0.0
 40
0
 41
0
  0
VERTEX
  8
0
 10
45.6574
 20
187.549
 30
0.0
 40
0
 41
0
  0
VERTEX
  8
0
 10
45.2128
 20
188.551
 30
0.0
 40
0
 41
0
  0
VERTEX
  8
0
 10
44.8175
 20
189.575
 30
0.0
 40
0
 41
0
  0
VERTEX
  8
0
 10
44.4726
 20
190.618
 30
0.0
 40
0
 41
0
  0
VERTEX
  8
0
 10
44.1786
 20
191.678
 30
0.0
 40
0
 41
0
  0
VERTEX
  8
0
 10
43.9364
 20
192.751
 30
0.0
 40
0
 41
0
  0
VERTEX
  8
0
 10
43.7465
 20
193.839
 30
0.0
 40
0
 41
0
  0
VERTEX
  8
0
 10
43.6101
 20
194.938
 30
0.0
 40
0
 41
0
  0
VERTEX
  8
0
 10
43.5276
 20
196.046
 30
0.0
 40
0
 41
0
  0
VERTEX
  8
0
 10
43.5
 20
196.883
 30
0.0
 40
0
 41
0
  0
VERTEX
  8
0
 10
43.5
 20
197.163
 30
0.0
 40
0
 41
0
  0
VERTEX
  8
0
 10
43.5
 20
197.44
 30
0.0
 40
0
 41
0
  0
VERTEX
  8
0
 10
43.5276
 20
198.278
 30
0.0
 40
0
 41
0
  0
VERTEX
  8
0
 10
43.6101
 20
199.386
 30
0.0
 40
0
 41
0
  0
VERTEX
  8
0
 10
43.7465
 20
200.485
 30
0.0
 40
0
 41
0
  0
VERTEX
  8
0
 10
43.9364
 20
201.572
 30
0.0
 40
0
 41
0
  0
VERTEX
  8
0
 10
44.1786
 20
202.646
 30
0.0
 40
0
 41
0
  0
VERTEX
  8
0
 10
44.4726
 20
203.706
 30
0.0
 40
0
 41
0
  0
VERTEX
  8
0
 10
44.8175
 20
204.749
 30
0.0
 40
0
 41
0
  0
VERTEX
  8
0
 10
45.2128
 20
205.772
 30
0.0
 40
0
 41
0
  0
VERTEX
  8
0
 10
45.6574
 20
206.776
 30
0.0
 40
0
 41
0
  0
VERTEX
  8
0
 10
46.1507
 20
207.757
 30
0.0
 40
0
 41
0
  0
VERTEX
  8
0
 10
46.6919
 20
208.714
 30
0.0
 40
0
 41
0
  0
VERTEX
  8
0
 10
47.2803
 20
209.644
 30
0.0
 40
0
 41
0
  0
VERTEX
  8
0
 10
47.9151
 20
210.549
 30
0.0
 40
0
 41
0
  0
VERTEX
  8
0
 10
48.5956
 20
211.421
 30
0.0
 40
0
 41
0
  0
VERTEX
  8
0
 10
49.3207
 20
212.264
 30
0.0
 40
0
 41
0
  0
VERTEX
  8
0
 10
49.8929
 20
212.875
 30
0.0
 40
0
 41
0
  0
VERTEX
  8
0
 10
50.0901
 20
213.072
 30
0.0
 40
0
 41
0
  0
VERTEX
  8
0
 10
50.2874
 20
213.269
 30
0.0
 40
0
 41
0
  0
VERTEX
  8
0
 10
50.8986
 20
213.842
 30
0.0
 40
0
 41
0
  0
VERTEX
  8
0
 10
51.7406
 20
214.567
 30
0.0
 40
0
 41
0
  0
VERTEX
  8
0
 10
52.6139
 20
215.247
 30
0.0
 40
0
 41
0
  0
VERTEX
  8
0
 10
53.5171
 20
215.882
 30
0.0
 40
0
 41
0
  0
VERTEX
  8
0
 10
54.4481
 20
216.469
 30
0.0
 40
0
 41
0
  0
VERTEX
  8
0
 10
55.405
 20
217.011
 30
0.0
 40
0
 41
0
  0
VERTEX
  8
0
 10
56.3861
 20
217.504
 30
0.0
 40
0
 41
0
  0
VERTEX
  8
0
 10
57.3897
 20
217.949
 30
0.0
 40
0
 41
0
  0
VERTEX
  8
0
 10
58.4136
 20
218.344
 30
0.0
 40
0
 41
0
  0
VERTEX
  8
0
 10
59.4563
 20
218.689
 30
0.0
 40
0
 41
0
  0
VERTEX
  8
0
 10
60.5157
 20
218.983
 30
0.0
 40
0
 41
0
  0
VERTEX
  8
0
 10
61.59
 20
219.225
 30
0.0
 40
0
 41
0
  0
VERTEX
  8
0
 10
62.6775
 20
219.415
 30
0.0
 40
0
 41
0
  0
VERTEX
  8
0
 10
63.7763
 20
219.551
 30
0.0
 40
0
 41
0
  0
VERTEX
  8
0
 10
64.8844
 20
219.635
 30
0.0
 40
0
 41
0
  0
VERTEX
  8
0
 10
65.7211
 20
219.663
 30
0.0
 40
0
 41
0
  0
VERTEX
  8
0
 10
66.0001
 20
219.663
 30
0.0
 40
0
 41
0
  0
SEQEND
 8
0
  0
POLYLINE
  8
0
 62
     0
 66
     1
 10
0
 20
0
 30
0.0
 70
     1
 40
0
 41
0
  0
VERTEX
  8
0
 10
121.25
 20
170.663
 30
0.0
 40
0
 41
0
  0
VERTEX
  8
0
 10
121.429
 20
170.663
 30
0.0
 40
0
 41
0
  0
VERTEX
  8
0
 10
121.964
 20
170.653
 30
0.0
 40
0
 41
0
  0
VERTEX
  8
0
 10
122.676
 20
170.626
 30
0.0
 40
0
 41
0
  0
VERTEX
  8
0
 10
123.385
 20
170.582
 30
0.0
 40
0
 41
0
  0
VERTEX
  8
0
 10
124.092
 20
170.521
 30
0.0
 40
0
 41
0
  0
VERTEX
  8
0
 10
124.795
 20
170.443
 30
0.0
 40
0
 41
0
  0
VERTEX
  8
0
 10
125.496
 20
170.347
 30
0.0
 40
0
 41
0
  0
VERTEX
  8
0
 10
126.192
 20
170.233
 30
0.0
 40
0
 41
0
  0
VERTEX
  8
0
 10
126.885
 20
170.104
 30
0.0
 40
0
 41
0
  0
VERTEX
  8
0
 10
127.574
 20
169.958
 30
0.0
 40
0
 41
0
  0
VERTEX
  8
0
 10
128.258
 20
169.794
 30
0.0
 40
0
 41
0
  0
VERTEX
  8
0
 10
128.937
 20
169.615
 30
0.0
 40
0
 41
0
  0
VERTEX
  8
0
 10
129.612
 20
169.419
 30
0.0
 40
0
 41
0
  0
VERTEX
  8
0
 10
130.281
 20
169.207
 30
0.0
 40
0
 41
0
  0
VERTEX
  8
0
 10
130.944
 20
168.978
 30
0.0
 40
0
 41
0
  0
VERTEX
  8
0
 10
131.601
 20
168.733
 30
0.0
 40
0
 41
0
  0
VERTEX
  8
0
 10
132.252
 20
168.474
 30
0.0
 40
0
 41
0
  0
VERTEX
  8
0
 10
132.897
 20
168.197
 30
0.0
 40
0
 41
0
  0
VERTEX
  8
0
 10
133.535
 20
167.906
 30
0.0
 40
0
 41
0
  0
VERTEX
  8
0
 10
134.165
 20
167.597
 30
0.0
 40
0
 41
0
  0
VERTEX
  8
0
 10
134.788
 20
167.275
 30
0.0
 40
0
 41
0
  0
VERTEX
  8
0
 10
135.404
 20
166.936
 30
0.0
 40
0
 41
0
  0
VERTEX
  8
0
 10
136.011
 20
166.583
 30
0.0
 40
0
 41
0
  0
VERTEX
  8
0
 10
136.61
 20
166.215
 30
0.0
 40
0
 41
0
  0
VERTEX
  8
0
 10
137.201
 20
165.832
 30
0.0
 40
0
 41
0
  0
VERTEX
  8
0
 10
137.782
 20
165.433
 30
0.0
 40
0
 41
0
  0
VERTEX
  8
0
 10
138.355
 20
165.021
 30
0.0
 40
0
 41
0
  0
VERTEX
  8
0
 10
138.918
 20
164.593
 30
0.0
 40
0
 41
0
  0
VERTEX
  8
0
 10
139.471
 20
164.151
 30
0.0
 40
0
 41
0
  0
VERTEX
  8
0
 10
140.014
 20
163.694
 30
0.0
 40
0
 41
0
  0
VERTEX
  8
0
 10
140.546
 20
163.224
 30
0.0
 40
0
 41
0
  0
VERTEX
  8
0
 10
141.068
 20
162.74
 30
0.0
 40
0
 41
0
  0
VERTEX
  8
0
 10
141.453
 20
162.367
 30
0.0
 40
0
 41
0
  0
VERTEX
  8
0
 10
141.579
 20
162.242
 30
0.0
 40
0
 41
0
  0
VERTEX
  8
0
 10
141.706
 20
162.115
 30
0.0
 40
0
 41
0
  0
VERTEX
  8
0
 10
142.078
 20
161.731
 30
0.0
 40
0
 41
0
  0
VERTEX
  8
0
 10
142.563
 20
161.208
 30
0.0
 40
0
 41
0
  0
VERTEX
  8
0
 10
143.033
 20
160.675
 30
0.0
 40
0
 41
0
  0
VERTEX
  8
0
 10
143.489
 20
160.132
 30
0.0
 40
0
 41
0
  0
VERTEX
  8
0
 10
143.932
 20
159.579
 30
0.0
 40
0
 41
0
  0
VERTEX
  8
0
 10
144.358
 20
159.017
 30
0.0
 40
0
 41
0
  0
VERTEX
  8
0
 10
144.772
 20
158.444
 30
0.0
 40
0
 41
0
  0
VERTEX
  8
0
 10
145.169
 20
157.862
 30
0.0
 40
0
 41
0
  0
VERTEX
  8
0
 10
145.553
 20
157.272
 30
0.0
 40
0
 41
0
  0
VERTEX
  8
0
 10
145.922
 20
156.672
 30
0.0
 40
0
 41
0
  0
VERTEX
  8
0
 10
146.275
 20
156.065
 30
0.0
 40
0
 41
0
  0
VERTEX
  8
0
 10
146.614
 20
155.45
 30
0.0
 40
0
 41
0
  0
VERTEX
  8
0
 10
146.936
 20
154.826
 30
0.0
 40
0
 41
0
  0
VERTEX
  8
0
 10
147.243
 20
154.196
 30
0.0
 40
0
 41
0
  0
VERTEX
  8
0
 10
147.536
 20
153.558
 30
0.0
 40
0
 41
0
  0
VERTEX
  8
0
 10
147.811
 20
152.914
 30
0.0
 40
0
 41
0
  0
VERTEX
  8
0
 10
148.072
 20
152.263
 30
0.0
 40
0
 41
0
  0
VERTEX
  8
0
 10
148.317
 20
151.606
 30
0.0
 40
0
 41
0
  0
VERTEX
  8
0
 10
148.546
 20
150.942
 30
0.0
 40
0
 41
0
  0
VERTEX
  8
0
 10
148.757
 20
150.274
 30
0.0
 40
0
 41
0
  0
VERTEX
  8
0
 10
148.954
 20
149.599
 30
0.0
 40
0
 41
0
  0
VERTEX
  8
0
 10
149.133
 20
148.919
 30
0.0
 40
0
 41
0
  0
VERTEX
  8
0
 10
149.296
 20
148.236
 30
0.0
 40
0
 41
0
  0
VERTEX
  8
0
 10
149.443
 20
147.547
 30
0.0
 40
0
 41
0
  0
VERTEX
  8
0
 10
149.572
 20
146.854
 30
0.0
 40
0
 41
0
  0
VERTEX
  8
0
 10
149.685
 20
146.157
 30
0.0
 40
0
 41
0
  0
VERTEX
  8
0
 10
149.781
 20
145.457
 30
0.0
 40
0
 41
0
  0
VERTEX
  8
0
 10
149.86
 20
144.753
 30
0.0
 40
0
 41
0
  0
VERTEX
  8
0
 10
149.921
 20
144.047
 30
0.0
 40
0
 41
0
  0
VERTEX
  8
0
 10
149.965
 20
143.337
 30
0.0
 40
0
 41
0
  0
VERTEX
  8
0
 10
149.992
 20
142.626
 30
0.0
 40
0
 41
0
  0
VERTEX
  8
0
 10
150
 20
142.09
 30
0.0
 40
0
 41
0
  0
VERTEX
  8
0
 10
150
 20
141.911
 30
0.0
 40
0
 41
0
  0
VERTEX
  8
0
 10
150
 20
141.733
 30
0.0
 40
0
 41
0
  0
VERTEX
  8
0
 10
149.992
 20
141.199
 30
0.0
 40
0
 41
0
  0
VERTEX
  8
0
 10
149.965
 20
140.486
 30
0.0
 40
0
 41
0
  0
VERTEX
  8
0
 10
149.921
 20
139.776
 30
0.0
 40
0
 41
0
  0
VERTEX
  8
0
 10
149.86
 20
139.071
 30
0.0
 40
0
 41
0
  0
VERTEX
  8
0
 10
149.781
 20
138.367
 30
0.0
 40
0
 41
0
  0
VERTEX
  8
0
 10
149.685
 20
137.666
 30
0.0
 40
0
 41
0
  0
VERTEX
  8
0
 10
149.572
 20
136.97
 30
0.0
 40
0
 41
0
  0
VERTEX
  8
0
 10
149.443
 20
136.277
 30
0.0
 40
0
 41
0
  0
VERTEX
  8
0
 10
149.296
 20
135.588
 30
0.0
 40
0
 41
0
  0
VERTEX
  8
0
 10
149.133
 20
134.904
 30
0.0
 40
0
 41
0
  0
VERTEX
  8
0
 10
148.954
 20
134.225
 30
0.0
 40
0
 41
0
  0
VERTEX
  8
0
 10
148.757
 20
133.55
 30
0.0
 40
0
 41
0
  0
VERTEX
  8
0
 10
148.546
 20
132.881
 30
0.0
 40
0
 41
0
  0
VERTEX
  8
0
 10
148.317
 20
132.218
 30
0.0
 40
0
 41
0
  0
VERTEX
  8
0
 10
148.072
 20
131.561
 30
0.0
 40
0
 41
0
  0
VERTEX
  8
0
 10
147.811
 20
130.91
 30
0.0
 40
0
 41
0
  0
VERTEX
  8
0
 10
147.536
 20
130.265
 30
0.0
 40
0
 41
0
  0
VERTEX
  8
0
 10
147.243
 20
129.627
 30
0.0
 40
0
 41
0
  0
VERTEX
  8
0
 10
146.936
 20
128.997
 30
0.0
 40
0
 41
0
  0
VERTEX
  8
0
 10
146.614
 20
128.374
 30
0.0
 40
0
 41
0
  0
VERTEX
  8
0
 10
146.275
 20
127.758
 30
0.0
 40
0
 41
0
  0
VERTEX
  8
0
 10
145.922
 20
127.151
 30
0.0
 40
0
 41
0
  0
VERTEX
  8
0
 10
145.553
 20
126.552
 30
0.0
 40
0
 41
0
  0
VERTEX
  8
0
 10
145.169
 20
125.961
 30
0.0
 40
0
 41
0
  0
VERTEX
  8
0
 10
144.772
 20
125.38
 30
0.0
 40
0
 41
0
  0
VERTEX
  8
0
 10
144.358
 20
124.807
 30
0.0
 40
0
 41
0
  0
VERTEX
  8
0
 10
143.932
 20
124.244
 30
0.0
 40
0
 41
0
  0
VERTEX
  8
0
 10
143.489
 20
123.691
 30
0.0
 40
0
 41
0
  0
VERTEX
  8
0
 10
143.033
 20
123.148
 30
0.0
 40
0
 41
0
  0
VERTEX
  8
0
 10
142.563
 20
122.616
 30
0.0
 40
0
 41
0
  0
VERTEX
  8
0
 10
142.078
 20
122.093
 30
0.0
 40
0
 41
0
  0
VERTEX
  8
0
 10
141.706
 20
121.709
 30
0.0
 40
0
 41
0
  0
VERTEX
  8
0
 10
141.579
 20
121.582
 30
0.0
 40
0
 41
0
  0
VERTEX
  8
0
 10
141.453
 20
121.456
 30
0.0
 40
0
 41
0
  0
VERTEX
  8
0
 10
141.068
 20
121.084
 30
0.0
 40
0
 41
0
  0
VERTEX
  8
0
 10
140.546
 20
120.599
 30
0.0
 40
0
 41
0
  0
VERTEX
  8
0
 10
140.014
 20
120.129
 30
0.0
 40
0
 41
0
  0
VERTEX
  8
0
 10
139.471
 20
119.673
 30
0.0
 40
0
 41
0
  0
VERTEX
  8
0
 10
138.918
 20
119.231
 30
0.0
 40
0
 41
0
  0
VERTEX
  8
0
 10
138.355
 20
118.803
 30
0.0
 40
0
 41
0
  0
VERTEX
  8
0
 10
137.782
 20
118.39
 30
0.0
 40
0
 41
0
  0
VERTEX
  8
0
 10
137.201
 20
117.992
 30
0.0
 40
0
 41
0
  0
VERTEX
  8
0
 10
136.61
 20
117.609
 30
0.0
 40
0
 41
0
  0
VERTEX
  8
0
 10
136.011
 20
117.24
 30
0.0
 40
0
 41
0
  0
VERTEX
  8
0
 10
135.404
 20
116.887
 30
0.0
 40
0
 41
0
  0
VERTEX
  8
0
 10
134.788
 20
116.549
 30
0.0
 40
0
 41
0
  0
VERTEX
  8
0
 10
134.165
 20
116.226
 30
0.0
 40
0
 41
0
  0
VERTEX
  8
0
 10
133.535
 20
115.918
 30
0.0
 40
0
 41
0
  0
VERTEX
  8
0
 10
132.897
 20
115.627
 30
0.0
 40
0
 41
0
  0
VERTEX
  8
0
 10
132.252
 20
115.35
 30
0.0
 40
0
 41
0
  0
VERTEX
  8
0
 10
131.601
 20
115.09
 30
0.0
 40
0
 41
0
  0
VERTEX
  8
0
 10
130.944
 20
114.845
 30
0.0
 40
0
 41
0
  0
VERTEX
  8
0
 10
130.281
 20
114.617
 30
0.0
 40
0
 41
0
  0
VERTEX
  8
0
 10
129.612
 20
114.404
 30
0.0
 40
0
 41
0
  0
VERTEX
  8
0
 10
128.937
 20
114.208
 30
0.0
 40
0
 41
0
  0
VERTEX
  8
0
 10
128.258
 20
114.029
 30
0.0
 40
0
 41
0
  0
VERTEX
  8
0
 10
127.574
 20
113.866
 30
0.0
 40
0
 41
0
  0
VERTEX
  8
0
 10
126.885
 20
113.719
 30
0.0
 40
0
 41
0
  0
VERTEX
  8
0
 10
126.192
 20
113.59
 30
0.0
 40
0
 41
0
  0
VERTEX
  8
0
 10
125.496
 20
113.477
 30
0.0
 40
0
 41
0
  0
VERTEX
  8
0
 10
124.795
 20
113.381
 30
0.0
 40
0
 41
0
  0
VERTEX
  8
0
 10
124.092
 20
113.302
 30
0.0
 40
0
 41
0
  0
VERTEX
  8
0
 10
123.385
 20
113.241
 30
0.0
 40
0
 41
0
  0
VERTEX
  8
0
 10
122.676
 20
113.197
 30
0.0
 40
0
 41
0
  0
VERTEX
  8
0
 10
121.964
 20
113.171
 30
0.0
 40
0
 41
0
  0
VERTEX
  8
0
 10
121.429
 20
113.162
 30
0.0
 40
0
 41
0
  0
VERTEX
  8
0
 10
121.25
 20
113.162
 30
0.0
 40
0
 41
0
  0
VERTEX
  8
0
 10
121.072
 20
113.162
 30
0.0
 40
0
 41
0
  0
VERTEX
  8
0
 10
120.536
 20
113.171
 30
0.0
 40
0
 41
0
  0
VERTEX
  8
0
 10
119.824
 20
113.197
 30
0.0
 40
0
 41
0
  0
VERTEX
  8
0
 10
119.115
 20
113.241
 30
0.0
 40
0
 41
0
  0
VERTEX
  8
0
 10
118.409
 20
113.302
 30
0.0
 40
0
 41
0
  0
VERTEX
  8
0
 10
117.705
 20
113.381
 30
0.0
 40
0
 41
0
  0
VERTEX
  8
0
 10
117.005
 20
113.477
 30
0.0
 40
0
 41
0
  0
VERTEX
  8
0
 10
116.308
 20
113.59
 30
0.0
 40
0
 41
0
  0
VERTEX
  8
0
 10
115.615
 20
113.719
 30
0.0
 40
0
 41
0
  0
VERTEX
  8
0
 10
114.927
 20
113.866
 30
0.0
 40
0
 41
0
  0
VERTEX
  8
0
 10
114.242
 20
114.029
 30
0.0
 40
0
 41
0
  0
VERTEX
  8
0
 10
113.563
 20
114.208
 30
0.0
 40
0
 41
0
  0
VERTEX
  8
0
 10
112.889
 20
114.404
 30
0.0
 40
0
 41
0
  0
VERTEX
  8
0
 10
112.22
 20
114.617
 30
0.0
 40
0
 41
0
  0
VERTEX
  8
0
 10
111.556
 20
114.845
 30
0.0
 40
0
 41
0
  0
VERTEX
  8
0
 10
110.899
 20
115.09
 30
0.0
 40
0
 41
0
  0
VERTEX
  8
0
 10
110.248
 20
115.35
 30
0.0
 40
0
 41
0
  0
VERTEX
  8
0
 10
109.603
 20
115.627
 30
0.0
 40
0
 41
0
  0
VERTEX
  8
0
 10
108.966
 20
115.918
 30
0.0
 40
0
 41
0
  0
VERTEX
  8
0
 10
108.335
 20
116.226
 30
0.0
 40
0
 41
0
  0
VERTEX
  8
0
 10
107.712
 20
116.549
 30
0.0
 40
0
 41
0
  0
VERTEX
  8
0
 10
107.097
 20
116.887
 30
0.0
 40
0
 41
0
  0
VERTEX
  8
0
 10
106.489
 20
117.24
 30
0.0
 40
0
 41
0
  0
VERTEX
  8
0
 10
105.89
 20
117.609
 30
0.0
 40
0
 41
0
  0
VERTEX
  8
0
 10
105.3
 20
117.992
 30
0.0
 40
0
 41
0
  0
VERTEX
  8
0
 10
104.718
 20
118.39
 30
0.0
 40
0
 41
0
  0
VERTEX
  8
0
 10
104.146
 20
118.803
 30
0.0
 40
0
 41
0
  0
VERTEX
  8
0
 10
103.583
 20
119.231
 30
0.0
 40
0
 41
0
  0
VERTEX
  8
0
 10
103.03
 20
119.673
 30
0.0
 40
0
 41
0
  0
VERTEX
  8
0
 10
102.487
 20
120.129
 30
0.0
 40
0
 41
0
  0
VERTEX
  8
0
 10
101.954
 20
120.599
 30
0.0
 40
0
 41
0
  0
VERTEX
  8
0
 10
101.432
 20
121.084
 30
0.0
 40
0
 41
0
  0
VERTEX
  8
0
 10
101.047
 20
121.456
 30
0.0
 40
0
 41
0
  0
VERTEX
  8
0
 10
100.921
 20
121.582
 30
0.0
 40
0
 41
0
  0
VERTEX
  8
0
 10
100.795
 20
121.709
 30
0.0
 40
0
 41
0
  0
VERTEX
  8
0
 10
100.422
 20
122.093
 30
0.0
 40
0
 41
0
  0
VERTEX
  8
0
 10
99.9378
 20
122.616
 30
0.0
 40
0
 41
0
  0
VERTEX
  8
0
 10
99.4672
 20
123.148
 30
0.0
 40
0
 41
0
  0
VERTEX
  8
0
 10
99.011
 20
123.691
 30
0.0
 40
0
 41
0
  0
VERTEX
  8
0
 10
98.569
 20
124.244
 30
0.0
 40
0
 41
0
  0
VERTEX
  8
0
 10
98.1415
 20
124.807
 30
0.0
 40
0
 41
0
  0
VERTEX
  8
0
 10
97.7286
 20
125.38
 30
0.0
 40
0
 41
0
  0
VERTEX
  8
0
 10
97.3304
 20
125.961
 30
0.0
 40
0
 41
0
  0
VERTEX
  8
0
 10
96.9471
 20
126.552
 30
0.0
 40
0
 41
0
  0
VERTEX
  8
0
 10
96.5786
 20
127.151
 30
0.0
 40
0
 41
0
  0
VERTEX
  8
0
 10
96.2253
 20
127.758
 30
0.0
 40
0
 41
0
  0
VERTEX
  8
0
 10
95.8871
 20
128.374
 30
0.0
 40
0
 41
0
  0
VERTEX
  8
0
 10
95.5642
 20
128.997
 30
0.0
 40
0
 41
0
  0
VERTEX
  8
0
 10
95.2567
 20
129.627
 30
0.0
 40
0
 41
0
  0
VERTEX
  8
0
 10
94.9647
 20
130.265
 30
0.0
 40
0
 41
0
  0
VERTEX
  8
0
 10
94.6886
 20
130.91
 30
0.0
 40
0
 41
0
  0
VERTEX
  8
0
 10
94.4282
 20
131.561
 30
0.0
 40
0
 41
0
  0
VERTEX
  8
0
 10
94.1836
 20
132.218
 30
0.0
 40
0
 41
0
  0
VERTEX
  8
0
 10
93.9551
 20
132.881
 30
0.0
 40
0
 41
0
  0
VERTEX
  8
0
 10
93.7428
 20
133.55
 30
0.0
 40
0
 41
0
  0
VERTEX
  8
0
 10
93.5468
 20
134.225
 30
0.0
 40
0
 41
0
  0
VERTEX
  8
0
 10
93.3672
 20
134.904
 30
0.0
 40
0
 41
0
  0
VERTEX
  8
0
 10
93.2042
 20
135.588
 30
0.0
 40
0
 41
0
  0
VERTEX
  8
0
 10
93.0576
 20
136.277
 30
0.0
 40
0
 41
0
  0
VERTEX
  8
0
 10
92.9281
 20
136.97
 30
0.0
 40
0
 41
0
  0
VERTEX
  8
0
 10
92.8153
 20
137.666
 30
0.0
 40
0
 41
0
  0
VERTEX
  8
0
 10
92.7194
 20
138.367
 30
0.0
 40
0
 41
0
  0
VERTEX
  8
0
 10
92.6408
 20
139.071
 30
0.0
 40
0
 41
0
  0
VERTEX
  8
0
 10
92.5794
 20
139.776
 30
0.0
 40
0
 41
0
  0
VERTEX
  8
0
 10
92.5354
 20
140.486
 30
0.0
 40
0
 41
0
  0
VERTEX
  8
0
 10
92.509
 20
141.199
 30
0.0
 40
0
 41
0
  0
VERTEX
  8
0
 10
92.5001
 20
141.733
 30
0.0
 40
0
 41
0
  0
VERTEX
  8
0
 10
92.5001
 20
141.911
 30
0.0
 40
0
 41
0
  0
VERTEX
  8
0
 10
92.5001
 20
142.09
 30
0.0
 40
0
 41
0
  0
VERTEX
  8
0
 10
92.509
 20
142.626
 30
0.0
 40
0
 41
0
  0
VERTEX
  8
0
 10
92.5354
 20
143.337
 30
0.0
 40
0
 41
0
  0
VERTEX
  8
0
 10
92.5794
 20
144.047
 30
0.0
 40
0
 41
0
  0
VERTEX
  8
0
 10
92.6408
 20
144.753
 30
0.0
 40
0
 41
0
  0
VERTEX
  8
0
 10
92.7194
 20
145.457
 30
0.0
 40
0
 41
0
  0
VERTEX
  8
0
 10
92.8153
 20
146.157
 30
0.0
 40
0
 41
0
  0
VERTEX
  8
0
 10
92.9281
 20
146.854
 30
0.0
 40
0
 41
0
  0
VERTEX
  8
0
 10
93.0576
 20
147.547
 30
0.0
 40
0
 41
0
  0
VERTEX
  8
0
 10
93.2042
 20
148.236
 30
0.0
 40
0
 41
0
  0
VERTEX
  8
0
 10
93.3672
 20
148.919
 30
0.0
 40
0
 41
0
  0
VERTEX
  8
0
 10
93.5468
 20
149.599
 30
0.0
 40
0
 41
0
  0
VERTEX
  8
0
 10
93.7428
 20
150.274
 30
0.0
 40
0
 41
0
  0
VERTEX
  8
0
 10
93.9551
 20
150.942
 30
0.0
 40
0
 41
0
  0
VERTEX
  8
0
 10
94.1836
 20
151.606
 30
0.0
 40
0
 41
0
  0
VERTEX
  8
0
 10
94.4282
 20
152.263
 30
0.0
 40
0
 41
0
  0
VERTEX
  8
0
 10
94.6886
 20
152.914
 30
0.0
 40
0
 41
0
  0
VERTEX
  8
0
 10
94.9647
 20
153.558
 30
0.0
 40
0
 41
0
  0
VERTEX
  8
0
 10
95.2567
 20
154.196
 30
0.0
 40
0
 41
0
  0
VERTEX
  8
0
 10
95.5642
 20
154.826
 30
0.0
 40
0
 41
0
  0
VERTEX
  8
0
 10
95.8871
 20
155.45
 30
0.0
 40
0
 41
0
  0
VERTEX
  8
0
 10
96.2253
 20
156.065
 30
0.0
 40
0
 41
0
  0
VERTEX
  8
0
 10
96.5786
 20
156.672
 30
0.0
 40
0
 41
0
  0
VERTEX
  8
0
 10
96.9471
 20
157.272
 30
0.0
 40
0
 41
0
  0
VERTEX
  8
0
 10
97.3304
 20
157.862
 30
0.0
 40
0
 41
0
  0
VERTEX
  8
0
 10
97.7286
 20
158.444
 30
0.0
 40
0
 41
0
  0
VERTEX
  8
0
 10
98.1415
 20
159.017
 30
0.0
 40
0
 41
0
  0
VERTEX
  8
0
 10
98.569
 20
159.579
 30
0.0
 40
0
 41
0
  0
VERTEX
  8
0
 10
99.011
 20
160.132
 30
0.0
 40
0
 41
0
  0
VERTEX
  8
0
 10
99.4672
 20
160.675
 30
0.0
 40
0
 41
0
  0
VERTEX
  8
0
 10
99.9378
 20
161.208
 30
0.0
 40
0
 41
0
  0
VERTEX
  8
0
 10
100.422
 20
161.731
 30
0.0
 40
0
 41
0
  0
VERTEX
  8
0
 10
100.795
 20
162.115
 30
0.0
 40
0
 41
0
  0
VERTEX
  8
0
 10
100.921
 20
162.242
 30
0.0
 40
0
 41
0
  0
VERTEX
  8
0
 10
101.047
 20
162.367
 30
0.0
 40
0
 41
0
  0
VERTEX
  8
0
 10
101.432
 20
162.74
 30
0.0
 40
0
 41
0
  0
VERTEX
  8
0
 10
101.954
 20
163.224
 30
0.0
 40
0
 41
0
  0
VERTEX
  8
0
 10
102.487
 20
163.694
 30
0.0
 40
0
 41
0
  0
VERTEX
  8
0
 10
103.03
 20
164.151
 30
0.0
 40
0
 41
0
  0
VERTEX
  8
0
 10
103.583
 20
164.593
 30
0.0
 40
0
 41
0
  0
VERTEX
  8
0
 10
104.146
 20
165.021
 30
0.0
 40
0
 41
0
  0
VERTEX
  8
0
 10
104.718
 20
165.433
 30
0.0
 40
0
 41
0
  0
VERTEX
  8
0
 10
105.3
 20
165.832
 30
0.0
 40
0
 41
0
  0
VERTEX
  8
0
 10
105.89
 20
166.215
 30
0.0
 40
0
 41
0
  0
VERTEX
  8
0
 10
106.489
 20
166.583
 30
0.0
 40
0
 41
0
  0
VERTEX
  8
0
 10
107.097
 20
166.936
 30
0.0
 40
0
 41
0
  0
VERTEX
  8
0
 10
107.712
 20
167.275
 30
0.0
 40
0
 41
0
  0
VERTEX
  8
0
 10
108.335
 20
167.597
 30
0.0
 40
0
 41
0
  0
VERTEX
  8
0
 10
108.966
 20
167.906
 30
0.0
 40
0
 41
0
  0
VERTEX
  8
0
 10
109.603
 20
168.197
 30
0.0
 40
0
 41
0
  0
VERTEX
  8
0
 10
110.248
 20
168.474
 30
0.0
 40
0
 41
0
  0
VERTEX
  8
0
 10
110.899
 20
168.733
 30
0.0
 40
0
 41
0
  0
VERTEX
  8
0
 10
111.556
 20
168.978
 30
0.0
 40
0
 41
0
  0
VERTEX
  8
0
 10
112.22
 20
169.207
 30
0.0
 40
0
 41
0
  0
VERTEX
  8
0
 10
112.889
 20
169.419
 30
0.0
 40
0
 41
0
  0
VERTEX
  8
0
 10
113.563
 20
169.615
 30
0.0
 40
0
 41
0
  0
VERTEX
  8
0
 10
114.242
 20
169.794
 30
0.0
 40
0
 41
0
  0
VERTEX
  8
0
 10
114.927
 20
169.958
 30
0.0
 40
0
 41
0
  0
VERTEX
  8
0
 10
115.615
 20
170.104
 30
0.0
 40
0
 41
0
  0
VERTEX
  8
0
 10
116.308
 20
170.233
 30
0.0
 40
0
 41
0
  0
VERTEX
  8
0
 10
117.005
 20
170.347
 30
0.0
 40
0
 41
0
  0
VERTEX
  8
0
 10
117.705
 20
170.443
 30
0.0
 40
0
 41
0
  0
VERTEX
  8
0
 10
118.409
 20
170.521
 30
0.0
 40
0
 41
0
  0
VERTEX
  8
0
 10
119.115
 20
170.582
 30
0.0
 40
0
 41
0
  0
VERTEX
  8
0
 10
119.824
 20
170.626
 30
0.0
 40
0
 41
0
  0
VERTEX
  8
0
 10
120.536
 20
170.653
 30
0.0
 40
0
 41
0
  0
VERTEX
  8
0
 10
121.072
 20
170.663
 30
0.0
 40
0
 41
0
  0
VERTEX
  8
0
 10
121.25
 20
170.663
 30
0.0
 40
0
 41
0
  0
SEQEND
 8
0
  0
POLYLINE
  8
0
 62
     0
 66
     1
 10
0
 20
0
 30
0.0
 70
     1
 40
0
 41
0
  0
VERTEX
  8
0
 10
23.25
 20
207.163
 30
0.0
 40
0
 41
0
  0
VERTEX
  8
0
 10
23.4515
 20
207.163
 30
0.0
 40
0
 41
0
  0
VERTEX
  8
0
 10
24.0558
 20
207.142
 30
0.0
 40
0
 41
0
  0
VERTEX
  8
0
 10
24.8561
 20
207.082
 30
0.0
 40
0
 41
0
  0
VERTEX
  8
0
 10
25.6496
 20
206.983
 30
0.0
 40
0
 41
0
  0
VERTEX
  8
0
 10
26.435
 20
206.847
 30
0.0
 40
0
 41
0
  0
VERTEX
  8
0
 10
27.211
 20
206.672
 30
0.0
 40
0
 41
0
  0
VERTEX
  8
0
 10
27.9761
 20
206.46
 30
0.0
 40
0
 41
0
  0
VERTEX
  8
0
 10
28.7292
 20
206.21
 30
0.0
 40
0
 41
0
  0
VERTEX
  8
0
 10
29.4686
 20
205.925
 30
0.0
 40
0
 41
0
  0
VERTEX
  8
0
 10
30.1933
 20
205.604
 30
0.0
 40
0
 41
0
  0
VERTEX
  8
0
 10
30.9021
 20
205.247
 30
0.0
 40
0
 41
0
  0
VERTEX
  8
0
 10
31.5932
 20
204.857
 30
0.0
 40
0
 41
0
  0
VERTEX
  8
0
 10
32.2656
 20
204.432
 30
0.0
 40
0
 41
0
  0
VERTEX
  8
0
 10
32.9178
 20
203.974
 30
0.0
 40
0
 41
0
  0
VERTEX
  8
0
 10
33.5486
 20
203.482
 30
0.0
 40
0
 41
0
  0
VERTEX
  8
0
 10
34.1567
 20
202.958
 30
0.0
 40
0
 41
0
  0
VERTEX
  8
0
 10
34.5981
 20
202.544
 30
0.0
 40
0
 41
0
  0
VERTEX
  8
0
 10
34.7406
 20
202.403
 30
0.0
 40
0
 41
0
  0
VERTEX
  8
0
 10
34.8829
 20
202.26
 30
0.0
 40
0
 41
0
  0
VERTEX
  8
0
 10
35.2961
 20
201.818
 30
0.0
 40
0
 41
0
  0
VERTEX
  8
0
 10
35.82
 20
201.211
 30
0.0
 40
0
 41
0
  0
VERTEX
  8
0
 10
36.3114
 20
200.579
 30
0.0
 40
0
 41
0
  0
VERTEX
  8
0
 10
36.7699
 20
199.928
 30
0.0
 40
0
 41
0
  0
VERTEX
  8
0
 10
37.1949
 20
199.256
 30
0.0
 40
0
 41
0
  0
VERTEX
  8
0
 10
37.5857
 20
198.564
 30
0.0
 40
0
 41
0
  0
VERTEX
  8
0
 10
37.9419
 20
197.856
 30
0.0
 40
0
 41
0
  0
VERTEX
  8
0
 10
38.2631
 20
197.131
 30
0.0
 40
0
 41
0
  0
VERTEX
  8
0
 10
38.5485
 20
196.39
 30
0.0
 40
0
 41
0
  0
VERTEX
  8
0
 10
38.7976
 20
195.638
 30
0.0
 40
0
 41
0
  0
VERTEX
  8
0
 10
39.0099
 20
194.872
 30
0.0
 40
0
 41
0
  0
VERTEX
  8
0
 10
39.1849
 20
194.097
 30
0.0
 40
0
 41
0
  0
VERTEX
  8
0
 10
39.3219
 20
193.311
 30
0.0
 40
0
 41
0
  0
VERTEX
  8
0
 10
39.4206
 20
192.518
 30
0.0
 40
0
 41
0
  0
VERTEX
  8
0
 10
39.48
 20
191.718
 30
0.0
 40
0
 41
0
  0
VERTEX
  8
0
 10
39.5
 20
191.114
 30
0.0
 40
0
 41
0
  0
VERTEX
  8
0
 10
39.5
 20
190.913
 30
0.0
 40
0
 41
0
  0
VERTEX
  8
0
 10
39.5
 20
190.71
 30
0.0
 40
0
 41
0
  0
VERTEX
  8
0
 10
39.48
 20
190.106
 30
0.0
 40
0
 41
0
  0
VERTEX
  8
0
 10
39.4206
 20
189.306
 30
0.0
 40
0
 41
0
  0
VERTEX
  8
0
 10
39.3219
 20
188.513
 30
0.0
 40
0
 41
0
  0
VERTEX
  8
0
 10
39.1849
 20
187.726
 30
0.0
 40
0
 41
0
  0
VERTEX
  8
0
 10
39.0099
 20
186.951
 30
0.0
 40
0
 41
0
  0
VERTEX
  8
0
 10
38.7976
 20
186.186
 30
0.0
 40
0
 41
0
  0
VERTEX
  8
0
 10
38.5485
 20
185.433
 30
0.0
 40
0
 41
0
  0
VERTEX
  8
0
 10
38.2631
 20
184.693
 30
0.0
 40
0
 41
0
  0
VERTEX
  8
0
 10
37.9419
 20
183.968
 30
0.0
 40
0
 41
0
  0
VERTEX
  8
0
 10
37.5857
 20
183.26
 30
0.0
 40
0
 41
0
  0
VERTEX
  8
0
 10
37.1949
 20
182.568
 30
0.0
 40
0
 41
0
  0
VERTEX
  8
0
 10
36.7699
 20
181.896
 30
0.0
 40
0
 41
0
  0
VERTEX
  8
0
 10
36.3114
 20
181.244
 30
0.0
 40
0
 41
0
  0
VERTEX
  8
0
 10
35.82
 20
180.614
 30
0.0
 40
0
 41
0
  0
VERTEX
  8
0
 10
35.2961
 20
180.006
 30
0.0
 40
0
 41
0
  0
VERTEX
  8
0
 10
34.8829
 20
179.564
 30
0.0
 40
0
 41
0
  0
VERTEX
  8
0
 10
34.7406
 20
179.421
 30
0.0
 40
0
 41
0
  0
VERTEX
  8
0
 10
34.5981
 20
179.279
 30
0.0
 40
0
 41
0
  0
VERTEX
  8
0
 10
34.1567
 20
178.865
 30
0.0
 40
0
 41
0
  0
VERTEX
  8
0
 10
33.5486
 20
178.342
 30
0.0
 40
0
 41
0
  0
VERTEX
  8
0
 10
32.9178
 20
177.85
 30
0.0
 40
0
 41
0
  0
VERTEX
  8
0
 10
32.2656
 20
177.392
 30
0.0
 40
0
 41
0
  0
VERTEX
  8
0
 10
31.5932
 20
176.967
 30
0.0
 40
0
 41
0
  0
VERTEX
  8
0
 10
30.9021
 20
176.576
 30
0.0
 40
0
 41
0
  0
VERTEX
  8
0
 10
30.1933
 20
176.219
 30
0.0
 40
0
 41
0
  0
VERTEX
  8
0
 10
29.4686
 20
175.899
 30
0.0
 40
0
 41
0
  0
VERTEX
  8
0
 10
28.7292
 20
175.614
 30
0.0
 40
0
 41
0
  0
VERTEX
  8
0
 10
27.9761
 20
175.364
 30
0.0
 40
0
 41
0
  0
VERTEX
  8
0
 10
27.211
 20
175.151
 30
0.0
 40
0
 41
0
  0
VERTEX
  8
0
 10
26.435
 20
174.976
 30
0.0
 40
0
 41
0
  0
VERTEX
  8
0
 10
25.6496
 20
174.84
 30
0.0
 40
0
 41
0
  0
VERTEX
  8
0
 10
24.8561
 20
174.742
 30
0.0
 40
0
 41
0
  0
VERTEX
  8
0
 10
24.0558
 20
174.682
 30
0.0
 40
0
 41
0
  0
VERTEX
  8
0
 10
23.4515
 20
174.663
 30
0.0
 40
0
 41
0
  0
VERTEX
  8
0
 10
23.25
 20
174.663
 30
0.0
 40
0
 41
0
  0
VERTEX
  8
0
 10
23.0486
 20
174.663
 30
0.0
 40
0
 41
0
  0
VERTEX
  8
0
 10
22.4442
 20
174.682
 30
0.0
 40
0
 41
0
  0
VERTEX
  8
0
 10
21.6439
 20
174.742
 30
0.0
 40
0
 41
0
  0
VERTEX
  8
0
 10
20.8504
 20
174.84
 30
0.0
 40
0
 41
0
  0
VERTEX
  8
0
 10
20.065
 20
174.976
 30
0.0
 40
0
 41
0
  0
VERTEX
  8
0
 10
19.289
 20
175.151
 30
0.0
 40
0
 41
0
  0
VERTEX
  8
0
 10
18.5239
 20
175.364
 30
0.0
 40
0
 41
0
  0
VERTEX
  8
0
 10
17.771
 20
175.614
 30
0.0
 40
0
 41
0
  0
VERTEX
  8
0
 10
17.0314
 20
175.899
 30
0.0
 40
0
 41
0
  0
VERTEX
  8
0
 10
16.3067
 20
176.219
 30
0.0
 40
0
 41
0
  0
VERTEX
  8
0
 10
15.5981
 20
176.576
 30
0.0
 40
0
 41
0
  0
VERTEX
  8
0
 10
14.9069
 20
176.967
 30
0.0
 40
0
 41
0
  0
VERTEX
  8
0
 10
14.2344
 20
177.392
 30
0.0
 40
0
 41
0
  0
VERTEX
  8
0
 10
13.5823
 20
177.85
 30
0.0
 40
0
 41
0
  0
VERTEX
  8
0
 10
12.9514
 20
178.342
 30
0.0
 40
0
 41
0
  0
VERTEX
  8
0
 10
12.3434
 20
178.865
 30
0.0
 40
0
 41
0
  0
VERTEX
  8
0
 10
11.902
 20
179.279
 30
0.0
 40
0
 41
0
  0
VERTEX
  8
0
 10
11.7596
 20
179.421
 30
0.0
 40
0
 41
0
  0
VERTEX
  8
0
 10
11.6171
 20
179.564
 30
0.0
 40
0
 41
0
  0
VERTEX
  8
0
 10
11.2039
 20
180.006
 30
0.0
 40
0
 41
0
  0
VERTEX
  8
0
 10
10.6801
 20
180.614
 30
0.0
 40
0
 41
0
  0
VERTEX
  8
0
 10
10.1886
 20
181.244
 30
0.0
 40
0
 41
0
  0
VERTEX
  8
0
 10
9.73019
 20
181.896
 30
0.0
 40
0
 41
0
  0
VERTEX
  8
0
 10
9.30524
 20
182.568
 30
0.0
 40
0
 41
0
  0
VERTEX
  8
0
 10
8.91433
 20
183.26
 30
0.0
 40
0
 41
0
  0
VERTEX
  8
0
 10
8.55806
 20
183.968
 30
0.0
 40
0
 41
0
  0
VERTEX
  8
0
 10
8.23693
 20
184.693
 30
0.0
 40
0
 41
0
  0
VERTEX
  8
0
 10
7.95156
 20
185.433
 30
0.0
 40
0
 41
0
  0
VERTEX
  8
0
 10
7.70236
 20
186.186
 30
0.0
 40
0
 41
0
  0
VERTEX
  8
0
 10
7.49007
 20
186.951
 30
0.0
 40
0
 41
0
  0
VERTEX
  8
0
 10
7.31511
 20
187.726
 30
0.0
 40
0
 41
0
  0
VERTEX
  8
0
 10
7.17806
 20
188.513
 30
0.0
 40
0
 41
0
  0
VERTEX
  8
0
 10
7.07949
 20
189.306
 30
0.0
 40
0
 41
0
  0
VERTEX
  8
0
 10
7.01997
 20
190.106
 30
0.0
 40
0
 41
0
  0
VERTEX
  8
0
 10
7
 20
190.71
 30
0.0
 40
0
 41
0
  0
VERTEX
  8
0
 10
7
 20
190.913
 30
0.0
 40
0
 41
0
  0
VERTEX
  8
0
 10
7
 20
191.114
 30
0.0
 40
0
 41
0
  0
VERTEX
  8
0
 10
7.01997
 20
191.718
 30
0.0
 40
0
 41
0
  0
VERTEX
  8
0
 10
7.07949
 20
192.518
 30
0.0
 40
0
 41
0
  0
VERTEX
  8
0
 10
7.17806
 20
193.311
 30
0.0
 40
0
 41
0
  0
VERTEX
  8
0
 10
7.31511
 20
194.097
 30
0.0
 40
0
 41
0
  0
VERTEX
  8
0
 10
7.49007
 20
194.872
 30
0.0
 40
0
 41
0
  0
VERTEX
  8
0
 10
7.70236
 20
195.638
 30
0.0
 40
0
 41
0
  0
VERTEX
  8
0
 10
7.95156
 20
196.39
 30
0.0
 40
0
 41
0
  0
VERTEX
  8
0
 10
8.23693
 20
197.131
 30
0.0
 40
0
 41
0
  0
VERTEX
  8
0
 10
8.55806
 20
197.856
 30
0.0
 40
0
 41
0
  0
VERTEX
  8
0
 10
8.91433
 20
198.564
 30
0.0
 40
0
 41
0
  0
VERTEX
  8
0
 10
9.30524
 20
199.256
 30
0.0
 40
0
 41
0
  0
VERTEX
  8
0
 10
9.73019
 20
199.928
 30
0.0
 40
0
 41
0
  0
VERTEX
  8
0
 10
10.1886
 20
200.579
 30
0.0
 40
0
 41
0
  0
VERTEX
  8
0
 10
10.6801
 20
201.211
 30
0.0
 40
0
 41
0
  0
VERTEX
  8
0
 10
11.2039
 20
201.818
 30
0.0
 40
0
 41
0
  0
VERTEX
  8
0
 10
11.6171
 20
202.26
 30
0.0
 40
0
 41
0
  0
VERTEX
  8
0
 10
11.7596
 20
202.403
 30
0.0
 40
0
 41
0
  0
VERTEX
  8
0
 10
11.902
 20
202.544
 30
0.0
 40
0
 41
0
  0
VERTEX
  8
0
 10
12.3434
 20
202.958
 30
0.0
 40
0
 41
0
  0
VERTEX
  8
0
 10
12.9514
 20
203.482
 30
0.0
 40
0
 41
0
  0
VERTEX
  8
0
 10
13.5823
 20
203.974
 30
0.0
 40
0
 41
0
  0
VERTEX
  8
0
 10
14.2344
 20
204.432
 30
0.0
 40
0
 41
0
  0
VERTEX
  8
0
 10
14.9069
 20
204.857
 30
0.0
 40
0
 41
0
  0
VERTEX
  8
0
 10
15.5981
 20
205.247
 30
0.0
 40
0
 41
0
  0
VERTEX
  8
0
 10
16.3067
 20
205.604
 30
0.0
 40
0
 41
0
  0
VERTEX
  8
0
 10
17.0314
 20
205.925
 30
0.0
 40
0
 41
0
  0
VERTEX
  8
0
 10
17.771
 20
206.21
 30
0.0
 40
0
 41
0
  0
VERTEX
  8
0
 10
18.5239
 20
206.46
 30
0.0
 40
0
 41
0
  0
VERTEX
  8
0
 10
19.289
 20
206.672
 30
0.0
 40
0
 41
0
  0
VERTEX
  8
0
 10
20.065
 20
206.847
 30
0.0
 40
0
 41
0
  0
VERTEX
  8
0
 10
20.8504
 20
206.983
 30
0.0
 40
0
 41
0
  0
VERTEX
  8
0
 10
21.6439
 20
207.082
 30
0.0
 40
0
 41
0
  0
VERTEX
  8
0
 10
22.4442
 20
207.142
 30
0.0
 40
0
 41
0
  0
VERTEX
  8
0
 10
23.0486
 20
207.163
 30
0.0
 40
0
 41
0
  0
VERTEX
  8
0
 10
23.25
 20
207.163
 30
0.0
 40
0
 41
0
  0
SEQEND
 8
0
  0
POLYLINE
  8
0
 62
     0
 66
     1
 10
0
 20
0
 30
0.0
 70
     1
 40
0
 41
0
  0
VERTEX
  8
0
 10
23.25
 20
170.663
 30
0.0
 40
0
 41
0
  0
VERTEX
  8
0
 10
23.4515
 20
170.663
 30
0.0
 40
0
 41
0
  0
VERTEX
  8
0
 10
24.0558
 20
170.642
 30
0.0
 40
0
 41
0
  0
VERTEX
  8
0
 10
24.8561
 20
170.582
 30
0.0
 40
0
 41
0
  0
VERTEX
  8
0
 10
25.6496
 20
170.483
 30
0.0
 40
0
 41
0
  0
VERTEX
  8
0
 10
26.435
 20
170.347
 30
0.0
 40
0
 41
0
  0
VERTEX
  8
0
 10
27.211
 20
170.172
 30
0.0
 40
0
 41
0
  0
VERTEX
  8
0
 10
27.9761
 20
169.96
 30
0.0
 40
0
 41
0
  0
VERTEX
  8
0
 10
28.7292
 20
169.71
 30
0.0
 40
0
 41
0
  0
VERTEX
  8
0
 10
29.4686
 20
169.425
 30
0.0
 40
0
 41
0
  0
VERTEX
  8
0
 10
30.1933
 20
169.104
 30
0.0
 40
0
 41
0
  0
VERTEX
  8
0
 10
30.9021
 20
168.747
 30
0.0
 40
0
 41
0
  0
VERTEX
  8
0
 10
31.5932
 20
168.357
 30
0.0
 40
0
 41
0
  0
VERTEX
  8
0
 10
32.2656
 20
167.932
 30
0.0
 40
0
 41
0
  0
VERTEX
  8
0
 10
32.9178
 20
167.474
 30
0.0
 40
0
 41
0
  0
VERTEX
  8
0
 10
33.5486
 20
166.982
 30
0.0
 40
0
 41
0
  0
VERTEX
  8
0
 10
34.1567
 20
166.458
 30
0.0
 40
0
 41
0
  0
VERTEX
  8
0
 10
34.5981
 20
166.044
 30
0.0
 40
0
 41
0
  0
VERTEX
  8
0
 10
34.7406
 20
165.903
 30
0.0
 40
0
 41
0
  0
VERTEX
  8
0
 10
34.8829
 20
165.76
 30
0.0
 40
0
 41
0
  0
VERTEX
  8
0
 10
35.2961
 20
165.318
 30
0.0
 40
0
 41
0
  0
VERTEX
  8
0
 10
35.82
 20
164.71
 30
0.0
 40
0
 41
0
  0
VERTEX
  8
0
 10
36.3114
 20
164.079
 30
0.0
 40
0
 41
0
  0
VERTEX
  8
0
 10
36.7699
 20
163.428
 30
0.0
 40
0
 41
0
  0
VERTEX
  8
0
 10
37.1949
 20
162.756
 30
0.0
 40
0
 41
0
  0
VERTEX
  8
0
 10
37.5857
 20
162.064
 30
0.0
 40
0
 41
0
  0
VERTEX
  8
0
 10
37.9419
 20
161.356
 30
0.0
 40
0
 41
0
  0
VERTEX
  8
0
 10
38.2631
 20
160.631
 30
0.0
 40
0
 41
0
  0
VERTEX
  8
0
 10
38.5485
 20
159.89
 30
0.0
 40
0
 41
0
  0
VERTEX
  8
0
 10
38.7976
 20
159.138
 30
0.0
 40
0
 41
0
  0
VERTEX
  8
0
 10
39.0099
 20
158.372
 30
0.0
 40
0
 41
0
  0
VERTEX
  8
0
 10
39.1849
 20
157.597
 30
0.0
 40
0
 41
0
  0
VERTEX
  8
0
 10
39.3219
 20
156.811
 30
0.0
 40
0
 41
0
  0
VERTEX
  8
0
 10
39.4206
 20
156.018
 30
0.0
 40
0
 41
0
  0
VERTEX
  8
0
 10
39.48
 20
155.218
 30
0.0
 40
0
 41
0
  0
VERTEX
  8
0
 10
39.5
 20
154.614
 30
0.0
 40
0
 41
0
  0
VERTEX
  8
0
 10
39.5
 20
154.411
 30
0.0
 40
0
 41
0
  0
VERTEX
  8
0
 10
39.5
 20
154.21
 30
0.0
 40
0
 41
0
  0
VERTEX
  8
0
 10
39.48
 20
153.606
 30
0.0
 40
0
 41
0
  0
VERTEX
  8
0
 10
39.4206
 20
152.806
 30
0.0
 40
0
 41
0
  0
VERTEX
  8
0
 10
39.3219
 20
152.013
 30
0.0
 40
0
 41
0
  0
VERTEX
  8
0
 10
39.1849
 20
151.226
 30
0.0
 40
0
 41
0
  0
VERTEX
  8
0
 10
39.0099
 20
150.451
 30
0.0
 40
0
 41
0
  0
VERTEX
  8
0
 10
38.7976
 20
149.686
 30
0.0
 40
0
 41
0
  0
VERTEX
  8
0
 10
38.5485
 20
148.933
 30
0.0
 40
0
 41
0
  0
VERTEX
  8
0
 10
38.2631
 20
148.193
 30
0.0
 40
0
 41
0
  0
VERTEX
  8
0
 10
37.9419
 20
147.468
 30
0.0
 40
0
 41
0
  0
VERTEX
  8
0
 10
37.5857
 20
146.76
 30
0.0
 40
0
 41
0
  0
VERTEX
  8
0
 10
37.1949
 20
146.068
 30
0.0
 40
0
 41
0
  0
VERTEX
  8
0
 10
36.7699
 20
145.396
 30
0.0
 40
0
 41
0
  0
VERTEX
  8
0
 10
36.3114
 20
144.744
 30
0.0
 40
0
 41
0
  0
VERTEX
  8
0
 10
35.82
 20
144.114
 30
0.0
 40
0
 41
0
  0
VERTEX
  8
0
 10
35.2961
 20
143.506
 30
0.0
 40
0
 41
0
  0
VERTEX
  8
0
 10
34.8829
 20
143.064
 30
0.0
 40
0
 41
0
  0
VERTEX
  8
0
 10
34.7406
 20
142.921
 30
0.0
 40
0
 41
0
  0
VERTEX
  8
0
 10
34.5981
 20
142.779
 30
0.0
 40
0
 41
0
  0
VERTEX
  8
0
 10
34.1567
 20
142.365
 30
0.0
 40
0
 41
0
  0
VERTEX
  8
0
 10
33.5486
 20
141.842
 30
0.0
 40
0
 41
0
  0
VERTEX
  8
0
 10
32.9178
 20
141.35
 30
0.0
 40
0
 41
0
  0
VERTEX
  8
0
 10
32.2656
 20
140.892
 30
0.0
 40
0
 41
0
  0
VERTEX
  8
0
 10
31.5932
 20
140.467
 30
0.0
 40
0
 41
0
  0
VERTEX
  8
0
 10
30.9021
 20
140.076
 30
0.0
 40
0
 41
0
  0
VERTEX
  8
0
 10
30.1933
 20
139.719
 30
0.0
 40
0
 41
0
  0
VERTEX
  8
0
 10
29.4686
 20
139.399
 30
0.0
 40
0
 41
0
  0
VERTEX
  8
0
 10
28.7292
 20
139.114
 30
0.0
 40
0
 41
0
  0
VERTEX
  8
0
 10
27.9761
 20
138.864
 30
0.0
 40
0
 41
0
  0
VERTEX
  8
0
 10
27.211
 20
138.652
 30
0.0
 40
0
 41
0
  0
VERTEX
  8
0
 10
26.435
 20
138.477
 30
0.0
 40
0
 41
0
  0
VERTEX
  8
0
 10
25.6496
 20
138.34
 30
0.0
 40
0
 41
0
  0
VERTEX
  8
0
 10
24.8561
 20
138.241
 30
0.0
 40
0
 41
0
  0
VERTEX
  8
0
 10
24.0558
 20
138.182
 30
0.0
 40
0
 41
0
  0
VERTEX
  8
0
 10
23.4515
 20
138.162
 30
0.0
 40
0
 41
0
  0
VERTEX
  8
0
 10
23.25
 20
138.162
 30
0.0
 40
0
 41
0
  0
VERTEX
  8
0
 10
23.0486
 20
138.162
 30
0.0
 40
0
 41
0
  0
VERTEX
  8
0
 10
22.4442
 20
138.182
 30
0.0
 40
0
 41
0
  0
VERTEX
  8
0
 10
21.6439
 20
138.241
 30
0.0
 40
0
 41
0
  0
VERTEX
  8
0
 10
20.8504
 20
138.34
 30
0.0
 40
0
 41
0
  0
VERTEX
  8
0
 10
20.065
 20
138.477
 30
0.0
 40
0
 41
0
  0
VERTEX
  8
0
 10
19.289
 20
138.652
 30
0.0
 40
0
 41
0
  0
VERTEX
  8
0
 10
18.5239
 20
138.864
 30
0.0
 40
0
 41
0
  0
VERTEX
  8
0
 10
17.771
 20
139.114
 30
0.0
 40
0
 41
0
  0
VERTEX
  8
0
 10
17.0314
 20
139.399
 30
0.0
 40
0
 41
0
  0
VERTEX
  8
0
 10
16.3067
 20
139.719
 30
0.0
 40
0
 41
0
  0
VERTEX
  8
0
 10
15.5981
 20
140.076
 30
0.0
 40
0
 41
0
  0
VERTEX
  8
0
 10
14.9069
 20
140.467
 30
0.0
 40
0
 41
0
  0
VERTEX
  8
0
 10
14.2344
 20
140.892
 30
0.0
 40
0
 41
0
  0
VERTEX
  8
0
 10
13.5823
 20
141.35
 30
0.0
 40
0
 41
0
  0
VERTEX
  8
0
 10
12.9514
 20
141.842
 30
0.0
 40
0
 41
0
  0
VERTEX
  8
0
 10
12.3434
 20
142.365
 30
0.0
 40
0
 41
0
  0
VERTEX
  8
0
 10
11.902
 20
142.779
 30
0.0
 40
0
 41
0
  0
VERTEX
  8
0
 10
11.7596
 20
142.921
 30
0.0
 40
0
 41
0
  0
VERTEX
  8
0
 10
11.6171
 20
143.064
 30
0.0
 40
0
 41
0
  0
VERTEX
  8
0
 10
11.2039
 20
143.506
 30
0.0
 40
0
 41
0
  0
VERTEX
  8
0
 10
10.6801
 20
144.114
 30
0.0
 40
0
 41
0
  0
VERTEX
  8
0
 10
10.1886
 20
144.744
 30
0.0
 40
0
 41
0
  0
VERTEX
  8
0
 10
9.73019
 20
145.396
 30
0.0
 40
0
 41
0
  0
VERTEX
  8
0
 10
9.30524
 20
146.068
 30
0.0
 40
0
 41
0
  0
VERTEX
  8
0
 10
8.91433
 20
146.76
 30
0.0
 40
0
 41
0
  0
VERTEX
  8
0
 10
8.55806
 20
147.468
 30
0.0
 40
0
 41
0
  0
VERTEX
  8
0
 10
8.23693
 20
148.193
 30
0.0
 40
0
 41
0
  0
VERTEX
  8
0
 10
7.95156
 20
148.933
 30
0.0
 40
0
 41
0
  0
VERTEX
  8
0
 10
7.70236
 20
149.686
 30
0.0
 40
0
 41
0
  0
VERTEX
  8
0
 10
7.49007
 20
150.451
 30
0.0
 40
0
 41
0
  0
VERTEX
  8
0
 10
7.31511
 20
151.226
 30
0.0
 40
0
 41
0
  0
VERTEX
  8
0
 10
7.17806
 20
152.013
 30
0.0
 40
0
 41
0
  0
VERTEX
  8
0
 10
7.07949
 20
152.806
 30
0.0
 40
0
 41
0
  0
VERTEX
  8
0
 10
7.01997
 20
153.606
 30
0.0
 40
0
 41
0
  0
VERTEX
  8
0
 10
7
 20
154.21
 30
0.0
 40
0
 41
0
  0
VERTEX
  8
0
 10
7
 20
154.411
 30
0.0
 40
0
 41
0
  0
VERTEX
  8
0
 10
7
 20
154.614
 30
0.0
 40
0
 41
0
  0
VERTEX
  8
0
 10
7.01997
 20
155.218
 30
0.0
 40
0
 41
0
  0
VERTEX
  8
0
 10
7.07949
 20
156.018
 30
0.0
 40
0
 41
0
  0
VERTEX
  8
0
 10
7.17806
 20
156.811
 30
0.0
 40
0
 41
0
  0
VERTEX
  8
0
 10
7.31511
 20
157.597
 30
0.0
 40
0
 41
0
  0
VERTEX
  8
0
 10
7.49007
 20
158.372
 30
0.0
 40
0
 41
0
  0
VERTEX
  8
0
 10
7.70236
 20
159.138
 30
0.0
 40
0
 41
0
  0
VERTEX
  8
0
 10
7.95156
 20
159.89
 30
0.0
 40
0
 41
0
  0
VERTEX
  8
0
 10
8.23693
 20
160.631
 30
0.0
 40
0
 41
0
  0
VERTEX
  8
0
 10
8.55806
 20
161.356
 30
0.0
 40
0
 41
0
  0
VERTEX
  8
0
 10
8.91433
 20
162.064
 30
0.0
 40
0
 41
0
  0
VERTEX
  8
0
 10
9.30524
 20
162.756
 30
0.0
 40
0
 41
0
  0
VERTEX
  8
0
 10
9.73019
 20
163.428
 30
0.0
 40
0
 41
0
  0
VERTEX
  8
0
 10
10.1886
 20
164.079
 30
0.0
 40
0
 41
0
  0
VERTEX
  8
0
 10
10.6801
 20
164.71
 30
0.0
 40
0
 41
0
  0
VERTEX
  8
0
 10
11.2039
 20
165.318
 30
0.0
 40
0
 41
0
  0
VERTEX
  8
0
 10
11.6171
 20
165.76
 30
0.0
 40
0
 41
0
  0
VERTEX
  8
0
 10
11.7596
 20
165.903
 30
0.0
 40
0
 41
0
  0
VERTEX
  8
0
 10
11.902
 20
166.044
 30
0.0
 40
0
 41
0
  0
VERTEX
  8
0
 10
12.3434
 20
166.458
 30
0.0
 40
0
 41
0
  0
VERTEX
  8
0
 10
12.9514
 20
166.982
 30
0.0
 40
0
 41
0
  0
VERTEX
  8
0
 10
13.5823
 20
167.474
 30
0.0
 40
0
 41
0
  0
VERTEX
  8
0
 10
14.2344
 20
167.932
 30
0.0
 40
0
 41
0
  0
VERTEX
  8
0
 10
14.9069
 20
168.357
 30
0.0
 40
0
 41
0
  0
VERTEX
  8
0
 10
15.5981
 20
168.747
 30
0.0
 40
0
 41
0
  0
VERTEX
  8
0
 10
16.3067
 20
169.104
 30
0.0
 40
0
 41
0
  0
VERTEX
  8
0
 10
17.0314
 20
169.425
 30
0.0
 40
0
 41
0
  0
VERTEX
  8
0
 10
17.771
 20
169.71
 30
0.0
 40
0
 41
0
  0
VERTEX
  8
0
 10
18.5239
 20
169.96
 30
0.0
 40
0
 41
0
  0
VERTEX
  8
0
 10
19.289
 20
170.172
 30
0.0
 40
0
 41
0
  0
VERTEX
  8
0
 10
20.065
 20
170.347
 30
0.0
 40
0
 41
0
  0
VERTEX
  8
0
 10
20.8504
 20
170.483
 30
0.0
 40
0
 41
0
  0
VERTEX
  8
0
 10
21.6439
 20
170.582
 30
0.0
 40
0
 41
0
  0
VERTEX
  8
0
 10
22.4442
 20
170.642
 30
0.0
 40
0
 41
0
  0
VERTEX
  8
0
 10
23.0486
 20
170.663
 30
0.0
 40
0
 41
0
  0
VERTEX
  8
0
 10
23.25
 20
170.663
 30
0.0
 40
0
 41
0
  0
SEQEND
 8
0
  0
POLYLINE
  8
0
 62
     0
 66
     1
 10
0
 20
0
 30
0.0
 70
     1
 40
0
 41
0
  0
VERTEX
  8
0
 10
12.5
 20
117.013
 30
0.0
 40
0
 41
0
  0
VERTEX
  8
0
 10
12.5
 20
114.013
 30
0.0
 40
0
 41
0
  0
VERTEX
  8
0
 10
0
 20
114.013
 30
0.0
 40
0
 41
0
  0
VERTEX
  8
0
 10
0
 20
98.5133
 30
0.0
 40
0
 41
0
  0
VERTEX
  8
0
 10
12.5
 20
98.5133
 30
0.0
 40
0
 41
0
  0
VERTEX
  8
0
 10
12.5
 20
95.5133
 30
0.0
 40
0
 41
0
  0
VERTEX
  8
0
 10
0
 20
95.5133
 30
0.0
 40
0
 41
0
  0
VERTEX
  8
0
 10
0
 20
60.0132
 30
0.0
 40
0
 41
0
  0
VERTEX
  8
0
 10
12.5
 20
60.0132
 30
0.0
 40
0
 41
0
  0
VERTEX
  8
0
 10
12.5
 20
57.0132
 30
0.0
 40
0
 41
0
  0
VERTEX
  8
0
 10
21.5
 20
57.0132
 30
0.0
 40
0
 41
0
  0
VERTEX
  8
0
 10
21.5
 20
60.0132
 30
0.0
 40
0
 41
0
  0
VERTEX
  8
0
 10
34
 20
60.0132
 30
0.0
 40
0
 41
0
  0
VERTEX
  8
0
 10
34
 20
57.0132
 30
0.0
 40
0
 41
0
  0
VERTEX
  8
0
 10
43
 20
57.0132
 30
0.0
 40
0
 41
0
  0
VERTEX
  8
0
 10
43
 20
60.0132
 30
0.0
 40
0
 41
0
  0
VERTEX
  8
0
 10
55.5001
 20
60.0132
 30
0.0
 40
0
 41
0
  0
VERTEX
  8
0
 10
55.5001
 20
57.0132
 30
0.0
 40
0
 41
0
  0
VERTEX
  8
0
 10
64.5001
 20
57.0132
 30
0.0
 40
0
 41
0
  0
VERTEX
  8
0
 10
64.5001
 20
60.0132
 30
0.0
 40
0
 41
0
  0
VERTEX
  8
0
 10
77.0001
 20
60.0132
 30
0.0
 40
0
 41
0
  0
VERTEX
  8
0
 10
77.0001
 20
95.5133
 30
0.0
 40
0
 41
0
  0
VERTEX
  8
0
 10
64.5001
 20
95.5133
 30
0.0
 40
0
 41
0
  0
VERTEX
  8
0
 10
64.5001
 20
98.5133
 30
0.0
 40
0
 41
0
  0
VERTEX
  8
0
 10
77.0001
 20
98.5133
 30
0.0
 40
0
 41
0
  0
VERTEX
  8
0
 10
77.0001
 20
114.013
 30
0.0
 40
0
 41
0
  0
VERTEX
  8
0
 10
64.5001
 20
114.013
 30
0.0
 40
0
 41
0
  0
VERTEX
  8
0
 10
64.5001
 20
117.013
 30
0.0
 40
0
 41
0
  0
VERTEX
  8
0
 10
55.5001
 20
117.013
 30
0.0
 40
0
 41
0
  0
VERTEX
  8
0
 10
55.5001
 20
114.013
 30
0.0
 40
0
 41
0
  0
VERTEX
  8
0
 10
43
 20
114.013
 30
0.0
 40
0
 41
0
  0
VERTEX
  8
0
 10
43
 20
117.013
 30
0.0
 40
0
 41
0
  0
VERTEX
  8
0
 10
34
 20
117.013
 30
0.0
 40
0
 41
0
  0
VERTEX
  8
0
 10
34
 20
114.013
 30
0.0
 40
0
 41
0
  0
VERTEX
  8
0
 10
21.5
 20
114.013
 30
0.0
 40
0
 41
0
  0
VERTEX
  8
0
 10
21.5
 20
117.013
 30
0.0
 40
0
 41
0
  0
VERTEX
  8
0
 10
12.5
 20
117.013
 30
0.0
 40
0
 41
0
  0
SEQEND
 8
0
  0
POLYLINE
  8
0
 62
     0
 66
     1
 10
0
 20
0
 30
0.0
 70
     1
 40
0
 41
0
  0
VERTEX
  8
0
 10
21.5
 20
98.5133
 30
0.0
 40
0
 41
0
  0
VERTEX
  8
0
 10
34
 20
98.5133
 30
0.0
 40
0
 41
0
  0
VERTEX
  8
0
 10
34
 20
95.5133
 30
0.0
 40
0
 41
0
  0
VERTEX
  8
0
 10
21.5
 20
95.5133
 30
0.0
 40
0
 41
0
  0
VERTEX
  8
0
 10
21.5
 20
98.5133
 30
0.0
 40
0
 41
0
  0
SEQEND
 8
0
  0
POLYLINE
  8
0
 62
     0
 66
     1
 10
0
 20
0
 30
0.0
 70
     1
 40
0
 41
0
  0
VERTEX
  8
0
 10
43
 20
98.5133
 30
0.0
 40
0
 41
0
  0
VERTEX
  8
0
 10
55.5001
 20
98.5133
 30
0.0
 40
0
 41
0
  0
VERTEX
  8
0
 10
55.5001
 20
95.5133
 30
0.0
 40
0
 41
0
  0
VERTEX
  8
0
 10
43
 20
95.5133
 30
0.0
 40
0
 41
0
  0
VERTEX
  8
0
 10
43
 20
98.5133
 30
0.0
 40
0
 41
0
  0
SEQEND
 8
0
  0
POLYLINE
  8
0
 62
     0
 66
     1
 10
0
 20
0
 30
0.0
 70
     1
 40
0
 41
0
  0
VERTEX
  8
0
 10
98.5001
 20
3.01313
 30
0.0
 40
0
 41
0
  0
VERTEX
  8
0
 10
112.167
 20
3.01313
 30
0.0
 40
0
 41
0
  0
VERTEX
  8
0
 10
112.167
 20
0.0131293
 30
0.0
 40
0
 41
0
  0
VERTEX
  8
0
 10
121.167
 20
0.0131293
 30
0.0
 40
0
 41
0
  0
VERTEX
  8
0
 10
121.167
 20
3.01313
 30
0.0
 40
0
 41
0
  0
VERTEX
  8
0
 10
134.834
 20
3.01313
 30
0.0
 40
0
 41
0
  0
VERTEX
  8
0
 10
134.834
 20
18.5132
 30
0.0
 40
0
 41
0
  0
VERTEX
  8
0
 10
121.167
 20
18.5132
 30
0.0
 40
0
 41
0
  0
VERTEX
  8
0
 10
121.167
 20
21.5132
 30
0.0
 40
0
 41
0
  0
VERTEX
  8
0
 10
134.834
 20
21.5132
 30
0.0
 40
0
 41
0
  0
VERTEX
  8
0
 10
134.834
 20
57.0132
 30
0.0
 40
0
 41
0
  0
VERTEX
  8
0
 10
121.167
 20
57.0132
 30
0.0
 40
0
 41
0
  0
VERTEX
  8
0
 10
121.167
 20
60.0132
 30
0.0
 40
0
 41
0
  0
VERTEX
  8
0
 10
112.167
 20
60.0132
 30
0.0
 40
0
 41
0
  0
VERTEX
  8
0
 10
112.167
 20
57.0132
 30
0.0
 40
0
 41
0
  0
VERTEX
  8
0
 10
98.5001
 20
57.0132
 30
0.0
 40
0
 41
0
  0
VERTEX
  8
0
 10
98.5001
 20
60.0132
 30
0.0
 40
0
 41
0
  0
VERTEX
  8
0
 10
89.5001
 20
60.0132
 30
0.0
 40
0
 41
0
  0
VERTEX
  8
0
 10
89.5001
 20
57.0132
 30
0.0
 40
0
 41
0
  0
VERTEX
  8
0
 10
75.8335
 20
57.0132
 30
0.0
 40
0
 41
0
  0
VERTEX
  8
0
 10
75.8335
 20
60.0132
 30
0.0
 40
0
 41
0
  0
VERTEX
  8
0
 10
66.8335
 20
60.0132
 30
0.0
 40
0
 41
0
  0
VERTEX
  8
0
 10
66.8335
 20
57.0132
 30
0.0
 40
0
 41
0
  0
VERTEX
  8
0
 10
53.1668
 20
57.0132
 30
0.0
 40
0
 41
0
  0
VERTEX
  8
0
 10
53.1668
 20
60.0132
 30
0.0
 40
0
 41
0
  0
VERTEX
  8
0
 10
44.1667
 20
60.0132
 30
0.0
 40
0
 41
0
  0
VERTEX
  8
0
 10
44.1667
 20
57.0132
 30
0.0
 40
0
 41
0
  0
VERTEX
  8
0
 10
30.5
 20
57.0132
 30
0.0
 40
0
 41
0
  0
VERTEX
  8
0
 10
30.5
 20
60.0132
 30
0.0
 40
0
 41
0
  0
VERTEX
  8
0
 10
21.5
 20
60.0132
 30
0.0
 40
0
 41
0
  0
VERTEX
  8
0
 10
21.5
 20
57.0132
 30
0.0
 40
0
 41
0
  0
VERTEX
  8
0
 10
7.83333
 20
57.0132
 30
0.0
 40
0
 41
0
  0
VERTEX
  8
0
 10
7.83333
 20
21.5132
 30
0.0
 40
0
 41
0
  0
VERTEX
  8
0
 10
21.5
 20
21.5132
 30
0.0
 40
0
 41
0
  0
VERTEX
  8
0
 10
21.5
 20
18.5132
 30
0.0
 40
0
 41
0
  0
VERTEX
  8
0
 10
7.83333
 20
18.5132
 30
0.0
 40
0
 41
0
  0
VERTEX
  8
0
 10
7.83333
 20
3.01313
 30
0.0
 40
0
 41
0
  0
VERTEX
  8
0
 10
21.5
 20
3.01313
 30
0.0
 40
0
 41
0
  0
VERTEX
  8
0
 10
21.5
 20
0.0131293
 30
0.0
 40
0
 41
0
  0
VERTEX
  8
0
 10
30.5
 20
0.0131293
 30
0.0
 40
0
 41
0
  0
VERTEX
  8
0
 10
30.5
 20
3.01313
 30
0.0
 40
0
 41
0
  0
VERTEX
  8
0
 10
44.1667
 20
3.01313
 30
0.0
 40
0
 41
0
  0
VERTEX
  8
0
 10
44.1667
 20
0.0131293
 30
0.0
 40
0
 41
0
  0
VERTEX
  8
0
 10
53.1668
 20
0.0131293
 30
0.0
 40
0
 41
0
  0
VERTEX
  8
0
 10
53.1668
 20
3.01313
 30
0.0
 40
0
 41
0
  0
VERTEX
  8
0
 10
66.8335
 20
3.01313
 30
0.0
 40
0
 41
0
  0
VERTEX
  8
0
 10
66.8335
 20
0.0131293
 30
0.0
 40
0
 41
0
  0
VERTEX
  8
0
 10
75.8335
 20
0.0131293
 30
0.0
 40
0
 41
0
  0
VERTEX
  8
0
 10
75.8335
 20
3.01313
 30
0.0
 40
0
 41
0
  0
VERTEX
  8
0
 10
89.5001
 20
3.01313
 30
0.0
 40
0
 41
0
  0
VERTEX
  8
0
 10
89.5001
 20
0.0131293
 30
0.0
 40
0
 41
0
  0
VERTEX
  8
0
 10
98.5001
 20
0.0131293
 30
0.0
 40
0
 41
0
  0
VERTEX
  8
0
 10
98.5001
 20
3.01313
 30
0.0
 40
0
 41
0
  0
SEQEND
 8
0
  0
POLYLINE
  8
0
 62
     0
 66
     1
 10
0
 20
0
 30
0.0
 70
     1
 40
0
 41
0
  0
VERTEX
  8
0
 10
30.5
 20
21.5132
 30
0.0
 40
0
 41
0
  0
VERTEX
  8
0
 10
44.1667
 20
21.5132
 30
0.0
 40
0
 41
0
  0
VERTEX
  8
0
 10
44.1667
 20
18.5132
 30
0.0
 40
0
 41
0
  0
VERTEX
  8
0
 10
30.5
 20
18.5132
 30
0.0
 40
0
 41
0
  0
VERTEX
  8
0
 10
30.5
 20
21.5132
 30
0.0
 40
0
 41
0
  0
SEQEND
 8
0
  0
POLYLINE
  8
0
 62
     0
 66
     1
 10
0
 20
0
 30
0.0
 70
     1
 40
0
 41
0
  0
VERTEX
  8
0
 10
53.1668
 20
21.5132
 30
0.0
 40
0
 41
0
  0
VERTEX
  8
0
 10
66.8335
 20
21.5132
 30
0.0
 40
0
 41
0
  0
VERTEX
  8
0
 10
66.8335
 20
18.5132
 30
0.0
 40
0
 41
0
  0
VERTEX
  8
0
 10
53.1668
 20
18.5132
 30
0.0
 40
0
 41
0
  0
VERTEX
  8
0
 10
53.1668
 20
21.5132
 30
0.0
 40
0
 41
0
  0
SEQEND
 8
0
  0
POLYLINE
  8
0
 62
     0
 66
     1
 10
0
 20
0
 30
0.0
 70
     1
 40
0
 41
0
  0
VERTEX
  8
0
 10
75.8335
 20
21.5132
 30
0.0
 40
0
 41
0
  0
VERTEX
  8
0
 10
89.5001
 20
21.5132
 30
0.0
 40
0
 41
0
  0
VERTEX
  8
0
 10
89.5001
 20
18.5132
 30
0.0
 40
0
 41
0
  0
VERTEX
  8
0
 10
75.8335
 20
18.5132
 30
0.0
 40
0
 41
0
  0
VERTEX
  8
0
 10
75.8335
 20
21.5132
 30
0.0
 40
0
 41
0
  0
SEQEND
 8
0
  0
POLYLINE
  8
0
 62
     0
 66
     1
 10
0
 20
0
 30
0.0
 70
     1
 40
0
 41
0
  0
VERTEX
  8
0
 10
98.5001
 20
21.5132
 30
0.0
 40
0
 41
0
  0
VERTEX
  8
0
 10
112.167
 20
21.5132
 30
0.0
 40
0
 41
0
  0
VERTEX
  8
0
 10
112.167
 20
18.5132
 30
0.0
 40
0
 41
0
  0
VERTEX
  8
0
 10
98.5001
 20
18.5132
 30
0.0
 40
0
 41
0
  0
VERTEX
  8
0
 10
98.5001
 20
21.5132
 30
0.0
 40
0
 41
0
  0
SEQEND
 8
0
  0
POLYLINE
  8
0
 62
     0
 66
     1
 10
0
 20
0
 30
0.0
 70
     1
 40
0
 41
0
  0
VERTEX
  8
0
 10
25.8333
 20
12.0132
 30
0.0
 40
0
 41
0
  0
VERTEX
  8
0
 10
25.8333
 20
11.9493
 30
0.0
 40
0
 41
0
  0
VERTEX
  8
0
 10
25.8204
 20
11.7576
 30
0.0
 40
0
 41
0
  0
VERTEX
  8
0
 10
25.7825
 20
11.5094
 30
0.0
 40
0
 41
0
  0
VERTEX
  8
0
 10
25.721
 20
11.2698
 30
0.0
 40
0
 41
0
  0
VERTEX
  8
0
 10
25.6369
 20
11.0401
 30
0.0
 40
0
 41
0
  0
VERTEX
  8
0
 10
25.5317
 20
10.8215
 30
0.0
 40
0
 41
0
  0
VERTEX
  8
0
 10
25.4064
 20
10.6154
 30
0.0
 40
0
 41
0
  0
VERTEX
  8
0
 10
25.2625
 20
10.423
 30
0.0
 40
0
 41
0
  0
VERTEX
  8
0
 10
25.1011
 20
10.2454
 30
0.0
 40
0
 41
0
  0
VERTEX
  8
0
 10
24.9236
 20
10.084
 30
0.0
 40
0
 41
0
  0
VERTEX
  8
0
 10
24.7311
 20
9.94011
 30
0.0
 40
0
 41
0
  0
VERTEX
  8
0
 10
24.525
 20
9.81489
 30
0.0
 40
0
 41
0
  0
VERTEX
  8
0
 10
24.3065
 20
9.70964
 30
0.0
 40
0
 41
0
  0
VERTEX
  8
0
 10
24.0768
 20
9.62554
 30
0.0
 40
0
 41
0
  0
VERTEX
  8
0
 10
23.8372
 20
9.56396
 30
0.0
 40
0
 41
0
  0
VERTEX
  8
0
 10
23.589
 20
9.52604
 30
0.0
 40
0
 41
0
  0
VERTEX
  8
0
 10
23.3972
 20
9.51313
 30
0.0
 40
0
 41
0
  0
VERTEX
  8
0
 10
23.3333
 20
9.51313
 30
0.0
 40
0
 41
0
  0
VERTEX
  8
0
 10
23.2694
 20
9.51313
 30
0.0
 40
0
 41
0
  0
VERTEX
  8
0
 10
23.0778
 20
9.52604
 30
0.0
 40
0
 41
0
  0
VERTEX
  8
0
 10
22.8296
 20
9.56396
 30
0.0
 40
0
 41
0
  0
VERTEX
  8
0
 10
22.5899
 20
9.62554
 30
0.0
 40
0
 41
0
  0
VERTEX
  8
0
 10
22.3603
 20
9.70964
 30
0.0
 40
0
 41
0
  0
VERTEX
  8
0
 10
22.1417
 20
9.81489
 30
0.0
 40
0
 41
0
  0
VERTEX
  8
0
 10
21.9356
 20
9.94011
 30
0.0
 40
0
 41
0
  0
VERTEX
  8
0
 10
21.7431
 20
10.084
 30
0.0
 40
0
 41
0
  0
VERTEX
  8
0
 10
21.5656
 20
10.2454
 30
0.0
 40
0
 41
0
  0
VERTEX
  8
0
 10
21.4043
 20
10.423
 30
0.0
 40
0
 41
0
  0
VERTEX
  8
0
 10
21.2603
 20
10.6154
 30
0.0
 40
0
 41
0
  0
VERTEX
  8
0
 10
21.1351
 20
10.8215
 30
0.0
 40
0
 41
0
  0
VERTEX
  8
0
 10
21.0299
 20
11.0401
 30
0.0
 40
0
 41
0
  0
VERTEX
  8
0
 10
20.9457
 20
11.2698
 30
0.0
 40
0
 41
0
  0
VERTEX
  8
0
 10
20.8842
 20
11.5094
 30
0.0
 40
0
 41
0
  0
VERTEX
  8
0
 10
20.8463
 20
11.7576
 30
0.0
 40
0
 41
0
  0
VERTEX
  8
0
 10
20.8333
 20
11.9493
 30
0.0
 40
0
 41
0
  0
VERTEX
  8
0
 10
20.8333
 20
12.0132
 30
0.0
 40
0
 41
0
  0
VERTEX
  8
0
 10
20.8333
 20
12.0771
 30
0.0
 40
0
 41
0
  0
VERTEX
  8
0
 10
20.8463
 20
12.2688
 30
0.0
 40
0
 41
0
  0
VERTEX
  8
0
 10
20.8842
 20
12.517
 30
0.0
 40
0
 41
0
  0
VERTEX
  8
0
 10
20.9457
 20
12.7566
 30
0.0
 40
0
 41
0
  0
VERTEX
  8
0
 10
21.0299
 20
12.9863
 30
0.0
 40
0
 41
0
  0
VERTEX
  8
0
 10
21.1351
 20
13.2049
 30
0.0
 40
0
 41
0
  0
VERTEX
  8
0
 10
21.2603
 20
13.411
 30
0.0
 40
0
 41
0
  0
VERTEX
  8
0
 10
21.4043
 20
13.6035
 30
0.0
 40
0
 41
0
  0
VERTEX
  8
0
 10
21.5656
 20
13.781
 30
0.0
 40
0
 41
0
  0
VERTEX
  8
0
 10
21.7431
 20
13.9424
 30
0.0
 40
0
 41
0
  0
VERTEX
  8
0
 10
21.9356
 20
14.0863
 30
0.0
 40
0
 41
0
  0
VERTEX
  8
0
 10
22.1417
 20
14.2115
 30
0.0
 40
0
 41
0
  0
VERTEX
  8
0
 10
22.3603
 20
14.3167
 30
0.0
 40
0
 41
0
  0
VERTEX
  8
0
 10
22.5899
 20
14.4008
 30
0.0
 40
0
 41
0
  0
VERTEX
  8
0
 10
22.8296
 20
14.4624
 30
0.0
 40
0
 41
0
  0
VERTEX
  8
0
 10
23.0778
 20
14.5003
 30
0.0
 40
0
 41
0
  0
VERTEX
  8
0
 10
23.2694
 20
14.5132
 30
0.0
 40
0
 41
0
  0
VERTEX
  8
0
 10
23.3333
 20
14.5132
 30
0.0
 40
0
 41
0
  0
VERTEX
  8
0
 10
23.3972
 20
14.5132
 30
0.0
 40
0
 41
0
  0
VERTEX
  8
0
 10
23.589
 20
14.5003
 30
0.0
 40
0
 41
0
  0
VERTEX
  8
0
 10
23.8372
 20
14.4624
 30
0.0
 40
0
 41
0
  0
VERTEX
  8
0
 10
24.0768
 20
14.4008
 30
0.0
 40
0
 41
0
  0
VERTEX
  8
0
 10
24.3065
 20
14.3167
 30
0.0
 40
0
 41
0
  0
VERTEX
  8
0
 10
24.525
 20
14.2115
 30
0.0
 40
0
 41
0
  0
VERTEX
  8
0
 10
24.7311
 20
14.0863
 30
0.0
 40
0
 41
0
  0
VERTEX
  8
0
 10
24.9236
 20
13.9424
 30
0.0
 40
0
 41
0
  0
VERTEX
  8
0
 10
25.1011
 20
13.781
 30
0.0
 40
0
 41
0
  0
VERTEX
  8
0
 10
25.2625
 20
13.6035
 30
0.0
 40
0
 41
0
  0
VERTEX
  8
0
 10
25.4064
 20
13.411
 30
0.0
 40
0
 41
0
  0
VERTEX
  8
0
 10
25.5317
 20
13.2049
 30
0.0
 40
0
 41
0
  0
VERTEX
  8
0
 10
25.6369
 20
12.9863
 30
0.0
 40
0
 41
0
  0
VERTEX
  8
0
 10
25.721
 20
12.7566
 30
0.0
 40
0
 41
0
  0
VERTEX
  8
0
 10
25.7825
 20
12.517
 30
0.0
 40
0
 41
0
  0
VERTEX
  8
0
 10
25.8204
 20
12.2688
 30
0.0
 40
0
 41
0
  0
VERTEX
  8
0
 10
25.8333
 20
12.0771
 30
0.0
 40
0
 41
0
  0
VERTEX
  8
0
 10
25.8333
 20
12.0132
 30
0.0
 40
0
 41
0
  0
SEQEND
 8
0
  0
POLYLINE
  8
0
 62
     0
 66
     1
 10
0
 20
0
 30
0.0
 70
     1
 40
0
 41
0
  0
VERTEX
  8
0
 10
121.833
 20
48.0132
 30
0.0
 40
0
 41
0
  0
VERTEX
  8
0
 10
121.833
 20
47.9494
 30
0.0
 40
0
 41
0
  0
VERTEX
  8
0
 10
121.821
 20
47.7576
 30
0.0
 40
0
 41
0
  0
VERTEX
  8
0
 10
121.783
 20
47.5094
 30
0.0
 40
0
 41
0
  0
VERTEX
  8
0
 10
121.721
 20
47.2699
 30
0.0
 40
0
 41
0
  0
VERTEX
  8
0
 10
121.637
 20
47.0401
 30
0.0
 40
0
 41
0
  0
VERTEX
  8
0
 10
121.532
 20
46.8215
 30
0.0
 40
0
 41
0
  0
VERTEX
  8
0
 10
121.407
 20
46.6154
 30
0.0
 40
0
 41
0
  0
VERTEX
  8
0
 10
121.263
 20
46.4231
 30
0.0
 40
0
 41
0
  0
VERTEX
  8
0
 10
121.101
 20
46.2454
 30
0.0
 40
0
 41
0
  0
VERTEX
  8
0
 10
120.924
 20
46.084
 30
0.0
 40
0
 41
0
  0
VERTEX
  8
0
 10
120.731
 20
45.9401
 30
0.0
 40
0
 41
0
  0
VERTEX
  8
0
 10
120.525
 20
45.815
 30
0.0
 40
0
 41
0
  0
VERTEX
  8
0
 10
120.307
 20
45.7097
 30
0.0
 40
0
 41
0
  0
VERTEX
  8
0
 10
120.077
 20
45.6256
 30
0.0
 40
0
 41
0
  0
VERTEX
  8
0
 10
119.837
 20
45.564
 30
0.0
 40
0
 41
0
  0
VERTEX
  8
0
 10
119.589
 20
45.5261
 30
0.0
 40
0
 41
0
  0
VERTEX
  8
0
 10
119.397
 20
45.5132
 30
0.0
 40
0
 41
0
  0
VERTEX
  8
0
 10
119.333
 20
45.5132
 30
0.0
 40
0
 41
0
  0
VERTEX
  8
0
 10
119.27
 20
45.5132
 30
0.0
 40
0
 41
0
  0
VERTEX
  8
0
 10
119.078
 20
45.5261
 30
0.0
 40
0
 41
0
  0
VERTEX
  8
0
 10
118.83
 20
45.564
 30
0.0
 40
0
 41
0
  0
VERTEX
  8
0
 10
118.59
 20
45.6256
 30
0.0
 40
0
 41
0
  0
VERTEX
  8
0
 10
118.36
 20
45.7097
 30
0.0
 40
0
 41
0
  0
VERTEX
  8
0
 10
118.142
 20
45.815
 30
0.0
 40
0
 41
0
  0
VERTEX
  8
0
 10
117.936
 20
45.9401
 30
0.0
 40
0
 41
0
  0
VERTEX
  8
0
 10
117.743
 20
46.084
 30
0.0
 40
0
 41
0
  0
VERTEX
  8
0
 10
117.566
 20
46.2454
 30
0.0
 40
0
 41
0
  0
VERTEX
  8
0
 10
117.404
 20
46.4231
 30
0.0
 40
0
 41
0
  0
VERTEX
  8
0
 10
117.26
 20
46.6154
 30
0.0
 40
0
 41
0
  0
VERTEX
  8
0
 10
117.135
 20
46.8215
 30
0.0
 40
0
 41
0
  0
VERTEX
  8
0
 10
117.03
 20
47.0401
 30
0.0
 40
0
 41
0
  0
VERTEX
  8
0
 10
116.946
 20
47.2699
 30
0.0
 40
0
 41
0
  0
VERTEX
  8
0
 10
116.884
 20
47.5094
 30
0.0
 40
0
 41
0
  0
VERTEX
  8
0
 10
116.846
 20
47.7576
 30
0.0
 40
0
 41
0
  0
VERTEX
  8
0
 10
116.833
 20
47.9494
 30
0.0
 40
0
 41
0
  0
VERTEX
  8
0
 10
116.833
 20
48.0132
 30
0.0
 40
0
 41
0
  0
VERTEX
  8
0
 10
116.833
 20
48.0771
 30
0.0
 40
0
 41
0
  0
VERTEX
  8
0
 10
116.846
 20
48.2689
 30
0.0
 40
0
 41
0
  0
VERTEX
  8
0
 10
116.884
 20
48.5171
 30
0.0
 40
0
 41
0
  0
VERTEX
  8
0
 10
116.946
 20
48.7567
 30
0.0
 40
0
 41
0
  0
VERTEX
  8
0
 10
117.03
 20
48.9864
 30
0.0
 40
0
 41
0
  0
VERTEX
  8
0
 10
117.135
 20
49.2049
 30
0.0
 40
0
 41
0
  0
VERTEX
  8
0
 10
117.26
 20
49.411
 30
0.0
 40
0
 41
0
  0
VERTEX
  8
0
 10
117.404
 20
49.6035
 30
0.0
 40
0
 41
0
  0
VERTEX
  8
0
 10
117.566
 20
49.781
 30
0.0
 40
0
 41
0
  0
VERTEX
  8
0
 10
117.743
 20
49.9424
 30
0.0
 40
0
 41
0
  0
VERTEX
  8
0
 10
117.936
 20
50.0862
 30
0.0
 40
0
 41
0
  0
VERTEX
  8
0
 10
118.142
 20
50.2115
 30
0.0
 40
0
 41
0
  0
VERTEX
  8
0
 10
118.36
 20
50.3168
 30
0.0
 40
0
 41
0
  0
VERTEX
  8
0
 10
118.59
 20
50.4008
 30
0.0
 40
0
 41
0
  0
VERTEX
  8
0
 10
118.83
 20
50.4625
 30
0.0
 40
0
 41
0
  0
VERTEX
  8
0
 10
119.078
 20
50.5004
 30
0.0
 40
0
 41
0
  0
VERTEX
  8
0
 10
119.27
 20
50.5132
 30
0.0
 40
0
 41
0
  0
VERTEX
  8
0
 10
119.333
 20
50.5132
 30
0.0
 40
0
 41
0
  0
VERTEX
  8
0
 10
119.397
 20
50.5132
 30
0.0
 40
0
 41
0
  0
VERTEX
  8
0
 10
119.589
 20
50.5004
 30
0.0
 40
0
 41
0
  0
VERTEX
  8
0
 10
119.837
 20
50.4625
 30
0.0
 40
0
 41
0
  0
VERTEX
  8
0
 10
120.077
 20
50.4008
 30
0.0
 40
0
 41
0
  0
VERTEX
  8
0
 10
120.307
 20
50.3168
 30
0.0
 40
0
 41
0
  0
VERTEX
  8
0
 10
120.525
 20
50.2115
 30
0.0
 40
0
 41
0
  0
VERTEX
  8
0
 10
120.731
 20
50.0862
 30
0.0
 40
0
 41
0
  0
VERTEX
  8
0
 10
120.924
 20
49.9424
 30
0.0
 40
0
 41
0
  0
VERTEX
  8
0
 10
121.101
 20
49.781
 30
0.0
 40
0
 41
0
  0
VERTEX
  8
0
 10
121.263
 20
49.6035
 30
0.0
 40
0
 41
0
  0
VERTEX
  8
0
 10
121.407
 20
49.411
 30
0.0
 40
0
 41
0
  0
VERTEX
  8
0
 10
121.532
 20
49.2049
 30
0.0
 40
0
 41
0
  0
VERTEX
  8
0
 10
121.637
 20
48.9864
 30
0.0
 40
0
 41
0
  0
VERTEX
  8
0
 10
121.721
 20
48.7567
 30
0.0
 40
0
 41
0
  0
VERTEX
  8
0
 10
121.783
 20
48.5171
 30
0.0
 40
0
 41
0
  0
VERTEX
  8
0
 10
121.821
 20
48.2689
 30
0.0
 40
0
 41
0
  0
VERTEX
  8
0
 10
121.833
 20
48.0771
 30
0.0
 40
0
 41
0
  0
VERTEX
  8
0
 10
121.833
 20
48.0132
 30
0.0
 40
0
 41
0
  0
SEQEND
 8
0
  0
POLYLINE
  8
0
 62
     0
 66
     1
 10
0
 20
0
 30
0.0
 70
     1
 40
0
 41
0
  0
VERTEX
  8
0
 10
121.833
 20
12.0132
 30
0.0
 40
0
 41
0
  0
VERTEX
  8
0
 10
121.833
 20
11.9493
 30
0.0
 40
0
 41
0
  0
VERTEX
  8
0
 10
121.821
 20
11.7576
 30
0.0
 40
0
 41
0
  0
VERTEX
  8
0
 10
121.783
 20
11.5094
 30
0.0
 40
0
 41
0
  0
VERTEX
  8
0
 10
121.721
 20
11.2698
 30
0.0
 40
0
 41
0
  0
VERTEX
  8
0
 10
121.637
 20
11.0401
 30
0.0
 40
0
 41
0
  0
VERTEX
  8
0
 10
121.532
 20
10.8215
 30
0.0
 40
0
 41
0
  0
VERTEX
  8
0
 10
121.407
 20
10.6154
 30
0.0
 40
0
 41
0
  0
VERTEX
  8
0
 10
121.263
 20
10.423
 30
0.0
 40
0
 41
0
  0
VERTEX
  8
0
 10
121.101
 20
10.2454
 30
0.0
 40
0
 41
0
  0
VERTEX
  8
0
 10
120.924
 20
10.084
 30
0.0
 40
0
 41
0
  0
VERTEX
  8
0
 10
120.731
 20
9.94011
 30
0.0
 40
0
 41
0
  0
VERTEX
  8
0
 10
120.525
 20
9.81489
 30
0.0
 40
0
 41
0
  0
VERTEX
  8
0
 10
120.307
 20
9.70964
 30
0.0
 40
0
 41
0
  0
VERTEX
  8
0
 10
120.077
 20
9.62554
 30
0.0
 40
0
 41
0
  0
VERTEX
  8
0
 10
119.837
 20
9.56396
 30
0.0
 40
0
 41
0
  0
VERTEX
  8
0
 10
119.589
 20
9.52604
 30
0.0
 40
0
 41
0
  0
VERTEX
  8
0
 10
119.397
 20
9.51313
 30
0.0
 40
0
 41
0
  0
VERTEX
  8
0
 10
119.333
 20
9.51313
 30
0.0
 40
0
 41
0
  0
VERTEX
  8
0
 10
119.27
 20
9.51313
 30
0.0
 40
0
 41
0
  0
VERTEX
  8
0
 10
119.078
 20
9.52604
 30
0.0
 40
0
 41
0
  0
VERTEX
  8
0
 10
118.83
 20
9.56396
 30
0.0
 40
0
 41
0
  0
VERTEX
  8
0
 10
118.59
 20
9.62554
 30
0.0
 40
0
 41
0
  0
VERTEX
  8
0
 10
118.36
 20
9.70964
 30
0.0
 40
0
 41
0
  0
VERTEX
  8
0
 10
118.142
 20
9.81489
 30
0.0
 40
0
 41
0
  0
VERTEX
  8
0
 10
117.936
 20
9.94011
 30
0.0
 40
0
 41
0
  0
VERTEX
  8
0
 10
117.743
 20
10.084
 30
0.0
 40
0
 41
0
  0
VERTEX
  8
0
 10
117.566
 20
10.2454
 30
0.0
 40
0
 41
0
  0
VERTEX
  8
0
 10
117.404
 20
10.423
 30
0.0
 40
0
 41
0
  0
VERTEX
  8
0
 10
117.26
 20
10.6154
 30
0.0
 40
0
 41
0
  0
VERTEX
  8
0
 10
117.135
 20
10.8215
 30
0.0
 40
0
 41
0
  0
VERTEX
  8
0
 10
117.03
 20
11.0401
 30
0.0
 40
0
 41
0
  0
VERTEX
  8
0
 10
116.946
 20
11.2698
 30
0.0
 40
0
 41
0
  0
VERTEX
  8
0
 10
116.884
 20
11.5094
 30
0.0
 40
0
 41
0
  0
VERTEX
  8
0
 10
116.846
 20
11.7576
 30
0.0
 40
0
 41
0
  0
VERTEX
  8
0
 10
116.833
 20
11.9493
 30
0.0
 40
0
 41
0
  0
VERTEX
  8
0
 10
116.833
 20
12.0132
 30
0.0
 40
0
 41
0
  0
VERTEX
  8
0
 10
116.833
 20
12.0771
 30
0.0
 40
0
 41
0
  0
VERTEX
  8
0
 10
116.846
 20
12.2688
 30
0.0
 40
0
 41
0
  0
VERTEX
  8
0
 10
116.884
 20
12.517
 30
0.0
 40
0
 41
0
  0
VERTEX
  8
0
 10
116.946
 20
12.7566
 30
0.0
 40
0
 41
0
  0
VERTEX
  8
0
 10
117.03
 20
12.9863
 30
0.0
 40
0
 41
0
  0
VERTEX
  8
0
 10
117.135
 20
13.2049
 30
0.0
 40
0
 41
0
  0
VERTEX
  8
0
 10
117.26
 20
13.411
 30
0.0
 40
0
 41
0
  0
VERTEX
  8
0
 10
117.404
 20
13.6035
 30
0.0
 40
0
 41
0
  0
VERTEX
  8
0
 10
117.566
 20
13.781
 30
0.0
 40
0
 41
0
  0
VERTEX
  8
0
 10
117.743
 20
13.9424
 30
0.0
 40
0
 41
0
  0
VERTEX
  8
0
 10
117.936
 20
14.0863
 30
0.0
 40
0
 41
0
  0
VERTEX
  8
0
 10
118.142
 20
14.2115
 30
0.0
 40
0
 41
0
  0
VERTEX
  8
0
 10
118.36
 20
14.3167
 30
0.0
 40
0
 41
0
  0
VERTEX
  8
0
 10
118.59
 20
14.4008
 30
0.0
 40
0
 41
0
  0
VERTEX
  8
0
 10
118.83
 20
14.4624
 30
0.0
 40
0
 41
0
  0
VERTEX
  8
0
 10
119.078
 20
14.5003
 30
0.0
 40
0
 41
0
  0
VERTEX
  8
0
 10
119.27
 20
14.5132
 30
0.0
 40
0
 41
0
  0
VERTEX
  8
0
 10
119.333
 20
14.5132
 30
0.0
 40
0
 41
0
  0
VERTEX
  8
0
 10
119.397
 20
14.5132
 30
0.0
 40
0
 41
0
  0
VERTEX
  8
0
 10
119.589
 20
14.5003
 30
0.0
 40
0
 41
0
  0
VERTEX
  8
0
 10
119.837
 20
14.4624
 30
0.0
 40
0
 41
0
  0
VERTEX
  8
0
 10
120.077
 20
14.4008
 30
0.0
 40
0
 41
0
  0
VERTEX
  8
0
 10
120.307
 20
14.3167
 30
0.0
 40
0
 41
0
  0
VERTEX
  8
0
 10
120.525
 20
14.2115
 30
0.0
 40
0
 41
0
  0
VERTEX
  8
0
 10
120.731
 20
14.0863
 30
0.0
 40
0
 41
0
  0
VERTEX
  8
0
 10
120.924
 20
13.9424
 30
0.0
 40
0
 41
0
  0
VERTEX
  8
0
 10
121.101
 20
13.781
 30
0.0
 40
0
 41
0
  0
VERTEX
  8
0
 10
121.263
 20
13.6035
 30
0.0
 40
0
 41
0
  0
VERTEX
  8
0
 10
121.407
 20
13.411
 30
0.0
 40
0
 41
0
  0
VERTEX
  8
0
 10
121.532
 20
13.2049
 30
0.0
 40
0
 41
0
  0
VERTEX
  8
0
 10
121.637
 20
12.9863
 30
0.0
 40
0
 41
0
  0
VERTEX
  8
0
 10
121.721
 20
12.7566
 30
0.0
 40
0
 41
0
  0
VERTEX
  8
0
 10
121.783
 20
12.517
 30
0.0
 40
0
 41
0
  0
VERTEX
  8
0
 10
121.821
 20
12.2688
 30
0.0
 40
0
 41
0
  0
VERTEX
  8
0
 10
121.833
 20
12.0771
 30
0.0
 40
0
 41
0
  0
VERTEX
  8
0
 10
121.833
 20
12.0132
 30
0.0
 40
0
 41
0
  0
SEQEND
 8
0
  0
POLYLINE
  8
0
 62
     0
 66
     1
 10
0
 20
0
 30
0.0
 70
     1
 40
0
 41
0
  0
VERTEX
  8
0
 10
25.8333
 20
48.0132
 30
0.0
 40
0
 41
0
  0
VERTEX
  8
0
 10
25.8333
 20
47.9494
 30
0.0
 40
0
 41
0
  0
VERTEX
  8
0
 10
25.8204
 20
47.7576
 30
0.0
 40
0
 41
0
  0
VERTEX
  8
0
 10
25.7825
 20
47.5094
 30
0.0
 40
0
 41
0
  0
VERTEX
  8
0
 10
25.721
 20
47.2699
 30
0.0
 40
0
 41
0
  0
VERTEX
  8
0
 10
25.6369
 20
47.0401
 30
0.0
 40
0
 41
0
  0
VERTEX
  8
0
 10
25.5317
 20
46.8215
 30
0.0
 40
0
 41
0
  0
VERTEX
  8
0
 10
25.4064
 20
46.6154
 30
0.0
 40
0
 41
0
  0
VERTEX
  8
0
 10
25.2625
 20
46.4231
 30
0.0
 40
0
 41
0
  0
VERTEX
  8
0
 10
25.1011
 20
46.2454
 30
0.0
 40
0
 41
0
  0
VERTEX
  8
0
 10
24.9236
 20
46.084
 30
0.0
 40
0
 41
0
  0
VERTEX
  8
0
 10
24.7311
 20
45.9401
 30
0.0
 40
0
 41
0
  0
VERTEX
  8
0
 10
24.525
 20
45.815
 30
0.0
 40
0
 41
0
  0
VERTEX
  8
0
 10
24.3065
 20
45.7097
 30
0.0
 40
0
 41
0
  0
VERTEX
  8
0
 10
24.0768
 20
45.6256
 30
0.0
 40
0
 41
0
  0
VERTEX
  8
0
 10
23.8372
 20
45.564
 30
0.0
 40
0
 41
0
  0
VERTEX
  8
0
 10
23.589
 20
45.5261
 30
0.0
 40
0
 41
0
  0
VERTEX
  8
0
 10
23.3972
 20
45.5132
 30
0.0
 40
0
 41
0
  0
VERTEX
  8
0
 10
23.3333
 20
45.5132
 30
0.0
 40
0
 41
0
  0
VERTEX
  8
0
 10
23.2694
 20
45.5132
 30
0.0
 40
0
 41
0
  0
VERTEX
  8
0
 10
23.0778
 20
45.5261
 30
0.0
 40
0
 41
0
  0
VERTEX
  8
0
 10
22.8296
 20
45.564
 30
0.0
 40
0
 41
0
  0
VERTEX
  8
0
 10
22.5899
 20
45.6256
 30
0.0
 40
0
 41
0
  0
VERTEX
  8
0
 10
22.3603
 20
45.7097
 30
0.0
 40
0
 41
0
  0
VERTEX
  8
0
 10
22.1417
 20
45.815
 30
0.0
 40
0
 41
0
  0
VERTEX
  8
0
 10
21.9356
 20
45.9401
 30
0.0
 40
0
 41
0
  0
VERTEX
  8
0
 10
21.7431
 20
46.084
 30
0.0
 40
0
 41
0
  0
VERTEX
  8
0
 10
21.5656
 20
46.2454
 30
0.0
 40
0
 41
0
  0
VERTEX
  8
0
 10
21.4043
 20
46.4231
 30
0.0
 40
0
 41
0
  0
VERTEX
  8
0
 10
21.2603
 20
46.6154
 30
0.0
 40
0
 41
0
  0
VERTEX
  8
0
 10
21.1351
 20
46.8215
 30
0.0
 40
0
 41
0
  0
VERTEX
  8
0
 10
21.0299
 20
47.0401
 30
0.0
 40
0
 41
0
  0
VERTEX
  8
0
 10
20.9457
 20
47.2699
 30
0.0
 40
0
 41
0
  0
VERTEX
  8
0
 10
20.8842
 20
47.5094
 30
0.0
 40
0
 41
0
  0
VERTEX
  8
0
 10
20.8463
 20
47.7576
 30
0.0
 40
0
 41
0
  0
VERTEX
  8
0
 10
20.8333
 20
47.9494
 30
0.0
 40
0
 41
0
  0
VERTEX
  8
0
 10
20.8333
 20
48.0132
 30
0.0
 40
0
 41
0
  0
VERTEX
  8
0
 10
20.8333
 20
48.0771
 30
0.0
 40
0
 41
0
  0
VERTEX
  8
0
 10
20.8463
 20
48.2689
 30
0.0
 40
0
 41
0
  0
VERTEX
  8
0
 10
20.8842
 20
48.5171
 30
0.0
 40
0
 41
0
  0
VERTEX
  8
0
 10
20.9457
 20
48.7567
 30
0.0
 40
0
 41
0
  0
VERTEX
  8
0
 10
21.0299
 20
48.9864
 30
0.0
 40
0
 41
0
  0
VERTEX
  8
0
 10
21.1351
 20
49.2049
 30
0.0
 40
0
 41
0
  0
VERTEX
  8
0
 10
21.2603
 20
49.411
 30
0.0
 40
0
 41
0
  0
VERTEX
  8
0
 10
21.4043
 20
49.6035
 30
0.0
 40
0
 41
0
  0
VERTEX
  8
0
 10
21.5656
 20
49.781
 30
0.0
 40
0
 41
0
  0
VERTEX
  8
0
 10
21.7431
 20
49.9424
 30
0.0
 40
0
 41
0
  0
VERTEX
  8
0
 10
21.9356
 20
50.0862
 30
0.0
 40
0
 41
0
  0
VERTEX
  8
0
 10
22.1417
 20
50.2115
 30
0.0
 40
0
 41
0
  0
VERTEX
  8
0
 10
22.3603
 20
50.3168
 30
0.0
 40
0
 41
0
  0
VERTEX
  8
0
 10
22.5899
 20
50.4008
 30
0.0
 40
0
 41
0
  0
VERTEX
  8
0
 10
22.8296
 20
50.4625
 30
0.0
 40
0
 41
0
  0
VERTEX
  8
0
 10
23.0778
 20
50.5004
 30
0.0
 40
0
 41
0
  0
VERTEX
  8
0
 10
23.2694
 20
50.5132
 30
0.0
 40
0
 41
0
  0
VERTEX
  8
0
 10
23.3333
 20
50.5132
 30
0.0
 40
0
 41
0
  0
VERTEX
  8
0
 10
23.3972
 20
50.5132
 30
0.0
 40
0
 41
0
  0
VERTEX
  8
0
 10
23.589
 20
50.5004
 30
0.0
 40
0
 41
0
  0
VERTEX
  8
0
 10
23.8372
 20
50.4625
 30
0.0
 40
0
 41
0
  0
VERTEX
  8
0
 10
24.0768
 20
50.4008
 30
0.0
 40
0
 41
0
  0
VERTEX
  8
0
 10
24.3065
 20
50.3168
 30
0.0
 40
0
 41
0
  0
VERTEX
  8
0
 10
24.525
 20
50.2115
 30
0.0
 40
0
 41
0
  0
VERTEX
  8
0
 10
24.7311
 20
50.0862
 30
0.0
 40
0
 41
0
  0
VERTEX
  8
0
 10
24.9236
 20
49.9424
 30
0.0
 40
0
 41
0
  0
VERTEX
  8
0
 10
25.1011
 20
49.781
 30
0.0
 40
0
 41
0
  0
VERTEX
  8
0
 10
25.2625
 20
49.6035
 30
0.0
 40
0
 41
0
  0
VERTEX
  8
0
 10
25.4064
 20
49.411
 30
0.0
 40
0
 41
0
  0
VERTEX
  8
0
 10
25.5317
 20
49.2049
 30
0.0
 40
0
 41
0
  0
VERTEX
  8
0
 10
25.6369
 20
48.9864
 30
0.0
 40
0
 41
0
  0
VERTEX
  8
0
 10
25.721
 20
48.7567
 30
0.0
 40
0
 41
0
  0
VERTEX
  8
0
 10
25.7825
 20
48.5171
 30
0.0
 40
0
 41
0
  0
VERTEX
  8
0
 10
25.8204
 20
48.2689
 30
0.0
 40
0
 41
0
  0
VERTEX
  8
0
 10
25.8333
 20
48.0771
 30
0.0
 40
0
 41
0
  0
VERTEX
  8
0
 10
25.8333
 20
48.0132
 30
0.0
 40
0
 41
0
  0
SEQEND
 8
0
  0
ENDSEC
  0
EOF
