0
SECTION
2
HEADER
9
$INSUNITS
70
4
9
$ACADVER
1
AC1014
9
$HANDSEED
5
FFFF
0
ENDSEC
0
SECTION
2
TABLES
0
TABLE
2
VPORT
5
8
100
AcDbSymbolTable
0
ENDTAB
0
TABLE
2
LTYPE
5
5
100
AcDbSymbolTable
0
LTYPE
5
14
100
AcDbSymbolTableRecord
100
AcDbLinetypeTableRecord
2
BYBLOCK
70
0
0
LTYPE
5
15
100
AcDbSymbolTableRecord
100
AcDbLinetypeTableRecord
2
BYLAYER
70
0
0
ENDTAB
0
TABLE
2
LAYER
5
2
100
AcDbSymbolTable
70
2
0
LAYER
5
50
100
AcDbSymbolTableRecord
100
AcDbLayerTableRecord
2
0
70
0
6
CONTINUOUS
0
ENDTAB
0
TABLE
2
STYLE
5
3
100
AcDbSymbolTable
70
1
0
STYLE
5
11
100
AcDbSymbolTableRecord
100
AcDbTextStyleTableRecord
2
STANDARD
70
0
0
ENDTAB
0
TABLE
2
VIEW
5
6
100
AcDbSymbolTable
70
0
0
ENDTAB
0
TABLE
2
UCS
5
7
100
AcDbSymbolTable
70
0
0
ENDTAB
0
TABLE
2
APPID
5
9
100
AcDbSymbolTable
70
2
0
APPID
5
12
100
AcDbSymbolTableRecord
100
AcDbRegAppTableRecord
2
ACAD
70
0
0
ENDTAB
0
TABLE
2
DIMSTYLE
5
A
100
AcDbSymbolTable
70
1
0
ENDTAB
0
TABLE
2
BLOCK_RECORD
5
1
100
AcDbSymbolTable
70
1
0
BLOCK_RECORD
5
1F
100
AcDbSymbolTableRecord
100
AcDbBlockTableRecord
2
*MODEL_SPACE
0
BLOCK_RECORD
5
1B
100
AcDbSymbolTableRecord
100
AcDbBlockTableRecord
2
*PAPER_SPACE
0
ENDTAB
0
ENDSEC
0
SECTION
2
BLOCKS
0
BLOCK
5
20
100
AcDbEntity
100
AcDbBlockBegin
2
*MODEL_SPACE
0
ENDBLK
5
21
100
AcDbEntity
100
AcDbBlockEnd
0
BLOCK
5
1C
100
AcDbEntity
100
AcDbBlockBegin
2
*PAPER_SPACE
0
ENDBLK
5
1D
100
AcDbEntity
100
AcDbBlockEnd
0
ENDSEC
0
SECTION
2
ENTITIES
0
CIRCLE
5
100
100
AcDbEntity
8
0
100
AcDbCircle
10
-18.25
20
42.75
30
0
40
16.250000000000004
210
0
220
-0
230
1
0
CIRCLE
5
101
100
AcDbEntity
8
0
100
AcDbCircle
10
24.5
20
0
30
0
40
22.500000000000007
210
0
220
-0
230
1
0
CIRCLE
5
102
100
AcDbEntity
8
0
100
AcDbCircle
10
30.75
20
-55.25
30
0
40
28.749999999999993
210
0
220
-0
230
1
0
CIRCLE
5
103
100
AcDbEntity
8
0
100
AcDbCircle
10
-24.5
20
0
30
0
40
22.500000000000007
210
0
220
-0
230
1
0
CIRCLE
5
104
100
AcDbEntity
8
0
100
AcDbCircle
10
-30.75
20
-55.25
30
0
40
28.749999999999993
210
0
220
-0
230
1
0
CIRCLE
5
105
100
AcDbEntity
8
0
100
AcDbCircle
10
18.25
20
42.75
30
0
40
16.250000000000004
210
0
220
-0
230
1
0
LWPOLYLINE
5
106
100
AcDbEntity
8
0
100
AcDbPolyline
90
40
70
1
43
0.0
10
4.5000000000000062
20
63.000000000000007
10
-4.5000000000000018
20
63.000000000000007
10
-4.5000000000000018
20
66
10
-16.999999999999996
20
66
10
-16.999999999999996
20
63.000000000000007
10
-26
20
63.000000000000007
10
-26
20
66
10
-38.5
20
66
10
-55.268947789229088
20
1.9426194451450662
42
0.064096241315055744
10
-63.500000000000014
20
-62.002131285019658
10
-63.500000000000014
20
-91
10
-49.83333333333335
20
-91
10
-49.83333333333335
20
-88
10
-40.83333333333335
20
-88
10
-40.83333333333335
20
-91
10
-27.166666666666679
20
-91.000000000000014
10
-27.166666666666679
20
-88
10
-18.166666666666671
20
-88
10
-18.166666666666671
20
-91.000000000000014
10
-4.5000000000000018
20
-91.000000000000014
10
-4.5000000000000018
20
-88
10
4.4999999999999885
20
-88
10
4.4999999999999885
20
-91.000000000000014
10
18.166666666666664
20
-91.000000000000014
10
18.166666666666664
20
-88
10
27.166666666666668
20
-88
10
27.166666666666668
20
-91.000000000000014
10
40.833333333333329
20
-91
10
40.833333333333329
20
-88
10
49.833333333333336
20
-88
10
49.833333333333336
20
-91
10
63.500000000000007
20
-91
10
63.500000000000014
20
-62.002131285019516
42
0.06409624131505498
10
55.26894778922901
20
1.9426194451452439
10
38.500000000000007
20
66
10
26.000000000000007
20
66
10
26.000000000000007
20
63.000000000000007
10
17
20
63.000000000000007
10
17
20
66
10
4.5000000000000062
20
66
0
ENDSEC
0
SECTION
2
OBJECTS
0
DICTIONARY
5
C
100
AcDbDictionary
3
ACAD_GROUP
350
D
3
ACAD_MLINESTYLE
350
17
0
DICTIONARY
5
D
100
AcDbDictionary
0
DICTIONARY
5
1A
330
C
100
AcDbDictionary
0
DICTIONARY
5
17
100
AcDbDictionary
0
ENDSEC
0
EOF
